<svg width="37" height="21" viewBox="0 0 37 21" fill="none" xmlns="http://www.w3.org/2000/svg">
<path fill-rule="evenodd" clip-rule="evenodd" d="M0.608752 16.2045C2.63854 16.6394 3.65343 17.2194 4.81331 17.7993C5.68322 18.2343 6.26316 18.9592 6.98809 19.6841C7.71302 20.409 9.01789 20.554 9.74282 19.9741C10.7577 19.2492 11.6276 18.5242 12.4975 17.7993C12.7875 17.6543 13.2225 17.6543 13.5124 17.7993C14.0924 18.0893 14.6723 18.0893 15.1073 17.5093C15.9772 16.2045 16.8471 14.7546 17.862 13.5947C18.8769 12.4349 20.0368 11.275 21.1966 10.2601C21.4866 10.1151 21.7766 9.97011 22.2115 9.97011C22.7915 9.82512 22.7915 10.695 22.2115 11.5649C21.3416 12.8698 20.4717 14.1747 19.7468 15.6245C19.3118 16.3495 19.4568 17.2194 19.7468 17.9443C20.0368 18.6692 21.1966 19.1042 21.7766 18.6692C22.2115 18.3792 22.7915 18.0893 23.0814 17.5093C23.8064 16.2045 24.8213 15.4795 26.4161 15.3346C26.9961 15.3346 27.576 15.0446 28.1559 14.7546C28.7359 14.4646 29.3158 14.1747 29.6058 13.7397C30.4757 11.5649 33.0854 10.4051 33.3754 7.79533C33.3754 7.36037 34.1003 6.92542 34.5353 6.63545C34.9702 6.34548 35.5502 6.20049 36.1301 5.91052C36.7101 5.62055 37 5.04061 37 4.46067C37 3.73575 37 2.86584 37 2.14091C37 1.271 36.2751 0.111115 35.8401 0.256101C35.2602 0.401086 34.6803 0.546071 34.2453 0.981026C33.5204 1.85094 32.7955 2.28589 32.2155 1.70595C30.4757 0.256101 28.7359 0.546073 27.286 0.111118C26.1261 -0.178853 24.9662 0.111118 23.9513 0.836043C19.8918 3.73575 15.6872 6.34548 10.7577 7.65035C9.59783 7.94032 8.58293 8.81022 7.42305 8.95521C5.39326 9.24518 3.65344 10.2601 2.0586 11.275C0.463766 12.2899 0.173783 13.7397 0.0287977 15.3346C-0.116187 15.6245 0.318781 16.2045 0.608752 16.2045Z" fill="#FAFAFA"/>
</svg>
