<svg width="13" height="9" viewBox="0 0 13 9" fill="none" xmlns="http://www.w3.org/2000/svg">
<path fill-rule="evenodd" clip-rule="evenodd" d="M1.51317 7.92644C3.17736 8.38031 4.69028 8.68288 6.35447 8.98546C7.56479 9.13675 7.41354 8.07772 7.71612 7.32127C7.56483 7.01869 7.26221 6.8674 7.11092 6.56482C6.50576 5.50579 6.50573 4.29547 7.26218 3.8416C8.01863 3.23644 8.92644 2.78257 9.98547 3.38773C10.8932 3.8416 11.8009 3.99289 12.7087 3.69031C12.7087 3.38773 12.7087 2.93386 12.4061 2.63128C11.0445 1.26967 9.38026 0.513222 7.56478 0.0593516C6.80833 -0.0919384 5.90062 0.0593528 5.14417 0.361933C3.1774 1.42096 1.66448 3.08515 0.302872 5.05192C-0.453578 5.95966 0.302854 7.62386 1.51317 7.92644Z" fill="#FAFAFA"/>
</svg>
