<svg width="18" height="8" viewBox="0 0 18 8" fill="none" xmlns="http://www.w3.org/2000/svg">
<path fill-rule="evenodd" clip-rule="evenodd" d="M2.85666 5.53722C5.76452 6.84576 8.96311 7.28194 11.871 7.71812C12.8887 7.57272 13.6158 7.57272 14.4881 7.42733C16.0874 6.99115 17.2506 5.9734 17.8322 4.37407C17.9775 3.7925 18.1229 3.06553 17.8322 2.62935C16.9598 1.03002 15.3605 -0.133123 13.4704 0.01227C12.1618 0.01227 10.8533 0.739237 9.39936 0.884631C7.80003 1.03002 6.34608 0.739236 4.74675 0.593843C4.31057 0.593843 3.87441 0.739237 3.58362 0.884631C2.71126 1.4662 1.69351 1.32081 0.675758 1.32081C0.239578 1.32081 -0.196637 2.19317 0.0941492 2.62935C0.821116 3.7925 1.54812 4.95564 2.85666 5.53722Z" fill="#FAFAFA"/>
</svg>
