<svg width="8" height="10" viewBox="0 0 8 10" fill="none" xmlns="http://www.w3.org/2000/svg">
<path fill-rule="evenodd" clip-rule="evenodd" d="M0.859274 1.99828C0.5607 2.14757 0.112839 2.59543 0.112839 2.89401C-0.0364483 4.68545 -0.185699 6.62618 0.710023 8.26834C1.0086 8.86548 1.755 9.7612 2.35214 9.91049C4.14359 10.2091 5.93507 9.76121 7.42794 8.56691C7.8758 8.26834 8.0251 7.37261 7.72653 6.92475C7.57724 6.77546 7.57722 6.62618 7.42794 6.32761C7.12936 6.02903 6.98008 5.73046 6.6815 5.2826C6.08435 4.38687 6.08437 4.38687 6.98009 3.19258C7.87582 1.99828 8.02508 1.25185 7.42794 0.654703C6.6815 -0.241019 5.63651 -0.0917334 4.74079 0.356128C4.14364 0.654701 3.54644 0.803985 3.09858 0.953272C2.20286 1.25185 1.45642 1.55042 0.859274 1.99828Z" fill="#FAFAFA"/>
</svg>
