<svg width="199" height="175" viewBox="0 0 199 175" fill="none" xmlns="http://www.w3.org/2000/svg">
<path fill-rule="evenodd" clip-rule="evenodd" d="M198.276 80.7569C196.392 82.3506 196.392 82.3506 195.378 80.4671C195.233 80.1773 194.943 79.7426 194.654 79.4529C193.639 77.8592 193.35 75.6859 191.176 74.6718C190.452 72.3536 187.989 70.615 188.713 67.5724C189.003 66.2685 188.279 65.5441 186.975 64.9645C185.96 64.5299 184.946 63.9504 183.642 63.5157C183.353 63.3708 183.063 62.9362 183.063 62.6465C183.063 60.763 182.773 59.0243 181.759 57.4306C181.034 55.9818 180.31 54.6779 180.31 52.9393C180.31 52.5046 179.875 51.7802 179.296 51.4904C176.398 49.7518 174.225 47.1439 171.037 45.6951C170.313 45.4053 169.733 44.6809 169.589 43.8116C169.299 42.2179 168.864 40.6242 169.009 39.1753C169.299 36.8572 168.864 34.8289 167.56 32.9454C166.546 31.3517 166.111 29.7579 166.256 27.8745C166.256 26.5705 165.967 25.1216 166.111 23.6728C166.256 21.6444 165.387 20.1956 164.083 18.8917C163.214 18.0224 162.2 17.5877 160.896 17.8775C160.026 18.0224 159.302 17.4428 159.157 16.7184C159.012 16.1389 158.867 15.5593 158.867 14.9798C159.012 12.9514 158.288 11.068 157.853 9.03962C157.274 6.28684 155.68 3.96867 155.1 1.21588C155.1 0.781234 154.376 0.346602 153.796 0.0568353C153.507 -0.088048 153.072 0.056853 152.782 0.34662C152.492 0.491503 152.203 0.926118 152.058 1.21588C151.333 2.8096 151.044 4.69308 150.319 6.2868C149.595 7.88052 149.45 9.764 149.015 11.3577C148.146 14.2554 147.566 17.1531 147.711 20.1956C147.856 21.2098 147.566 22.224 147.421 23.0933C146.842 25.4114 146.118 27.7296 145.393 29.9028C144.959 31.3516 144.379 32.9454 143.799 34.3942C143.365 35.5533 142.206 36.2777 141.047 36.4226C139.163 36.8572 137.425 36.2777 136.121 34.8288C135.396 33.9595 134.817 32.9453 134.527 31.7863C134.092 31.7863 133.802 31.7863 133.368 31.7863C131.774 31.6414 130.325 31.2068 129.166 29.9028C127.862 28.3091 125.979 27.5847 124.24 26.5705C123.081 25.9909 122.212 25.4114 121.487 24.3972C120.908 23.6728 120.183 22.9484 119.459 22.224C118.59 21.4996 118.3 20.6303 118.735 19.6161C119.459 17.7326 120.618 16.1389 120.618 13.9656C120.618 13.3861 121.198 12.9514 121.777 12.8066C122.357 12.6617 122.936 12.3719 123.226 11.9373C124.095 10.4885 124.965 8.89471 125.689 7.15611C125.834 7.01123 125.399 6.43172 125.254 6.14195C124.53 5.56242 123.516 4.98289 122.502 5.41754C121.487 5.85219 120.618 5.99706 119.749 5.27264C119.169 4.83799 118.59 5.27265 118.155 5.41754C117.575 5.56242 116.996 5.99705 116.416 5.85217C113.519 4.6931 110.186 4.40332 107.579 2.66472C106.13 1.79542 104.681 1.36079 103.232 0.926144C102.942 0.781261 102.508 0.926153 102.073 1.07104C101.928 1.07104 101.638 1.21589 101.638 1.36078C101.493 1.50566 101.493 1.79542 101.638 1.9403C102.218 2.51983 102.797 2.95449 103.377 3.53403C104.101 4.11356 103.812 5.12773 103.087 5.56238C101.783 6.2868 100.479 6.2868 99.0305 6.2868C98.3061 6.2868 97.4367 6.28682 96.7123 6.57659C95.1186 7.301 93.5249 8.3152 92.3658 9.76404C90.7721 11.7924 89.3232 13.9656 87.7295 15.994C87.0051 17.0082 86.8603 18.1672 87.4398 19.3263C87.7296 20.0507 86.8603 20.7751 85.991 20.7751C84.8319 20.7751 83.8177 19.9059 82.5138 20.3405C81.6445 20.6303 80.92 20.3405 80.4854 19.6161C79.6161 18.457 78.8917 17.298 77.8775 16.2838C77.0082 15.4145 75.994 14.8349 74.69 15.2696C73.3861 15.7042 71.9373 15.994 70.9231 16.8633C69.9089 17.5877 69.0396 18.1673 67.7356 18.3121C65.997 18.6019 66.2868 20.6303 65.2726 21.4996C64.838 21.9342 64.4033 22.3689 63.8238 22.6586C61.9403 23.2382 61.5056 24.5421 61.6505 26.4256C61.6505 26.8603 61.6506 27.15 61.5057 27.5847C61.3608 28.1642 60.9262 28.5989 60.3466 28.5989C59.7671 28.5989 59.1875 28.454 58.608 28.454C57.7387 28.454 57.1591 29.3233 57.304 30.0477C57.4489 30.7721 57.5939 31.6414 57.7387 32.3658C57.7387 32.5107 57.5938 32.8005 57.449 32.9454C57.1592 33.2351 56.7245 33.2351 56.4348 32.8005C55.8552 32.0761 55.2757 31.2067 54.6961 30.3374C54.2615 29.7579 53.5371 29.6131 53.1025 30.0477C52.2332 30.7721 51.2189 31.4965 50.3496 32.3658C49.7701 32.9453 49.3354 33.6698 49.3354 34.3942C49.6252 37.147 48.611 39.3202 46.4378 41.2037C45.8582 41.6383 45.5685 42.5076 45.1339 43.2321C43.685 45.5502 41.5118 46.8542 38.759 47.1439C37.0204 47.2888 35.1369 47.5786 33.3983 47.8683C30.9353 49.6069 27.603 49.1723 25.14 51.2006C24.7053 51.4904 23.9809 51.7802 23.4014 51.6353C21.2281 51.0558 19.4895 51.9251 17.7509 52.9393C15.4328 54.0983 13.4044 55.692 10.9414 56.5613C9.78229 56.996 9.05789 58.0102 8.33347 59.0244C7.60905 60.0386 7.46422 58.7346 7.02957 58.7346C6.73981 58.7346 6.16026 58.7346 6.01537 59.0244C5.58072 59.6039 5.00121 60.3283 4.85632 61.0527C4.56656 62.0669 4.56654 63.081 4.56654 63.9503C4.56654 65.5441 4.27674 67.1378 3.26255 68.4418C2.24837 69.7457 2.1035 71.3394 2.1035 72.9331C2.1035 75.1064 2.24842 77.2797 3.40749 79.308C3.69726 79.7427 3.84209 80.4671 3.98697 81.0467C4.13185 81.6262 3.84214 82.2057 3.40749 82.6403C3.11772 82.9301 2.8279 83.075 2.53814 83.3648C2.10349 84.2341 1.66889 84.9585 1.23424 85.8278V85.9726L1.37909 85.8278C1.37909 86.4073 1.37905 86.9869 1.52394 87.5664C2.10347 88.8704 2.53817 90.1743 2.39329 91.6231C2.10352 94.0861 2.82788 96.4043 3.69719 98.5775C4.56649 101.041 4.85627 103.648 4.71139 106.256C4.5665 109.299 4.56656 112.197 5.58074 115.094C5.87051 115.819 5.72559 116.688 5.72559 117.412C5.43582 119.006 5.14604 120.6 4.71139 122.049C4.27674 124.222 3.26261 126.105 1.23424 127.409C-0.359478 128.568 -0.359495 130.887 0.944455 132.19C1.81375 133.06 2.68307 133.784 3.40749 134.798C4.56656 136.392 6.1602 136.972 8.04369 137.261C9.49252 137.406 10.7965 137.551 12.2453 137.406C12.9698 137.406 13.9839 137.261 14.5634 136.827C17.3162 134.798 21.0832 134.798 23.4014 131.901C23.6911 131.611 24.1258 131.466 24.4156 131.466C27.1684 131.176 29.9211 130.307 32.6739 130.886C34.992 131.466 37.455 131.321 39.7732 131.321C40.9322 131.321 42.0913 130.742 42.9606 129.872C45.4236 127.409 47.452 125.96 50.9292 124.222C51.7985 123.787 52.6678 123.208 53.5371 122.628C54.6962 121.759 56.0001 121.324 57.449 121.469C61.071 121.904 64.6931 121.324 67.8806 119.73C70.4885 118.426 73.0963 117.992 75.994 117.992C78.0224 117.992 80.0507 118.137 81.9342 118.137C82.9484 118.137 83.9626 118.571 84.5422 119.441C85.5563 120.745 87.0052 121.324 88.5989 121.614C90.3375 121.904 91.9312 122.773 93.6698 123.497C94.5391 123.932 95.2635 124.801 95.2635 125.816C95.1186 127.12 95.4084 128.134 96.2777 129.003C97.2919 130.017 97.8714 131.321 98.0163 132.77C98.1612 134.219 98.306 135.523 98.4509 136.972C98.4509 137.551 98.4509 138.131 98.4509 138.71C98.4509 138.855 98.4509 139.145 98.5958 139.29C99.0304 139.724 99.4651 140.159 99.8998 140.449C100.19 140.594 100.769 140.449 100.914 140.159C102.508 138.42 104.101 136.537 105.84 134.943C106.709 134.074 107.868 133.639 108.738 132.77C109.752 131.901 110.621 130.742 111.49 129.727C111.635 129.583 111.925 129.583 112.07 129.583C112.215 129.583 112.36 129.872 112.36 130.017C112.505 130.887 112.505 131.756 111.925 132.335C110.476 133.784 109.607 135.523 109.027 137.551C108.448 139.435 107.579 140.739 105.84 141.608C105.55 141.753 105.26 142.187 105.26 142.622C105.26 142.912 105.405 143.491 105.695 143.636C106.275 143.781 106.854 143.636 107.434 143.636C109.172 143.636 110.476 142.912 111.201 141.173C111.346 140.739 111.49 140.449 111.78 140.159C111.925 140.014 112.07 139.869 112.215 139.724C112.36 140.014 112.794 140.159 112.794 140.449C112.939 142.187 112.939 144.071 111.78 145.52C111.346 145.954 111.78 146.679 112.36 146.824C113.374 146.969 114.243 146.969 115.257 146.969V146.824L115.547 146.534L115.402 146.969H115.257C115.257 147.113 115.257 147.258 115.257 147.403C116.416 150.591 117.141 153.923 115.692 157.255C115.402 157.835 115.692 158.849 115.982 159.573C116.272 160.443 116.851 161.312 117.286 162.326C118.445 165.224 120.618 166.673 123.516 167.397C125.109 167.832 126.413 168.556 127.717 169.57C128.442 170.15 129.166 171.019 129.891 171.599C130.47 172.033 131.339 172.323 132.209 171.888C134.672 170.584 137.28 169.57 138.728 166.818C138.873 166.383 139.453 166.528 139.743 166.962C139.888 167.107 140.032 167.252 139.888 167.397C139.743 167.977 139.308 168.846 139.598 169.136C140.902 170.874 141.771 173.048 143.365 174.496C143.799 174.931 144.524 175.076 144.958 174.786C146.987 172.903 149.45 171.599 151.623 169.715C153.652 167.977 156.114 167.252 158.722 167.107C159.737 167.107 160.751 167.107 161.765 166.962C163.359 166.818 165.822 164.789 165.822 163.051C165.967 160.443 167.271 158.125 167.85 155.662C168.43 152.909 169.878 150.446 171.762 148.417C173.066 147.113 173.935 145.52 174.804 143.926C175.819 142.042 176.833 140.014 177.847 138.131C179.586 134.943 181.469 132.046 184.801 130.162C185.381 129.727 186.105 129.148 186.25 128.423C186.975 125.816 189.583 124.367 190.307 121.904C191.031 119.441 191.031 116.833 192.19 114.37C193.639 111.472 194.219 108.285 195.957 105.677C196.537 104.952 196.682 103.793 196.827 102.924C197.117 100.896 196.972 99.0122 196.392 96.9838C195.957 95.535 195.957 94.231 196.392 92.927C196.682 92.0577 196.972 91.0435 196.972 90.0293C197.116 87.1317 197.696 84.5238 198.71 81.9159C198.855 81.6262 199 81.1915 199 80.7569C199 80.4671 198.71 80.1773 198.565 79.8875C198.71 80.6119 198.42 80.7569 198.276 80.7569Z" fill="#FAFAFA"/>
</svg>
