<svg width="49" height="46" viewBox="0 0 49 46" fill="none" xmlns="http://www.w3.org/2000/svg">
<path fill-rule="evenodd" clip-rule="evenodd" d="M47.062 31.7743C46.3392 31.196 45.9054 30.7623 45.6163 30.0394C45.038 28.8828 44.026 28.3045 42.7248 28.3045C40.9899 28.4491 39.1105 28.4491 37.5201 27.437C37.0864 27.1479 36.3635 27.2925 35.7852 27.2925C33.1829 27.5816 30.5805 27.7262 28.1228 28.1599C26.5324 28.4491 25.0867 29.0274 24.0746 27.1479C23.6409 26.425 22.7735 26.425 22.0506 26.1359C19.7374 25.2684 17.7134 24.1118 17.1351 21.5095C16.8459 20.3529 15.9785 19.9192 15.111 19.7746C14.3882 19.63 14.5327 19.4854 15.111 19.1963C15.6893 18.7626 16.2676 18.3288 16.8459 17.7505L16.7013 17.606H16.9905C16.9905 17.606 16.8459 17.606 16.8459 17.7505C18.0025 17.8951 19.1591 18.1843 20.3157 17.8951C20.7494 17.7505 21.1832 16.7385 20.894 16.4494C20.7495 16.1602 20.6048 15.7265 20.3157 15.4373C19.1591 14.4253 18.7254 13.4133 19.0145 11.823C19.1591 10.8109 17.8579 9.50977 16.8459 9.36519C15.8339 9.22062 14.8218 9.36519 13.8098 9.22061C12.9424 9.07604 12.2195 8.78689 11.9304 7.91944C11.6412 7.19657 11.4966 6.32912 11.2075 5.60624C11.0629 5.02794 10.9183 4.30507 10.4846 4.01592C8.8943 2.85932 7.73772 1.12442 5.71367 0.40155C4.12334 -0.321324 2.53301 -0.032172 1.23184 0.979852C0.36439 1.55815 -0.213935 2.71475 0.0752142 3.5822C0.798088 5.8954 1.23181 8.20859 1.52096 10.5218C1.52096 10.8109 1.95469 11.2447 2.24384 11.3892C3.83416 12.1121 5.56909 12.6904 7.15942 13.2687C8.74974 13.847 8.7497 13.9916 8.7497 15.2928C8.7497 16.4494 8.60513 17.606 8.7497 18.9071C8.89428 20.4975 8.31601 21.6541 7.01483 22.5215C6.00281 23.2444 5.27993 24.2564 4.70163 25.1238C2.96673 27.5816 2.82214 30.3285 2.96671 33.0755C3.11129 34.9549 5.42451 34.8104 6.29196 36.1115C6.43653 36.2561 6.58109 36.4007 6.72567 36.5453C8.02684 37.7019 9.61716 37.8464 11.0629 36.979C11.3521 36.8344 11.7858 36.5453 12.075 36.5453C12.5087 36.4007 12.7978 36.6898 12.6532 37.2681C12.5087 37.8464 12.2195 38.4247 12.3641 39.003C12.5087 39.8705 13.2315 40.3042 14.099 40.4488C15.9785 40.8825 18.0025 41.6054 19.882 41.6054C23.6409 41.6054 27.1107 43.6294 31.0143 43.4849C31.7371 43.4849 32.46 44.0631 33.1829 44.4969C34.6286 45.3643 36.0743 45.798 37.6647 45.5089C38.8213 45.3643 39.9779 45.5089 41.279 45.3643C41.8573 45.3643 42.4356 45.0752 42.8694 44.6414C43.8814 43.6294 45.038 42.9066 46.3392 42.3283C47.2066 41.8945 47.3512 41.1717 47.2066 40.3042C47.062 39.4368 47.4958 38.8585 47.9295 38.1356C49.6644 35.3887 49.2307 33.3646 47.062 31.7743Z" fill="#FAFAFA"/>
</svg>
