<svg width="49" height="49" viewBox="0 0 49 49" fill="none" xmlns="http://www.w3.org/2000/svg">
<path fill-rule="evenodd" clip-rule="evenodd" d="M47.9699 3.43056C47.2475 3.57504 46.3805 4.00846 45.6581 3.86398C44.3578 3.7195 44.9359 2.13027 44.358 1.55236C44.069 1.2634 43.9245 0.829945 43.78 0.540988C43.3466 -0.0369268 42.3352 -0.181423 41.6128 0.252013C41.1794 0.54097 40.457 0.974476 40.3125 1.40791C39.1567 4.44196 37.423 7.04258 34.3889 8.63184C33.811 9.06528 33.3776 9.78765 32.9441 10.51C32.3662 11.3769 31.9327 12.2438 31.6438 13.1106C30.7769 15.2778 29.3321 16.7226 27.3094 17.734C24.9978 18.8898 22.8306 20.3346 20.6634 21.6349C18.7852 22.6463 17.4849 24.6689 15.0287 24.6689C14.4508 24.6689 14.0174 25.2468 13.4395 25.5358C10.4055 27.8474 7.6603 30.4481 5.05969 33.0487C2.89251 35.2159 1.59217 37.8165 0.147381 40.4171C-0.286055 41.1395 0.291965 42.5843 1.15884 43.0177C3.03706 43.7401 4.91532 44.4625 6.07115 46.1963C6.3601 46.4852 6.50458 46.7742 6.79354 47.0631C8.09385 48.3634 9.97193 48.6524 11.7057 47.7855C14.7397 46.4852 16.618 43.7401 19.3631 42.2953C20.23 40.995 21.0969 39.5503 21.9638 38.25C22.5417 37.3831 23.1196 36.5162 23.6975 35.9382C24.7088 34.9269 25.4312 33.7711 26.0091 32.4708C28.3207 27.992 27.7428 29.1477 31.7882 26.9806C32.9441 26.4026 34.0999 26.4027 35.2558 26.4027C36.5561 26.4027 37.423 25.6803 37.134 24.6689C36.7006 22.6462 37.1339 21.2015 39.0122 20.1901C39.7346 19.9012 40.3126 19.3232 40.746 18.6008C42.7687 15.8557 45.0803 13.544 47.392 11.0879C47.9699 10.51 48.2588 9.7876 48.2588 8.92073C48.2588 8.19834 48.4033 7.33148 48.4033 7.04252C48.5478 6.46461 48.6923 6.17564 48.6923 6.03116C48.8368 5.59772 48.8367 5.30878 48.9812 4.87535C48.9812 4.73087 48.9812 4.44196 48.9812 4.29748C49.1257 4.00853 48.4034 3.43056 47.9699 3.43056Z" fill="#FAFAFA"/>
</svg>
