<svg width="12" height="13" viewBox="0 0 12 13" fill="none" xmlns="http://www.w3.org/2000/svg">
<path fill-rule="evenodd" clip-rule="evenodd" d="M9.97587 12.384C10.4096 12.5286 11.1324 12.3841 11.7107 12.2395C11.8553 12.2395 11.8554 11.9503 12 11.8057C11.8554 11.5165 11.8553 11.0829 11.5662 10.7937C9.39753 8.19133 7.2289 5.7335 4.91567 3.27568C4.19278 2.40822 3.18063 1.54074 2.45774 0.81785C2.16859 0.528695 1.87951 0.23954 1.44577 0.094963C1.15662 -0.0496144 0.57838 -0.0496056 0.433803 0.239549C0.144648 0.384127 0 0.96241 0 1.25156C0.57831 3.85396 2.45785 5.7335 4.19278 7.613C5.92771 9.34793 7.51806 11.5166 9.97587 12.384Z" fill="#FAFAFA"/>
</svg>
