<svg width="12" height="14" viewBox="0 0 12 14" fill="none" xmlns="http://www.w3.org/2000/svg">
<path fill-rule="evenodd" clip-rule="evenodd" d="M0.805112 5.36741C-0.268371 6.44089 -0.268371 8.1278 0.805112 9.20128C2.33866 10.5815 3.87221 11.9617 5.55911 13.1885C5.86582 13.4952 6.32591 13.4952 6.63262 13.6486C7.85945 14.1086 9.39301 13.6486 9.85307 12.4217C10.4665 10.8882 11.0799 9.35463 11.5399 7.66773C11.8466 6.90096 11.8467 5.98083 12 5.21406C12 3.52716 11.3866 1.99361 10.1598 0.766773C9.39298 0 8.31951 0 7.24603 0C6.63261 0 6.01917 9.35774e-06 5.40575 0.153364C4.17891 2.45368 2.49201 3.83387 0.805112 5.36741Z" fill="#FAFAFA"/>
</svg>
