<svg width="96" height="132" viewBox="0 0 96 132" fill="none" xmlns="http://www.w3.org/2000/svg">
<path fill-rule="evenodd" clip-rule="evenodd" d="M18.9932 32.2498L19.4281 32.3948L18.9932 32.5398V32.2498ZM40.886 24.4206C41.031 24.2756 41.176 23.9856 41.466 23.8406C41.321 23.9856 41.176 24.2756 41.176 24.5655C41.031 24.5655 40.451 25.0005 40.886 24.4206ZM78.1474 53.7077C78.5823 53.5627 78.8723 53.8527 78.8723 54.2877C78.8723 54.8676 78.5823 55.3026 78.0024 55.4475V55.5925L77.7124 55.8825L77.8574 55.4475C77.8574 55.4475 77.8574 55.4475 78.0024 55.4475C77.8574 55.0126 77.7124 54.4326 77.7124 53.9977C77.7124 53.9977 77.8574 53.8527 78.1474 53.7077ZM50.3101 105.758C50.0201 105.758 49.5852 105.613 49.2952 105.468C49.1502 105.468 49.1502 105.178 49.2952 105.033C49.8751 104.018 50.4551 103.003 50.8901 101.843C51.18 101.408 51.325 101.263 51.7599 101.553C51.9049 101.698 52.0499 101.843 52.1949 101.988C52.4849 102.568 52.6299 103.003 52.7749 103.438C52.4849 104.743 51.7599 105.613 50.3101 105.758ZM19.7181 48.1982C22.0379 48.4882 23.9226 50.518 26.3874 50.0831C26.5324 50.0831 26.8224 50.228 26.9674 50.373C27.2574 50.518 27.6923 50.808 27.9823 51.098C28.8522 51.8229 29.7221 52.6928 30.737 53.2728C31.1719 53.5627 31.8969 53.7077 32.4768 53.5627C32.9118 53.4177 33.2017 52.9828 33.6367 52.5478C33.2017 52.1129 32.9118 51.5329 32.4768 51.098C32.4768 51.098 32.4768 50.953 32.3318 50.953C31.4619 50.953 30.737 50.953 30.302 49.9381C30.1571 49.9381 30.157 49.9381 30.157 49.9381L29.8671 49.6481L30.302 49.7931C30.302 49.7931 30.3021 49.9381 30.447 49.9381C31.317 49.9381 32.0419 50.0831 32.4768 50.953C32.6218 50.953 32.6218 50.953 32.6218 50.953C33.0568 51.3879 33.3467 51.9679 33.7817 52.4028L33.6367 52.5478C34.5066 52.4028 35.5216 52.2579 36.3915 51.9679C37.9863 51.5329 38.8562 50.373 38.7112 48.6332C38.7112 47.9083 38.5662 47.3283 38.4213 46.6034C38.4213 46.6034 38.2763 46.6034 38.2763 46.4584C38.2763 46.3134 38.2763 46.3134 38.2763 46.1684C37.2614 45.1535 37.4064 45.1535 38.4213 43.9937V43.8487C38.4213 43.4137 38.4212 43.4137 38.7112 43.7037C38.7112 43.7037 38.5662 43.8487 38.4213 43.9937C38.4213 44.7186 38.2763 45.4435 38.2763 46.1684C38.2763 46.1684 38.2763 46.3134 38.4213 46.3134V46.4584C39.5811 47.0384 40.886 47.4733 42.0459 48.0533C42.3359 48.1982 42.4809 48.6332 42.6258 49.0682C42.6258 49.2132 42.6258 49.5031 42.4808 49.6481C42.1909 50.518 41.6109 51.5329 41.6109 52.4028C41.7559 53.2728 42.7708 53.9977 42.9158 54.8676C43.3508 56.8974 44.2207 58.4923 45.6706 60.0871C46.1055 60.5221 45.8155 61.247 45.2356 61.5369C44.6556 61.8269 44.0757 61.8269 43.6408 62.1169C43.2058 62.4069 42.9158 62.9868 42.7708 63.5668C42.7708 63.8567 43.0608 64.4367 43.3508 64.4367C44.9456 64.8716 46.3955 63.5667 47.9903 64.4367C48.1353 64.5816 48.2803 64.5817 48.4253 64.8716C48.7153 65.3066 48.5702 65.5965 48.1353 65.8865C47.5553 66.1765 47.1204 66.3215 46.5405 66.6114C46.1055 66.9014 45.9605 67.9163 46.3955 68.2063C46.6855 68.4963 47.1204 68.6413 47.4104 68.6413C47.8453 68.6413 48.1353 68.4963 48.5703 68.3513C50.1651 67.9163 51.325 68.3513 51.7599 70.0911C51.9049 70.3811 52.0499 70.961 52.3399 71.106C54.2247 71.831 54.2247 73.2808 54.0797 75.0206C53.7897 77.0504 53.7898 78.9353 53.6448 80.9651C53.4998 81.69 53.2098 82.5599 52.3399 82.7049C51.18 82.9949 50.0201 83.5748 49.4402 84.5897C48.2803 86.3295 46.5405 87.3444 44.9456 88.5043C41.7559 90.8241 40.596 91.1141 42.6258 95.7536C42.7708 96.0436 42.3359 96.7685 42.1909 96.7685C40.1611 96.7685 38.2763 97.3485 36.3915 98.0734C34.3617 98.7983 32.4768 98.5083 30.592 97.4934C29.5771 96.9135 28.5622 96.3336 27.4023 95.8986C27.1124 95.7536 26.5324 95.8986 26.3874 96.1886C25.3725 97.4935 24.2126 98.5084 23.0527 99.5233C22.4728 99.9582 22.0379 100.828 21.7479 101.408C21.1679 102.423 21.4579 104.018 22.1828 104.743C24.0676 106.773 26.2424 107.932 28.9972 106.483C29.7221 106.193 30.447 105.903 31.317 105.758C31.6069 105.613 32.1869 105.613 32.4768 105.758C34.5066 106.918 36.6814 106.193 38.8562 106.628C40.0161 106.773 40.741 107.352 41.176 108.222C42.1909 109.962 42.7708 111.847 43.9307 113.442C44.6556 114.457 45.2356 115.327 44.5106 116.632C44.0757 117.357 44.3657 118.226 44.8006 118.951C45.9605 120.546 47.2654 121.996 49.0052 122.866H49.1502L49.0052 122.721C50.3101 123.156 51.325 124.171 52.1949 125.186C53.7898 126.926 55.5296 128.52 57.9944 129.1C59.1542 129.39 60.0242 130.405 61.0391 130.84C62.054 131.275 63.2138 131.71 64.3737 132C64.6637 132 65.0987 131.71 65.2437 131.42C65.8236 130.405 65.9686 129.245 65.3886 128.085C63.7938 125.041 62.3439 122.141 59.7342 119.821C58.8642 119.096 58.7193 117.936 58.7193 116.777H58.5743C58.5743 116.632 58.5743 116.632 58.4293 116.487C58.2843 116.342 58.1394 116.342 58.1394 116.197C58.2843 116.197 58.4293 116.197 58.4293 116.342V116.487C58.5743 116.487 58.5743 116.632 58.7193 116.632V116.777C60.6041 117.502 62.1989 118.371 63.5038 119.966C64.5187 121.271 65.6786 122.141 67.2734 122.866C68.4333 123.301 69.1583 124.316 69.7382 125.331C70.3182 126.346 70.8981 127.506 71.478 128.375C71.623 128.665 72.203 128.955 72.4929 128.81C72.9279 128.665 73.0729 128.23 72.9279 127.796C72.058 126.201 72.203 124.896 73.2179 123.301C73.7978 122.286 74.5228 121.416 75.5377 120.691C76.4076 120.111 76.5526 119.096 76.2626 117.936C76.1176 117.357 76.1176 116.777 75.8276 116.197C74.9577 114.167 74.5227 111.992 74.6677 109.817C74.8127 108.512 74.0878 107.642 73.0729 106.918C71.913 106.048 70.8981 105.178 69.8832 104.163C69.3032 103.583 69.0133 102.858 69.0133 101.988C69.0133 100.248 68.7233 98.5083 67.5634 97.0585C67.4184 96.7685 67.4184 96.3336 67.2734 96.0436H67.1285L66.9835 95.7536L67.2734 95.8986V96.0436C67.5634 96.0436 67.9984 96.1886 68.2884 96.1886C70.0282 96.1886 70.1732 96.0436 70.7531 94.3038C70.8981 93.7238 71.188 93.1439 71.333 92.7089C71.623 92.274 72.4929 92.129 72.7829 92.5639C73.6528 93.7238 74.3778 94.8837 75.2477 95.8986C76.4076 97.3485 77.1325 98.9433 77.4225 100.683C77.5674 101.408 77.7124 102.278 77.8574 103.003C78.0024 103.438 78.1474 103.728 78.4374 104.018C79.5973 105.033 80.9021 106.048 82.352 106.483C82.6419 106.628 83.2219 106.193 83.3669 106.048C83.8018 104.888 84.0918 103.728 84.2368 102.713C84.3818 101.843 84.8168 101.263 85.6867 101.118C86.2666 100.973 86.8465 100.828 87.4265 100.683C90.1812 99.6682 91.1961 96.7685 93.8058 95.4637C94.5308 95.0287 95.1107 94.0138 95.5457 93.1439C95.8357 92.7089 95.8357 91.984 95.6907 91.404C95.2557 90.0992 94.5308 88.7943 92.936 88.5043C92.211 88.3593 91.3411 88.2144 90.9061 87.4894L91.0511 87.6344C91.0511 87.4894 91.0511 87.4894 91.0511 87.3444L90.9061 87.4894C90.4712 87.0545 90.4712 86.7645 90.9061 86.3295L91.0511 86.4745C91.0511 86.3295 91.0511 86.3295 91.0511 86.1845L90.9061 86.3295C90.6162 86.0396 90.4712 85.7496 90.0362 85.4596C89.7463 85.3146 89.3113 85.3146 88.8763 85.3146C88.4414 85.3146 88.1514 85.3146 87.7165 85.3146C86.9915 85.1697 86.5566 84.1548 86.7015 83.4298C87.2815 81.69 87.4265 81.4 86.2666 80.8201C85.2517 80.2401 84.2368 79.6602 84.3818 78.2103C83.2219 77.7754 82.207 77.4854 81.0471 77.0505C80.0322 76.6155 79.4523 75.7456 79.1623 74.8757C78.5824 72.9908 77.4225 71.8309 75.5377 71.396C74.8127 71.251 74.6677 70.5261 75.1027 69.9461C76.2626 68.6413 77.5674 67.3364 77.1325 65.3066C76.9875 64.8716 77.4224 64.7266 77.8574 64.8716C78.8723 65.1616 79.7422 65.5966 80.7571 65.5966C81.1921 65.5966 82.062 65.3066 82.207 65.0166C82.4969 64.5817 82.207 63.8567 82.207 63.2768C82.207 63.1318 82.062 62.8418 81.917 62.8418C80.9021 61.9719 80.4672 60.957 81.627 59.7971C82.497 58.7822 82.6419 57.7673 82.207 56.4624C81.627 54.8676 80.7571 53.2728 80.3222 51.5329C79.7422 48.7782 78.1474 47.0384 75.3927 46.3134C74.2328 46.0235 73.2179 45.4435 72.9279 43.9937C72.7829 43.5587 72.203 43.2687 71.768 42.9788L71.478 43.2687L71.768 42.9788C71.768 42.9788 71.768 42.9788 71.913 42.9788C72.348 41.6739 72.4929 40.224 71.768 38.9192C71.3331 38.0492 70.7531 37.1793 70.0282 36.4544C69.1583 35.4395 68.2884 35.1495 66.8385 35.8744C65.6786 36.5994 65.2436 36.4544 64.9537 35.5845C64.3737 33.9896 63.2138 34.2796 62.0539 34.4246C61.909 34.4246 61.619 34.4246 61.474 34.2796C61.0391 33.9896 61.184 33.6997 61.619 33.4097C62.1989 32.8297 62.6339 32.2498 63.0689 31.5249C63.2138 31.2349 63.2138 30.655 62.9239 30.365C62.6339 29.93 61.909 29.6401 61.619 29.2051C61.184 28.4802 61.9089 27.7552 61.9089 27.0303C61.9089 25.8704 61.474 25.0005 60.7491 24.4206C58.8643 22.9707 56.9795 21.6658 55.0946 20.216L55.2396 20.361C53.3548 20.071 51.76 20.9409 50.1651 21.8108C48.7153 22.8257 46.9754 22.8257 45.6706 21.9558C44.2207 21.0859 43.2058 21.6658 42.1909 22.3908C42.1909 22.5357 42.1909 22.5357 42.1909 22.6807C41.9009 22.8257 41.7559 22.9707 41.466 23.1157C41.611 22.9707 41.7559 22.6807 42.0459 22.5357L42.1909 22.3908C42.4809 21.3759 42.6259 20.361 42.9158 19.3461C43.6408 16.7363 44.6556 14.2716 44.6556 11.5168C44.6556 10.7919 44.9456 10.2119 45.5256 9.632C45.5256 9.19704 45.5256 8.90708 45.5256 8.47212C45.5256 6.15234 44.6557 5.71738 42.7708 5.28242C41.7559 4.99245 40.886 5.13744 39.8711 5.28242C37.5513 5.71738 35.3765 7.16724 32.9118 7.16724C30.737 7.16724 29.1422 8.03715 27.6923 9.632C27.1124 10.3569 26.0975 10.7919 25.3725 11.5168C23.4877 13.5466 22.9078 16.0114 23.7777 18.6211C23.9227 19.2011 24.2127 19.781 23.3427 19.926C22.3278 20.071 21.6029 20.9409 20.733 21.3759C19.7181 21.9558 19.4281 22.8257 19.7181 23.8406C20.0081 25.0005 20.443 26.1604 20.733 27.3203C20.878 27.7552 20.878 28.0452 20.878 28.4802C20.878 28.6252 20.733 28.9151 20.588 28.9151C20.298 29.0601 19.7181 29.2051 19.5731 29.0601C17.8333 27.4653 16.9633 23.8406 17.6883 21.9558C17.8332 21.8108 17.8333 21.5208 17.9782 21.3759C18.2682 20.6509 18.5582 19.926 18.9932 19.2011C20.153 17.8962 20.298 16.4463 20.153 14.7065C20.008 13.6916 20.588 12.8217 21.3129 12.0968C21.8928 11.5168 22.6178 11.0819 23.0527 10.5019C25.2275 7.89217 27.8373 5.71738 31.027 4.41251C31.3169 4.26752 31.6069 3.97755 31.8969 3.5426C32.0419 3.25262 32.0419 2.67267 31.8969 2.52769C31.4619 1.94774 30.882 1.3678 30.157 0.932846C26.0974 -0.806985 22.3278 0.062935 18.7032 2.09274C16.9633 3.10764 15.5135 4.5575 13.9187 5.71738C11.5989 7.6022 10.439 10.6469 7.82923 12.2418C7.53926 12.3867 7.24929 12.8217 7.1043 13.1117C6.66934 13.8366 6.2344 14.4165 5.94443 15.1415C5.50947 15.8664 5.36447 16.7363 4.92951 17.3163C2.60974 19.3461 1.88481 22.3908 0.579935 25.0005C-0.144995 26.3054 0.579935 27.7552 2.02979 28.3352C3.47965 28.9151 5.0745 29.4951 6.37937 30.22C6.81433 30.51 7.24927 30.9449 7.53924 31.3799C7.68423 31.6699 7.68423 32.2498 7.53924 32.3948C7.39425 32.6848 6.81434 32.8297 6.52437 32.6848C5.50946 32.1048 4.49455 31.5249 3.47965 30.9449C2.02979 30.22 0.144986 31.2349 0 32.9747C0 33.9896 8.84708e-06 35.0045 0.144995 36.0194C0.289981 37.4693 1.30487 38.4842 2.17479 39.6441C2.89972 40.514 3.91461 40.514 4.92951 40.659C5.50946 40.804 6.08942 40.804 6.66936 40.9489C7.82925 41.2389 8.26419 41.9639 8.55416 42.9788C9.56906 44.1386 10.584 45.0086 12.3238 44.7186C13.6287 44.4286 14.3536 45.2985 14.4986 46.4584C15.6585 46.7484 17.1083 46.7484 18.1232 47.6183C18.5582 48.3432 19.1381 48.1982 19.7181 48.1982Z" fill="#FAFAFA"/>
</svg>
