<svg width="566" height="868" viewBox="0 0 566 868" fill="none" xmlns="http://www.w3.org/2000/svg">
<path fill-rule="evenodd" clip-rule="evenodd" d="M498.712 640.749L498.279 640.604L498.712 640.46V640.749ZM494.667 571.705H494.379C494.09 571.272 493.801 570.694 493.512 570.261C493.223 569.827 493.367 569.539 493.801 569.394C493.945 569.394 494.09 569.539 494.234 569.683C494.523 570.116 494.667 570.694 494.956 571.127C494.812 571.272 494.812 571.416 494.667 571.705ZM493.079 558.272C493.079 558.128 493.079 557.983 493.079 557.839C493.367 557.694 493.801 557.55 494.09 557.405L494.379 557.694C494.379 557.839 494.234 558.128 494.09 558.128C493.801 558.272 493.512 558.272 493.079 558.272ZM487.156 551.772C486.723 552.35 485.712 552.494 485.134 552.205C484.556 551.772 484.556 551.194 484.701 550.761C484.845 550.328 485.134 549.894 485.423 549.605C485.423 549.894 485.568 550.183 485.568 550.472C485.856 551.05 486.29 551.339 486.868 551.194C487.156 551.194 487.301 551.05 487.59 550.905C487.59 551.05 487.445 551.339 487.156 551.772ZM463.901 523.75C463.757 523.75 463.757 523.461 463.757 523.317C464.046 523.172 464.334 523.028 464.623 522.883C464.623 523.028 464.768 523.172 464.768 523.317C464.623 523.75 464.334 523.895 463.901 523.75ZM436.457 707.915C436.168 707.77 435.879 707.626 435.446 707.482C435.59 707.337 435.735 707.193 435.879 707.193C436.024 707.193 436.313 707.193 436.457 707.193C436.601 707.193 436.746 707.482 436.89 707.626C436.746 707.626 436.601 707.77 436.457 707.915ZM427.502 512.484L427.79 512.05V512.484H427.502ZM422.446 858.569C422.446 858.713 422.446 858.713 422.446 858.858C423.168 859.291 423.89 859.58 424.613 860.013H424.757H424.902C424.902 859.724 424.902 859.435 424.902 859.147C424.902 858.713 425.19 858.569 425.624 858.569C425.768 858.569 425.913 858.713 426.057 858.858C426.346 859.147 426.202 859.58 425.768 859.724C425.479 859.869 425.19 859.869 424.902 860.013V860.158C424.757 860.158 424.757 860.013 424.613 860.013C424.324 860.158 424.035 860.302 423.746 860.302C423.168 860.447 422.735 860.158 422.59 859.58C422.446 859.291 422.446 859.002 422.446 858.858L422.302 858.713C422.302 858.569 422.157 858.569 422.157 858.424C421.868 858.424 421.435 858.424 421.29 857.847L421.724 857.702C421.868 857.847 422.013 858.135 422.157 858.28C422.302 858.424 422.302 858.569 422.446 858.569ZM426.346 854.235C426.779 854.091 427.068 854.091 427.357 854.524C427.357 854.669 427.213 854.813 427.213 854.958C426.924 855.247 426.635 855.391 426.346 855.68C426.202 855.68 426.057 855.68 425.913 855.536C425.19 855.391 425.624 854.669 426.346 854.235ZM417.679 851.202C417.679 851.202 417.679 851.347 417.535 851.347C417.391 851.347 417.39 851.491 417.246 851.491C417.102 851.924 416.813 852.213 416.524 852.213C416.524 852.358 416.379 852.358 416.379 852.502L416.091 852.791L416.235 852.502C416.379 852.502 416.379 852.358 416.524 852.358C416.668 851.924 416.957 851.78 417.246 851.636C417.246 851.491 417.391 851.491 417.391 851.347C417.535 851.202 417.679 851.202 417.679 851.202C417.679 851.058 417.824 851.058 417.824 850.913C418.113 851.058 417.968 851.202 417.679 851.202ZM414.791 855.824C414.791 855.824 414.646 855.68 414.646 855.536C414.791 855.536 414.935 855.535 415.079 855.391C415.079 855.535 415.224 855.68 415.224 855.68C415.079 855.824 414.935 855.824 414.791 855.824ZM413.779 848.891C413.491 849.036 413.057 849.18 412.768 849.324C412.624 849.324 412.335 849.18 412.335 849.036C412.046 848.602 412.191 848.313 412.768 848.313C413.202 848.313 413.491 848.458 413.924 848.458C413.779 848.458 413.779 848.747 413.779 848.891ZM410.602 842.825V842.969L410.168 843.113L410.457 842.825C410.457 842.969 410.457 842.969 410.602 842.825C410.602 842.68 410.602 842.68 410.602 842.536C410.891 842.68 410.891 842.825 410.602 842.825ZM399.48 630.493V630.349C397.602 630.349 396.446 629.193 395.58 627.749C395.435 627.605 395.724 627.027 395.724 626.738C395.724 626.738 396.157 626.593 396.157 626.738C397.313 627.749 398.902 628.616 399.335 630.349C399.48 630.349 399.48 630.349 399.48 630.349C399.624 630.493 399.624 630.493 399.768 630.638C399.768 630.638 399.624 630.493 399.48 630.493ZM398.035 820.291C397.891 820.291 397.746 820.147 397.746 820.147C397.746 820.003 397.746 819.858 397.746 819.714C397.891 819.28 398.035 819.425 398.18 820.003C398.18 820.003 398.035 820.147 398.035 820.291ZM386.191 500.928C386.191 501.361 385.324 502.084 385.035 501.939C384.746 501.795 384.313 501.506 384.169 501.217C383.158 499.773 383.302 499.195 385.035 497.317C385.18 497.028 385.613 497.173 386.046 497.028C386.046 497.028 386.191 497.317 386.191 497.461C386.335 498.039 386.335 498.617 386.335 499.339C386.335 499.773 386.191 500.35 386.191 500.928ZM319.169 490.962C319.025 491.106 318.88 491.25 318.736 491.395C317.58 491.684 316.425 490.673 316.569 489.517C316.569 489.373 316.858 489.084 317.003 489.084C318.014 489.084 318.88 489.517 319.314 490.384C319.314 490.673 319.169 490.817 319.169 490.962ZM257.348 183.154C257.059 183.298 256.626 183.009 256.337 182.865V182.431C256.77 181.854 257.203 180.987 257.781 180.554C259.948 179.254 262.114 177.954 264.425 176.798C264.714 176.654 265.292 176.798 265.581 176.943C266.592 177.809 267.748 178.531 269.192 178.531C269.337 178.531 269.481 179.109 269.625 179.398C269.625 179.543 269.481 179.831 269.337 179.831C268.037 179.976 266.592 180.12 265.292 180.265C265.292 180.12 265.292 180.12 265.292 179.976C264.714 179.976 264.137 179.976 263.559 179.976C261.681 179.831 260.092 180.554 258.792 181.998C258.214 182.431 257.781 182.865 257.348 183.154ZM256.337 207.998C256.192 207.853 256.192 207.709 256.192 207.709C256.048 207.42 255.903 207.131 255.759 206.842C255.903 207.131 256.048 207.42 256.192 207.709C256.626 207.565 256.77 207.709 256.337 207.998ZM252.292 157.009C251.426 157.876 250.559 158.598 249.259 158.743C247.526 159.032 245.792 159.465 244.059 159.609C242.615 159.754 241.315 159.321 240.448 158.165C239.87 157.443 239.148 156.721 238.57 155.854C238.57 155.854 238.57 155.565 238.715 155.421C238.859 155.276 239.148 155.276 239.292 155.276C240.015 155.421 240.737 155.854 241.603 155.998C242.181 155.998 242.903 155.998 243.192 155.565C244.059 154.843 244.926 153.976 245.648 152.965C246.515 151.954 247.526 151.521 248.826 151.665C249.259 151.665 249.548 151.665 249.981 151.521C250.703 151.376 251.426 150.51 251.281 149.787C251.281 149.21 251.137 148.632 251.137 148.054C250.992 146.898 250.703 145.743 250.415 144.587C250.27 144.154 250.415 143.865 250.848 143.721C250.992 143.721 251.281 143.865 251.426 144.01C253.303 145.31 254.17 147.332 255.47 149.21C256.048 150.076 256.914 150.51 257.926 150.51C260.67 150.798 263.125 150.076 265.148 148.343C267.025 146.754 269.337 146.032 271.648 145.598C272.514 145.454 273.525 145.598 274.536 145.743C274.536 145.743 274.536 145.598 274.681 145.598C274.681 145.165 274.681 145.165 274.97 145.454C274.97 145.454 274.825 145.598 274.681 145.743C274.681 145.743 274.681 145.743 274.536 145.743C274.103 146.321 273.67 146.898 273.092 147.332C272.37 147.91 271.359 148.343 270.492 148.776C268.47 149.643 266.592 150.654 264.859 152.098C262.837 153.687 260.381 154.554 258.07 155.709C257.781 155.854 257.203 155.854 256.914 155.709C254.748 154.987 253.448 155.709 252.292 157.009ZM249.981 183.443C249.981 183.587 249.692 183.587 249.548 183.587C249.403 183.298 249.403 182.865 249.259 182.576C249.259 182.576 249.548 182.431 249.692 182.431C249.837 182.431 249.837 182.72 249.981 182.865C250.126 183.154 250.126 183.298 249.981 183.443ZM240.737 165.387V165.098L241.17 165.387H240.737ZM245.07 134.332C244.781 134.621 244.637 134.91 244.492 134.91C242.903 134.621 242.181 133.465 241.748 132.165C241.748 132.021 242.181 131.443 242.47 131.299C242.759 131.154 243.481 131.154 243.626 131.299C244.059 132.31 244.492 133.321 245.07 134.332ZM249.837 115.988C249.548 116.132 249.403 116.277 249.115 116.421C249.115 116.565 249.115 116.565 249.115 116.71C249.115 116.854 248.97 116.854 248.97 116.999C248.97 117.288 248.97 117.432 248.97 117.721C248.537 117.432 248.826 117.288 248.97 116.999C248.97 116.854 248.97 116.71 248.97 116.565L249.115 116.421C249.115 115.988 249.115 115.554 249.692 115.554C249.837 115.554 249.981 115.988 249.837 115.988ZM235.826 112.232C234.381 113.388 232.792 113.532 230.915 112.377C230.048 111.943 229.904 111.51 230.481 111.077C231.348 110.499 232.359 110.066 232.937 109.343C233.804 108.188 234.815 107.321 236.115 106.888C237.126 106.599 237.559 105.732 237.848 104.721C237.992 104.432 238.426 104.143 238.715 104.288C239.726 104.288 240.592 105.01 241.603 104.721C242.326 104.577 242.903 103.421 242.47 102.843C241.892 102.266 241.459 101.543 240.737 101.254C239.581 100.532 238.137 100.243 236.692 100.243C234.092 100.243 231.637 99.9545 229.037 99.8101C228.893 99.8101 228.748 99.5212 228.748 99.3767C228.893 99.0879 229.037 98.6545 229.181 98.3656C229.47 98.2212 229.904 98.0768 230.337 98.0768C233.37 97.9323 236.259 97.7879 239.292 97.7879C241.459 97.7879 243.626 97.499 245.792 96.7768C247.67 96.199 249.692 95.7657 251.57 95.4768C252.148 95.3323 252.726 95.4768 253.303 95.6212C253.592 95.6212 254.026 96.0546 254.17 96.199C254.314 96.4879 254.026 97.0656 253.737 97.2101C252.148 97.9323 250.414 98.5101 248.826 99.0879C248.392 99.2323 248.103 100.243 248.392 100.677C248.537 100.821 248.537 101.11 248.681 101.11C248.97 101.399 249.259 101.543 249.692 101.832C252.292 103.71 255.037 104.577 257.781 102.121C257.926 101.977 258.214 101.977 258.359 102.121C258.792 102.266 258.792 102.699 258.648 103.132C258.359 103.854 258.214 104.721 257.492 105.154C256.77 105.732 255.903 106.31 255.181 107.032C254.748 107.466 254.603 108.043 254.314 108.477C253.448 110.499 253.014 110.788 251.426 109.488C249.837 108.043 248.248 108.043 246.515 108.766C246.081 109.054 245.359 109.488 245.359 109.921C245.07 111.943 243.77 112.81 242.037 113.243V113.388C241.892 113.388 241.748 113.388 241.603 113.388C241.026 113.821 240.448 114.11 239.726 114.254C239.726 114.399 239.581 114.399 239.581 114.543C239.437 114.543 239.437 114.543 239.292 114.543C239.148 114.688 239.004 114.977 238.859 115.121C238.859 115.121 238.57 115.121 238.426 114.977C238.57 114.543 239.004 114.543 239.292 114.543L239.437 114.399C239.581 114.399 239.726 114.399 239.726 114.254C240.159 113.677 240.881 113.388 241.603 113.388C241.748 113.388 241.748 113.243 241.892 113.243H242.037C242.326 112.377 242.615 111.51 242.903 110.643C243.192 109.632 242.037 108.477 241.17 108.91C240.015 109.343 238.859 109.777 237.848 110.354C237.27 110.788 236.692 111.654 235.826 112.232ZM234.815 152.821C234.67 152.676 234.67 152.676 234.526 152.532C234.67 152.532 234.815 152.676 234.959 152.676L235.104 152.965L234.815 152.821ZM230.048 86.9546C230.192 86.9546 230.192 86.9546 230.192 86.8102C230.192 86.6658 230.192 86.6658 230.192 86.5213C230.481 86.5213 230.337 86.6658 230.192 86.8102C230.192 86.9546 230.192 86.9546 230.192 87.0991L229.759 87.2435L230.048 86.9546ZM275.548 108.91C275.836 108.91 276.27 109.054 276.559 109.199C276.703 109.199 276.703 109.488 276.848 109.632C276.848 109.777 276.848 110.066 276.848 110.066C276.559 110.066 276.125 110.21 275.981 110.066C275.114 109.632 274.97 108.91 275.548 108.91ZM272.225 156.432L272.37 155.998L272.514 156.432H272.225ZM270.059 197.454C269.914 197.454 269.625 197.309 269.625 197.165C269.625 197.02 269.625 196.731 269.77 196.731C270.348 196.009 271.07 195.576 272.081 195.72C272.225 195.72 272.225 196.009 272.225 196.154C271.792 197.02 271.07 197.598 270.059 197.454ZM270.637 216.809C270.492 216.809 270.348 216.664 270.203 216.52C270.348 216.231 270.348 215.798 270.492 215.653C270.925 215.22 271.359 215.076 271.936 215.364C272.081 215.364 272.225 215.653 272.225 215.798C272.081 216.376 271.359 216.953 270.637 216.809ZM227.159 55.4661C227.015 55.6105 226.87 55.755 226.726 55.755C224.848 55.755 222.826 55.755 220.948 55.755C220.804 55.755 220.659 55.8994 220.515 55.8994C220.081 56.3327 219.648 56.7661 219.215 57.1994C219.07 57.1994 219.07 57.1994 218.926 57.1994C218.781 57.3438 218.637 57.6327 218.348 57.7772C218.348 57.7772 218.059 57.6327 217.915 57.6327C218.059 57.1994 218.493 57.1994 218.926 57.1994L219.07 57.055C219.504 56.6216 219.937 56.1883 220.37 55.6105C220.515 55.6105 220.659 55.6105 220.948 55.6105C222.97 54.5994 225.137 54.8883 227.159 55.0328C227.159 55.1772 227.304 55.4661 227.159 55.4661ZM225.859 207.276C225.715 207.276 225.57 207.131 225.426 207.131C225.715 206.987 225.859 206.842 226.148 206.842C226.293 206.842 226.293 206.987 226.437 207.131C226.293 207.131 226.148 207.276 225.859 207.276ZM216.904 158.743L216.759 158.887L216.904 158.743L217.048 158.454L216.904 158.743ZM214.593 59.5105C214.448 59.6549 214.304 59.6549 214.304 59.7994C214.304 59.6549 214.448 59.5105 214.448 59.366H214.737L214.593 59.5105ZM206.359 62.2549C206.215 62.2549 206.071 61.966 206.071 61.8216C206.071 61.2438 206.071 60.666 206.071 60.9549C206.071 59.7994 206.071 59.5105 206.215 59.0772C206.215 58.9327 206.359 58.7883 206.504 58.6438L206.793 58.7883C206.793 59.6549 206.793 60.666 206.937 61.5327C206.937 61.966 206.793 62.2549 206.359 62.2549ZM153.204 188.065C153.06 188.065 152.916 187.776 152.916 187.776C152.916 187.487 153.06 187.198 153.204 186.909C153.493 187.198 153.638 187.343 153.927 187.631C153.782 187.92 153.493 188.209 153.204 188.065ZM151.471 192.254C151.182 192.542 150.749 192.398 150.604 192.109C150.171 191.531 149.593 190.809 149.304 190.087C149.016 189.22 149.16 188.209 150.171 187.631C150.171 187.631 150.171 187.487 150.027 187.487L150.171 187.343C150.171 186.909 150.027 186.62 150.46 186.331C150.46 186.476 150.604 186.62 150.604 186.62C150.46 186.909 150.316 187.054 150.171 187.343C150.171 187.487 150.171 187.487 150.171 187.631C150.171 187.631 150.171 187.631 150.027 187.631C150.604 188.931 151.038 190.376 151.616 191.676C151.76 191.82 151.616 192.109 151.471 192.254ZM150.749 160.621C150.749 160.621 150.604 160.621 150.46 160.765C150.46 160.476 150.46 160.187 150.46 159.898C150.46 160.043 150.604 160.187 150.604 160.187C150.893 160.332 150.749 160.476 150.749 160.621ZM149.882 168.276C149.882 168.132 149.882 168.132 149.882 167.987C149.738 167.843 149.449 167.698 149.304 167.554C149.304 167.554 149.449 167.265 149.449 167.12C149.882 167.265 149.882 167.698 149.882 167.987L150.027 168.132C150.171 168.276 150.171 168.42 150.316 168.565C150.171 168.42 150.027 168.276 149.882 168.276ZM146.56 176.798L146.271 176.943L146.416 176.654C146.416 176.509 146.56 176.509 146.56 176.365C146.56 176.509 146.56 176.654 146.56 176.798ZM279.592 127.254C279.736 127.11 279.881 127.254 280.025 127.254C280.459 127.543 280.459 127.832 280.17 128.121C280.025 128.265 279.736 128.265 279.736 128.265C279.303 127.976 279.303 127.543 279.592 127.254ZM283.347 115.554L283.203 115.988L283.059 115.554H283.347ZM283.492 205.831C284.214 205.687 284.936 205.542 285.659 205.542C285.803 205.398 285.947 205.398 286.092 205.253C286.525 204.82 286.959 204.387 287.536 203.953C287.536 203.953 287.536 203.953 287.681 203.953C287.681 203.809 287.536 203.665 287.536 203.52C286.525 198.753 285.947 198.32 291.436 195.142C291.725 194.998 292.303 195.142 292.447 195.287C292.736 195.576 292.736 196.009 292.736 196.298C292.736 196.442 292.592 196.731 292.592 196.876C291.725 197.887 290.714 198.898 289.847 199.909C289.27 200.92 288.981 202.076 288.403 203.087C288.259 203.376 287.97 203.52 287.681 203.809V203.953C287.247 204.387 286.814 204.82 286.236 205.253C286.092 205.253 285.947 205.253 285.659 205.398C284.936 205.831 284.359 206.12 283.636 206.553C283.636 206.553 283.347 206.409 283.347 206.265C283.347 206.265 283.347 205.976 283.492 205.831ZM285.659 133.754C286.236 133.754 286.381 134.043 285.947 134.332C285.803 134.476 285.514 134.332 285.37 134.332C285.225 134.187 285.225 134.043 285.081 134.043C285.225 133.899 285.514 133.754 285.659 133.754ZM286.381 191.098C286.525 190.231 287.247 189.798 287.97 189.654C288.259 189.654 288.692 189.798 288.981 190.087C289.125 190.087 289.125 190.52 288.981 190.665C288.259 191.82 287.392 192.687 286.092 193.265C286.092 193.409 286.092 193.409 286.092 193.554C285.947 193.554 285.947 193.554 285.803 193.554C285.659 193.698 285.659 193.842 285.514 193.842C285.514 193.698 285.514 193.554 285.659 193.554H285.803L285.947 193.409C285.947 193.409 286.092 193.409 286.092 193.265C286.236 192.398 286.236 191.676 286.381 191.098ZM289.703 135.487C289.703 135.343 289.992 135.343 290.136 135.343C290.57 135.487 290.714 135.776 290.425 136.21C290.425 136.354 290.136 136.354 289.992 136.354C289.559 136.21 289.414 135.921 289.703 135.487ZM291.581 255.52C291.581 255.664 291.292 255.953 291.292 255.953C291.003 255.953 290.425 255.953 290.425 255.808C289.992 254.508 289.703 253.208 289.559 251.909C289.559 251.62 289.847 251.331 290.136 250.897C290.136 250.897 290.136 250.753 289.992 250.753C289.992 250.464 290.136 250.175 290.281 249.886C290.281 249.742 290.281 249.597 290.425 249.453C290.425 249.597 290.281 249.742 290.281 249.886C290.281 250.175 290.136 250.609 290.136 250.897C290.714 252.053 291.292 253.064 291.725 254.22C291.725 254.653 291.725 255.086 291.581 255.52ZM288.836 239.486C288.403 240.353 287.825 241.075 287.247 241.942C286.959 242.375 286.67 242.52 286.525 242.086C286.381 241.942 286.381 241.653 286.381 241.509C286.381 241.364 286.381 241.075 286.525 240.931C286.959 239.92 287.536 238.909 287.247 237.609C286.814 236.164 285.514 236.309 284.503 235.731C284.359 235.586 284.214 235.298 284.359 235.298C284.503 235.009 284.792 234.72 285.081 234.72C285.37 234.72 285.803 234.864 286.236 234.864C286.959 235.009 287.681 235.153 288.403 235.298V235.153C288.403 235.153 288.403 235.153 288.547 235.153C287.97 234.286 287.392 233.275 286.814 232.409C285.947 230.964 286.092 229.375 286.67 227.787C286.814 227.353 287.392 226.775 287.825 226.631C288.259 226.487 288.981 226.775 289.27 227.209C289.847 227.931 290.425 228.798 290.859 229.52L291.003 229.231L290.859 229.664C290.859 229.664 290.859 229.664 290.859 229.52C289.27 230.964 289.27 232.409 290.859 233.853C291.147 234.142 290.859 234.575 290.425 234.72C289.703 234.864 288.981 235.009 288.259 235.153L288.403 235.298H288.259C288.547 236.02 288.836 236.598 288.836 237.32C289.27 237.898 289.125 238.764 288.836 239.486ZM295.481 231.109C295.625 230.964 296.203 230.82 296.492 230.964C297.647 231.253 298.658 231.831 299.092 233.131C299.525 234.431 299.814 235.731 299.67 237.175C299.525 239.053 299.525 241.075 299.381 242.664C299.67 243.675 299.814 244.253 299.814 244.831C299.814 245.409 299.814 246.131 299.525 246.42C298.803 246.853 298.658 246.131 298.37 245.553C298.081 245.12 297.647 244.542 297.214 244.397C296.058 244.109 295.481 243.386 295.192 242.52C295.047 241.942 294.903 241.364 294.758 240.786C294.47 239.342 293.747 237.753 294.758 236.309C294.47 235.731 294.036 235.009 293.747 234.431C294.325 233.131 294.903 232.12 295.481 231.109ZM299.525 226.198C299.67 226.198 299.814 226.342 299.814 226.487C299.814 226.631 299.67 226.775 299.67 226.92C299.525 226.92 299.381 226.92 299.236 226.775C298.947 226.342 299.092 226.198 299.525 226.198ZM300.247 250.175C300.536 252.197 300.103 253.931 298.225 255.231C298.225 255.231 298.225 255.375 298.225 255.52H297.936L298.081 255.375C298.081 255.375 298.081 255.375 298.225 255.231C297.792 253.208 298.514 251.475 299.525 249.886C299.525 249.742 299.814 249.742 299.958 249.742C300.103 249.886 300.247 250.031 300.247 250.175ZM301.114 204.82C301.547 204.676 301.836 204.965 301.981 205.398C301.981 205.831 301.836 206.12 301.258 205.976C300.97 205.976 300.681 205.687 300.392 205.542C300.536 205.398 300.825 204.965 301.114 204.82ZM302.847 223.598L303.281 223.742L302.847 223.887V223.598ZM303.858 266.353C304.292 265.486 304.292 264.475 305.158 264.042C305.158 263.897 305.158 263.897 305.158 263.753C305.303 263.608 305.303 263.608 305.447 263.464C305.447 263.608 305.303 263.753 305.303 263.897C305.303 263.897 305.303 263.897 305.158 264.042C305.303 264.764 305.447 265.342 305.736 266.064C305.736 266.208 305.881 266.497 305.736 266.642C305.447 266.931 305.158 267.075 304.869 267.364C304.725 267.508 304.436 267.364 304.292 267.364C303.858 266.931 303.714 266.642 303.858 266.353ZM305.881 202.653L306.025 203.087H305.736L305.881 202.653ZM308.769 156.576V157.009L308.336 156.865L308.769 156.576ZM309.925 176.365C310.069 176.22 310.069 176.22 310.214 176.076C310.358 175.787 310.358 175.643 310.503 175.354C310.647 175.354 310.647 175.498 310.792 175.498C310.647 175.643 310.503 175.787 310.214 176.076C310.214 176.22 310.069 176.365 309.925 176.365C309.636 176.943 309.203 177.52 308.769 177.954C308.625 178.098 308.625 178.098 308.481 178.243C308.481 178.098 308.625 177.954 308.625 177.809C309.058 177.376 309.492 176.798 309.925 176.365ZM311.658 147.332C312.381 147.043 313.103 146.898 313.969 146.754C314.258 146.754 314.547 147.187 314.836 147.332C313.536 148.487 313.825 150.221 313.392 151.665C312.958 152.676 311.947 152.965 311.081 152.243C308.914 150.221 309.058 148.632 311.658 147.332ZM314.403 232.264C313.969 232.12 313.825 231.831 314.114 231.542C314.114 231.398 314.547 231.398 314.547 231.398C314.692 231.686 314.836 231.975 314.98 232.12C314.692 232.12 314.547 232.264 314.403 232.264ZM320.903 278.342C323.358 277.475 325.814 276.753 327.836 275.164C329.714 273.719 332.314 273.575 334.047 271.697C334.625 271.119 335.491 271.119 336.358 271.264C336.936 271.408 337.514 271.697 338.091 271.842C340.258 272.275 341.702 273.286 342.136 275.597C342.425 276.897 343.291 277.764 344.591 277.908C346.036 278.197 346.469 279.064 346.469 280.364C346.469 282.097 346.902 283.83 347.047 285.708C347.191 286.43 346.18 287.008 345.458 286.575C344.736 286.141 344.158 285.708 343.291 285.853C341.702 285.997 340.114 285.997 338.525 286.286C336.502 286.719 335.058 286.286 333.903 284.697C333.614 284.408 333.325 284.119 333.036 283.975C332.603 283.686 331.736 283.686 331.88 282.964C332.025 282.386 332.603 282.097 332.891 281.519C333.18 281.086 333.18 280.797 332.747 280.508C332.603 280.364 332.458 280.364 332.169 280.219C331.736 280.219 331.303 280.219 331.014 280.219C330.58 280.364 330.291 280.508 330.003 280.653C327.836 282.386 325.091 283.253 322.492 284.119C320.903 284.697 319.603 284.986 318.447 283.253C317.725 282.242 316.425 282.53 315.269 282.386C315.269 282.386 315.269 282.53 315.125 282.53C314.981 282.53 314.98 282.53 314.836 282.53C314.692 282.675 314.692 282.675 314.547 282.819C314.547 282.675 314.547 282.53 314.692 282.53H314.836L314.98 282.386C314.98 282.386 315.125 282.386 315.269 282.386C316.425 280.653 318.447 279.208 320.903 278.342ZM315.992 257.542C315.992 257.542 316.136 257.686 316.136 257.831C316.136 257.831 316.136 257.831 316.28 257.831C317.436 257.975 318.592 257.975 319.603 258.12C320.036 258.12 320.036 258.697 319.747 258.986C319.603 259.131 319.458 259.275 319.314 259.275C318.158 258.986 317.147 258.553 316.28 257.686H316.136C315.703 257.831 315.703 257.686 315.992 257.542ZM318.303 224.753C318.447 224.753 318.592 224.898 318.736 224.898C318.736 225.042 318.592 225.187 318.592 225.187C318.447 225.187 318.303 225.042 318.158 225.042C318.158 225.042 318.158 224.753 318.303 224.753ZM320.18 151.376C320.18 151.521 320.325 151.665 320.325 151.81C320.18 151.954 320.18 152.098 320.036 152.098C320.036 151.954 319.892 151.81 319.892 151.665C320.036 151.521 320.18 151.521 320.18 151.376ZM324.225 155.132C324.369 154.843 324.947 154.698 325.236 154.698C325.525 154.698 325.958 154.987 326.103 155.276C326.247 155.854 326.247 156.432 326.391 156.865C326.103 157.443 325.814 157.587 325.38 157.298C324.947 157.009 324.514 156.576 324.225 156.143C324.08 155.854 324.08 155.276 324.225 155.132ZM327.98 253.497V253.786L327.403 253.642L327.98 253.497ZM333.614 262.164C333.758 262.019 333.903 262.02 334.191 262.02C334.48 262.164 334.914 262.453 334.914 262.742C335.203 263.608 335.203 264.619 334.48 265.342C334.336 265.486 334.191 265.631 334.047 265.631C333.614 265.775 333.325 265.631 333.036 265.197C332.603 263.897 332.747 262.886 333.614 262.164ZM348.347 237.464C348.347 237.32 348.491 237.32 348.491 237.175C348.491 236.742 348.491 236.309 348.491 235.875C348.491 235.298 348.78 235.153 349.069 235.442C349.213 235.586 349.213 235.875 349.069 236.02C348.925 236.453 348.636 236.742 348.347 237.175C348.347 237.32 348.347 237.464 348.347 237.609L347.913 237.753L348.347 237.464ZM349.502 289.608C353.691 290.186 357.591 291.197 361.491 292.641C362.069 292.786 362.647 293.219 362.791 293.653C363.658 295.241 364.524 296.83 365.247 298.419C365.68 299.286 365.102 299.864 364.669 300.586C364.38 301.164 363.802 301.308 363.224 301.019C361.78 300.441 361.058 299.286 360.191 298.275C360.047 298.13 359.613 298.13 359.18 298.13C359.036 298.13 358.891 298.419 358.891 298.564C358.747 299.141 358.891 299.864 358.602 300.297C357.158 302.897 356.147 305.641 355.28 308.53C355.136 308.819 354.702 309.108 354.413 309.397C353.98 309.83 353.113 309.541 352.969 309.108C352.68 307.952 352.536 306.797 352.391 305.641C352.247 304.63 350.947 304.197 349.936 304.63C349.358 304.919 348.925 305.208 348.347 305.497C347.913 305.786 347.625 305.93 347.336 305.497C347.191 305.352 347.191 305.063 347.336 304.919C347.913 304.052 348.636 303.33 349.069 302.608C350.225 301.019 350.369 299.286 349.647 297.552C349.358 296.83 348.925 296.108 348.347 295.53C347.48 294.808 346.325 294.23 345.458 293.508C345.025 293.219 344.88 292.641 344.447 292.208H344.302C343.291 292.93 342.28 293.941 341.558 294.953C340.98 295.819 340.258 296.397 339.247 296.541C337.947 296.686 337.08 297.552 336.502 298.564C334.769 301.886 333.325 305.352 333.469 309.252C333.614 313.008 331.736 315.608 328.847 317.63C328.125 318.208 326.68 317.63 326.536 316.619C325.958 313.297 325.958 309.975 327.691 306.797C328.847 304.919 329.136 302.752 330.003 300.73C330.436 299.864 330.291 298.852 329.858 297.841C329.714 297.552 329.858 297.119 329.858 296.686C329.858 296.541 330.003 296.252 330.147 296.108C334.914 290.764 333.758 291.486 340.547 290.475C342.136 290.186 343.147 291.053 344.158 291.919L344.302 291.775C344.302 291.775 344.302 291.919 344.447 291.919C345.458 291.63 346.614 291.341 347.625 290.908C347.913 290.764 348.058 290.33 348.347 290.041C349.069 290.041 349.358 289.608 349.502 289.608ZM366.547 314.019C366.547 314.308 366.402 314.741 366.113 314.886C364.091 316.041 361.924 317.197 359.758 318.063C358.169 318.786 356.436 319.363 354.991 320.23C353.547 321.097 351.669 321.53 349.791 321.53C349.213 321.241 348.636 320.808 347.913 320.374C347.336 319.941 347.48 318.641 348.058 318.352C348.202 318.208 348.347 318.063 348.491 318.063C351.38 317.774 353.691 316.474 356.002 314.886C356.869 314.308 357.88 314.163 358.891 314.597C360.047 315.03 361.202 314.886 362.358 314.308C363.224 313.875 364.236 313.586 365.102 313.297C365.536 313.297 366.547 313.73 366.547 314.019ZM367.413 308.53C367.558 308.386 367.702 308.241 367.847 308.241C368.713 307.952 369.724 307.375 370.591 307.23C372.613 306.941 374.491 306.797 376.513 306.797C377.813 306.797 378.824 306.363 379.691 305.497C379.98 305.208 380.413 305.208 380.702 305.064C380.846 305.208 380.991 305.352 381.135 305.497C381.858 306.652 381.713 307.808 380.991 308.819C379.691 310.408 378.102 311.708 375.935 310.841C373.191 309.83 370.447 310.552 367.702 310.263C367.413 310.263 366.98 309.83 366.98 309.541C366.98 309.252 367.269 308.819 367.413 308.53ZM371.458 273.286C371.602 273.142 371.747 273.142 371.891 273.142C372.035 273.286 372.18 273.286 372.324 273.43C372.469 273.864 372.324 274.008 371.891 274.008C371.747 274.008 371.602 273.864 371.458 273.719C371.313 273.719 371.458 273.431 371.458 273.286ZM328.125 137.654C328.269 137.654 328.414 137.799 328.414 137.943C328.269 137.943 328.125 138.087 327.98 138.087C327.547 137.799 327.547 137.654 328.125 137.654ZM339.536 141.699C339.536 141.554 339.825 141.554 339.969 141.554C340.836 141.843 341.702 142.132 341.991 143.143C342.136 143.143 342.136 143.143 342.136 143.143C342.136 143.287 342.28 143.287 342.28 143.287C343.002 143.432 343.725 143.576 344.302 144.154C344.447 144.154 344.447 144.154 344.591 144.154V144.587L344.447 144.298L344.302 144.154C343.58 144.154 342.858 143.865 342.28 143.287C342.136 143.287 341.991 143.287 341.991 143.287C341.991 143.287 341.991 143.287 341.991 143.143C340.402 143.721 340.114 143.721 339.391 142.71C339.247 142.565 339.391 142.132 339.536 141.699ZM370.735 132.165C370.88 132.165 371.169 132.165 371.313 132.31C372.758 133.61 373.624 135.343 374.635 137.076C374.635 137.221 374.635 137.365 374.635 137.51C374.491 137.654 374.347 137.799 374.202 137.799C373.624 137.654 373.047 137.365 372.613 137.076C371.458 136.065 370.735 134.621 370.302 133.176C370.158 132.743 370.302 132.31 370.735 132.165ZM394.713 276.03C394.857 276.03 395.002 276.175 395.146 276.175C395.146 276.319 395.146 276.464 395.146 276.608C395.002 276.753 394.857 276.753 394.713 276.753C394.569 276.753 394.424 276.608 394.424 276.464C394.424 276.175 394.569 276.03 394.713 276.03ZM405.113 259.275C405.257 259.275 405.546 259.42 405.691 259.42C405.691 259.42 405.691 259.708 405.691 259.853C404.824 260.286 404.102 260.72 403.235 261.153C403.235 261.153 403.091 260.864 402.946 260.72C403.38 259.997 404.102 259.42 405.113 259.275ZM414.502 230.82C415.079 230.964 415.079 231.109 414.357 231.109C414.213 231.109 414.068 230.964 413.924 230.964C414.213 230.82 414.357 230.82 414.502 230.82ZM425.479 236.598C425.768 236.164 426.202 235.731 426.49 235.298C426.635 235.586 426.779 236.02 426.779 236.309C426.924 236.742 426.924 237.031 427.068 237.898C427.068 238.042 426.924 238.475 426.924 239.053C426.924 239.198 426.635 239.198 426.49 239.198C425.19 239.053 424.757 237.898 425.479 236.598ZM429.379 234.864C429.379 234.864 429.524 235.009 429.668 235.153C429.813 235.442 429.813 235.731 429.957 236.02C429.813 235.731 429.668 235.442 429.524 235.153C429.235 235.153 429.09 235.009 429.379 234.864ZM443.679 250.609L443.824 250.753L443.679 250.609ZM445.268 240.497C446.279 240.353 447.146 240.786 448.157 240.209C450.035 239.198 451.912 239.92 453.79 240.497C453.935 240.497 454.079 241.075 454.079 241.509C454.079 241.653 453.935 241.942 453.79 241.942C453.068 242.231 452.346 242.52 451.768 242.664C450.035 241.797 448.59 242.086 447.001 242.086C446.424 242.086 445.99 241.653 445.412 241.364C445.268 241.22 445.124 241.075 445.124 240.931C444.979 240.786 445.124 240.497 445.268 240.497ZM446.712 251.909L446.857 251.475L447.001 251.909H446.712ZM472.134 243.964C472.134 243.964 472.423 244.253 472.423 244.397C471.99 245.986 470.401 245.986 469.39 246.709C469.101 246.275 468.812 246.131 468.957 245.986C469.679 244.831 470.834 244.253 472.134 243.964ZM563.278 575.605C563.133 575.172 562.556 574.594 561.978 574.45C561.111 574.016 560.1 573.583 559.089 573.727C557.356 573.872 555.911 573.294 554.756 572.283C553.167 570.983 551 570.55 549.989 568.816C548.111 565.927 545.223 564.772 542.478 563.183C541.178 562.461 539.878 562.172 538.434 562.172C533.667 562.316 528.9 561.45 524.278 560.294C523.701 560.15 523.123 560.294 522.545 560.439C521.823 560.727 521.101 561.161 520.378 561.45C519.801 561.739 519.223 561.45 519.078 560.728C518.789 559.861 518.501 558.85 518.067 557.983C517.634 557.405 516.912 556.539 516.334 556.539C513.59 556.394 511.567 554.805 509.256 553.794C507.378 553.072 505.501 552.494 503.479 552.35C501.745 552.205 500.301 552.639 499.434 554.228C499.29 554.372 499.145 554.516 499.001 554.516C498.567 554.516 498.423 554.228 498.567 553.65C498.712 553.216 498.712 552.928 498.856 552.494C499.29 550.905 498.279 550.039 497.267 549.605C495.823 549.028 494.379 548.594 492.79 548.161C492.645 548.45 492.645 548.883 492.501 549.172C492.501 549.172 492.501 549.172 492.645 549.172L492.79 549.317L492.501 549.172V549.028C490.768 548.739 489.179 548.883 487.879 550.183C487.445 549.172 486.579 549.172 485.568 549.028C486.868 547.728 488.456 547.15 490.19 546.717C490.623 545.272 491.056 543.683 491.345 542.239C491.49 541.228 491.49 540.217 490.768 539.35C490.045 538.483 489.612 537.328 488.745 536.461C487.156 534.728 486.001 532.561 485.568 530.25C485.423 529.094 484.845 527.939 483.979 527.072C480.801 523.895 477.623 520.428 472.712 519.561C472.134 519.417 471.557 519.128 471.123 518.839C469.101 517.828 466.934 517.539 464.768 517.683C462.601 517.683 460.435 517.683 458.268 517.683C457.69 517.683 457.112 517.395 456.679 517.106C454.657 515.95 453.068 514.072 450.612 513.495C450.323 513.495 450.035 512.917 449.89 512.628C449.601 511.617 449.168 510.75 448.446 510.028C447.146 508.728 445.99 507.428 444.546 506.273C443.679 505.55 442.524 504.973 441.368 504.539C440.501 504.25 439.346 504.25 438.479 504.106C437.901 503.961 437.324 503.673 437.324 502.95C437.468 501.073 436.457 500.061 434.868 499.339C433.424 498.761 431.979 498.039 430.535 497.317C430.101 497.028 429.379 496.595 429.379 496.161C429.235 495.439 429.957 495.439 430.535 495.15C430.679 495.15 430.968 495.006 431.113 495.006C431.546 494.862 431.69 494.428 431.546 494.139C431.401 493.995 431.257 493.85 431.113 493.85C429.379 493.273 427.502 493.562 425.768 493.562C424.757 493.562 423.89 493.273 423.168 492.406C422.879 492.117 422.302 492.262 422.157 492.695C421.868 493.273 421.868 493.995 421.579 494.284C419.846 495.873 416.813 497.173 414.502 495.439C413.057 494.428 411.613 494.284 410.024 494.573C408.291 494.717 406.413 494.862 404.68 495.006C403.813 495.006 403.235 494.573 402.946 493.706C402.946 493.562 402.802 493.273 402.802 493.128C402.513 491.828 401.791 490.962 400.491 490.673C399.768 490.528 398.902 490.384 398.18 490.239C396.591 490.095 395.724 489.228 395.291 487.784C395.146 487.206 394.713 486.773 393.991 486.773C393.413 486.628 392.402 487.351 392.113 487.928C391.969 488.217 391.824 488.65 391.68 489.084C391.535 490.528 390.813 491.25 389.513 491.539C388.502 491.828 387.635 492.262 386.769 492.695C386.191 492.984 385.758 492.695 385.324 491.973C385.035 491.395 384.746 490.962 385.18 490.384C386.046 489.517 386.913 488.795 387.635 487.928C388.069 487.495 387.78 486.195 387.057 485.906C386.48 485.617 385.902 485.473 385.324 485.617C383.88 485.906 382.724 486.484 381.713 487.495C380.413 488.795 378.969 489.806 377.235 490.239C375.358 490.673 373.335 490.673 371.747 492.117C371.602 492.262 371.024 492.117 370.591 492.117C369.291 491.973 368.28 492.55 367.413 493.562C366.402 494.717 365.247 496.017 365.102 497.606C364.958 499.05 364.38 500.206 363.08 500.928C361.924 501.65 360.913 502.661 359.902 503.673C359.469 504.106 359.324 504.973 359.18 505.695C359.18 505.695 359.18 505.695 359.324 505.695V505.984L359.18 505.839V505.695C358.891 505.55 358.458 505.55 358.169 505.261C357.158 504.395 356.147 503.384 355.136 502.517C353.836 501.217 352.247 500.495 350.513 500.061C348.058 499.484 345.747 499.484 343.58 500.784C342.858 501.217 342.136 501.361 341.414 501.795C339.825 502.806 338.236 503.384 336.502 502.228C333.18 501.939 331.158 499.773 329.425 497.317C328.414 495.873 327.547 494.284 326.536 492.839C326.247 492.406 326.103 491.684 326.103 491.106C326.103 489.084 326.103 487.206 327.403 485.473C327.836 484.895 328.125 484.028 328.125 483.306C328.125 481.284 328.703 479.406 329.28 477.528C329.858 475.651 329.714 473.628 329.714 471.606C329.714 471.317 329.425 470.884 329.136 470.595C328.414 470.162 327.691 470.017 326.969 469.728L327.114 469.873L326.825 470.017L326.969 469.728C325.669 468.573 324.225 467.706 322.347 467.562C320.614 467.562 318.736 467.273 317.003 466.84C314.98 466.406 313.103 467.417 311.081 467.273C309.492 467.273 307.903 467.562 306.314 467.562C305.303 467.562 304.292 467.273 303.425 467.128C302.992 466.984 302.703 466.551 302.992 466.262C304.869 464.529 305.592 462.362 305.447 459.762C305.303 458.606 305.592 457.451 305.881 456.151C306.025 455.573 306.314 454.995 307.036 454.995C308.481 454.995 309.203 454.129 309.347 452.829C309.636 451.529 309.925 450.084 309.925 448.784C309.781 446.906 310.358 445.318 311.658 443.873C312.381 443.007 313.103 441.995 313.825 440.984C314.114 440.551 314.258 439.829 314.547 439.395C314.836 438.384 313.825 436.795 312.814 436.795C310.503 436.795 308.047 436.362 305.736 437.373C303.858 438.24 301.981 438.384 299.958 438.384C298.225 438.384 297.07 439.395 296.347 440.984C295.914 441.851 295.625 442.862 295.336 443.729C294.614 446.618 293.458 449.362 291.147 451.384C290.425 453.695 288.981 453.695 286.959 452.973C286.092 452.684 284.936 452.829 284.07 453.118C282.192 453.551 280.314 454.417 278.436 454.851C276.848 455.14 275.259 455.284 274.103 453.84C273.236 452.684 271.937 452.106 270.637 451.673C269.048 451.095 268.037 449.94 267.314 448.495C266.448 446.473 265.437 444.595 263.992 442.862C263.27 442.14 262.981 441.129 262.837 440.118C262.548 438.384 262.114 436.651 261.97 434.918C261.825 433.762 261.681 432.607 261.681 431.307C261.97 427.118 262.403 422.929 263.27 418.885C263.414 418.162 263.703 417.296 264.137 416.718C265.581 415.129 265.87 413.251 265.581 411.229C265.292 408.34 265.87 405.74 266.881 402.996C267.748 400.685 269.337 398.518 271.648 398.085C274.536 397.507 276.992 396.496 279.014 394.618C280.603 393.174 282.625 393.029 284.359 392.307C285.803 391.729 287.536 392.018 288.981 392.596C290.136 393.029 291.292 393.318 292.447 392.74C293.747 392.163 294.903 392.451 295.625 393.463C297.07 395.774 299.236 395.774 301.403 395.34C302.558 395.196 303.57 394.474 304.581 394.04C304.869 392.885 305.303 391.874 305.447 390.718C305.592 389.418 306.314 388.985 307.325 388.696C308.047 388.407 308.914 388.407 309.636 388.263C312.381 387.829 315.125 388.551 318.014 388.407C321.192 388.263 323.936 388.985 326.103 391.44C326.825 392.307 327.836 392.163 328.847 391.729C329.569 391.44 330.291 391.007 331.014 390.863C331.88 390.574 332.603 390.863 333.18 391.44C334.48 392.885 335.636 394.474 336.936 396.063C337.658 396.929 337.658 397.796 337.369 398.807C337.225 399.385 337.08 399.963 336.791 400.54C336.214 401.696 336.214 402.851 337.08 403.862C337.947 407.185 339.825 410.074 340.98 413.107C341.558 414.551 342.714 415.707 343.725 416.862C344.591 418.018 346.613 417.729 347.336 416.573C348.78 414.118 349.647 411.518 349.936 408.774C349.936 408.34 349.936 407.907 349.936 407.618C349.502 406.174 348.78 404.585 348.491 403.14C348.202 401.551 348.202 399.962 347.913 398.518C347.913 398.374 347.769 398.085 347.769 397.94C345.891 393.318 346.18 388.552 346.613 383.785C346.613 383.063 346.902 382.196 347.336 381.618C349.358 379.307 351.38 376.707 354.702 375.841C355.136 375.696 355.424 375.552 355.858 375.407C357.013 374.974 357.88 374.252 358.747 373.385C359.469 372.663 359.902 371.796 360.624 371.074C361.202 370.496 361.78 369.774 362.502 369.629C363.947 369.196 364.958 368.329 365.969 367.463C367.558 365.874 369.435 364.718 371.602 364.285C372.613 364.141 373.335 363.274 373.335 362.118C373.335 361.396 373.913 361.252 374.347 360.818C375.069 360.385 375.646 359.952 376.224 359.374C376.658 358.941 376.947 358.363 376.658 357.785C376.08 356.919 375.646 356.196 376.224 355.041C376.946 353.596 377.235 352.007 376.224 350.563C375.935 350.13 375.791 349.407 375.791 348.83C375.791 347.096 376.08 345.363 376.224 343.485C376.224 343.341 376.513 343.196 376.658 343.196C376.802 343.196 377.091 343.341 377.235 343.341C378.102 344.063 377.813 345.074 377.958 346.085C377.958 346.374 378.391 346.663 378.68 346.952C378.68 346.952 379.113 346.807 379.258 346.663C380.269 345.219 381.424 343.774 382.291 342.33C382.724 341.752 382.724 340.885 382.869 340.019C383.013 339.441 382.869 338.863 382.869 338.285C382.869 337.852 383.158 337.563 383.735 337.563C384.891 337.563 385.613 336.985 386.335 336.263C388.069 334.53 389.369 332.508 389.657 330.052C389.946 327.885 391.246 327.452 392.98 327.452C394.135 327.308 395.291 327.163 396.446 326.874C397.024 326.73 397.457 326.441 398.035 326.008C398.18 325.863 398.324 325.719 398.324 325.574C398.324 325.43 398.18 325.141 398.035 325.141C397.746 324.997 397.313 324.852 396.88 324.852C396.302 324.852 396.013 324.708 396.302 324.274C396.302 324.13 396.591 324.13 396.88 324.13C397.024 324.13 397.313 324.13 397.457 324.13C400.924 324.563 404.102 322.974 407.424 322.974C407.857 322.974 408.435 322.397 408.868 322.108C410.168 321.097 410.024 320.663 408.579 319.652C407.424 318.93 406.846 317.63 407.135 316.763C407.568 315.463 407.857 314.019 408.435 312.863C409.446 310.697 411.035 308.819 413.346 307.952C414.646 307.375 415.946 306.941 416.957 305.93C417.679 305.208 418.691 304.919 419.702 304.919C422.446 305.208 424.757 303.908 427.213 303.475C428.079 303.33 428.224 302.464 428.513 301.741C428.657 301.308 429.235 300.73 429.813 300.586C431.69 300.008 433.713 299.719 435.59 299.286C435.735 299.286 436.024 299.43 436.024 299.43C435.879 299.719 435.879 300.297 435.735 300.441C435.013 300.875 434.29 301.019 433.568 301.308C431.979 302.175 430.679 303.33 429.957 305.064C429.668 305.786 429.524 306.652 429.668 307.375C429.957 308.53 430.679 309.541 431.69 310.119C431.979 310.263 432.557 310.408 432.846 310.263C435.157 309.252 437.468 307.808 439.057 305.786C439.924 304.486 441.079 303.908 442.524 304.341C445.557 303.33 448.59 302.464 451.624 301.452C452.49 301.164 453.501 300.875 454.368 300.441C454.801 298.275 456.968 298.997 458.268 298.13C458.701 297.841 459.423 297.697 459.857 297.408C460.146 297.264 460.579 296.975 460.868 296.686C461.301 296.397 461.59 295.386 461.157 295.097C459.857 293.941 458.846 292.93 459.568 291.053C459.568 290.908 459.423 290.619 459.423 290.475C459.279 290.041 458.268 289.608 457.979 289.897C455.957 291.63 454.512 293.653 453.068 295.819C452.49 296.686 452.057 296.83 451.19 296.686C450.612 296.541 450.035 296.397 449.457 296.397C449.168 296.83 448.879 296.975 448.446 296.975C448.012 296.83 447.579 296.541 447.146 296.397C446.568 296.252 445.99 296.252 445.412 296.108C443.968 295.964 443.535 295.097 443.39 293.941C441.224 293.797 440.068 292.497 439.779 290.33C439.49 288.308 439.49 286.43 440.357 284.697C440.79 283.975 440.212 283.253 439.201 283.108C438.768 282.964 438.479 283.108 438.046 282.964C437.901 282.964 437.757 282.819 437.468 282.675C437.757 282.53 438.19 282.53 438.479 282.386C439.924 281.808 441.368 281.086 442.524 280.075C443.101 279.497 443.535 278.197 443.101 277.33C442.668 276.608 442.379 275.886 441.657 275.453C440.068 274.297 438.046 273.575 436.024 274.153C430.679 275.453 425.335 276.608 420.713 279.786C420.713 279.93 420.713 279.93 420.713 280.075C420.568 280.075 420.568 280.075 420.424 280.075C419.846 280.797 419.124 281.375 418.546 282.097C418.546 282.242 418.546 282.242 418.546 282.386C417.679 282.675 416.813 282.964 415.946 283.397C415.513 283.83 415.079 284.119 414.502 284.408L414.357 284.697L414.502 284.264C414.935 283.975 415.368 283.542 415.802 283.253C416.668 282.964 417.535 282.675 418.402 282.386L418.546 282.242C418.835 280.653 418.979 280.508 420.424 280.219L420.568 280.075C420.568 280.075 420.713 280.075 420.713 279.93C420.568 278.919 421.146 278.197 421.868 277.619C423.89 275.886 426.057 274.586 428.513 273.864C430.102 273.43 431.546 272.708 432.124 271.119C432.268 270.831 432.557 270.397 432.846 270.108C434.001 269.097 435.157 267.942 436.457 267.075C437.757 266.353 439.201 267.075 440.501 267.219C445.99 267.364 451.479 268.086 456.968 268.808C459.423 269.097 461.59 268.086 464.046 268.519C464.623 268.664 465.201 268.375 465.779 268.231C466.357 268.086 466.934 267.797 467.368 267.508C468.957 266.642 470.257 265.631 471.412 264.042C472.279 262.886 473.434 262.164 474.879 262.02C475.89 261.875 476.901 261.586 477.768 261.586C480.657 261.442 482.968 259.997 485.279 258.264C486.434 257.397 487.156 256.097 486.579 254.653C486.145 253.642 486.001 252.775 486.434 251.909C486.723 251.186 487.156 250.464 487.156 249.742C487.301 249.164 487.156 248.442 486.868 248.009C486.001 246.42 484.701 245.264 482.679 245.553L482.245 245.697L482.534 245.409C482.534 245.409 482.534 245.409 482.679 245.409C482.534 244.831 482.534 244.253 482.39 243.675C482.101 242.664 481.523 241.942 480.368 241.797C479.79 241.653 479.212 241.653 478.634 241.653C478.49 241.653 478.201 241.509 478.057 241.509C478.345 241.364 478.49 241.075 478.779 240.931C479.357 240.642 479.934 240.642 480.368 240.353C481.09 239.92 481.234 239.053 480.657 238.331C480.079 237.464 479.501 236.742 478.345 236.886C477.912 236.886 477.334 237.031 477.19 236.742C475.745 234.864 473.579 234.286 471.701 233.42C471.412 233.275 470.979 232.842 470.979 232.553C470.546 230.386 468.957 229.231 467.512 227.931C466.79 227.209 466.212 226.487 465.634 225.62C465.057 224.898 465.057 224.031 465.634 223.453C466.357 222.731 467.079 222.009 467.657 221.287C468.234 220.564 468.379 219.842 467.801 219.12C466.934 217.82 466.357 216.376 466.646 214.642C466.79 214.209 466.212 213.487 465.779 213.198C465.057 212.476 465.49 211.32 464.479 210.598C463.757 210.164 464.334 209.153 464.19 208.431C463.901 207.565 464.046 206.553 463.901 205.542C463.757 204.387 463.468 203.231 463.034 202.076C462.023 199.476 461.59 196.731 461.301 193.987C461.157 193.265 461.157 192.398 460.868 191.676C460.723 191.387 460.29 191.242 460.001 191.098C459.857 191.098 459.568 191.098 459.423 191.242C457.979 193.554 456.101 195.576 454.946 198.176C453.79 200.776 452.346 203.087 449.457 204.098C448.735 204.387 448.301 205.109 447.579 205.542C446.712 206.12 445.846 206.553 444.979 206.842C443.968 207.276 443.101 206.842 442.235 206.12C441.512 205.687 441.079 204.965 440.935 204.242C440.646 203.231 439.924 202.653 438.912 202.076C437.613 201.353 437.468 200.198 437.613 199.042C437.757 197.165 439.057 195.287 438.19 193.265C438.046 192.831 438.479 192.109 438.768 191.676C439.49 189.798 440.068 187.92 441.224 186.331C441.512 185.898 441.079 184.887 440.646 184.887C438.913 184.598 437.757 182.865 435.879 182.865C435.157 182.865 434.435 182.287 433.713 181.854C433.135 181.565 432.99 180.987 432.99 180.409C432.99 179.831 433.135 179.254 432.701 178.676C431.69 177.52 430.824 176.22 430.39 174.632C430.101 173.765 429.379 172.898 428.801 172.176C427.79 170.732 426.635 170.009 424.757 170.732C424.035 171.02 423.168 171.165 422.446 171.02C420.135 170.443 417.679 170.587 415.657 168.998C414.935 168.42 413.924 168.132 412.913 167.843C410.602 167.12 408.002 168.565 407.135 170.876C406.557 172.32 406.557 173.62 407.28 174.92C407.857 175.787 408.002 176.798 407.28 177.665C406.268 178.965 405.113 180.12 404.535 181.565C403.813 183.154 405.402 184.887 404.968 186.765C404.824 187.487 404.968 188.354 405.257 189.076C405.691 190.52 404.968 191.242 403.813 191.965C403.235 192.254 402.513 192.542 402.368 192.976C401.213 195.431 399.046 196.876 397.313 198.898C396.446 199.909 396.446 201.065 397.313 202.22C397.891 203.087 398.613 203.665 399.191 204.531C399.624 205.109 400.057 205.976 400.202 206.698C400.635 208.865 400.78 211.031 401.213 213.198C401.646 215.653 400.057 217.82 400.78 220.275C400.924 220.42 400.491 220.998 400.202 221.142C399.48 221.72 398.468 222.153 397.746 222.875C395.291 225.331 392.402 226.92 389.224 228.22C387.78 228.798 386.335 229.375 384.746 229.953C383.735 230.387 383.158 231.253 383.302 232.264C383.446 234.72 383.591 237.031 383.158 239.342C382.869 240.931 382.724 242.52 382.58 244.109C382.58 245.697 382.724 247.286 382.869 248.731C382.869 249.309 382.869 249.886 382.58 250.464C382.146 251.475 381.424 252.631 380.846 253.642C380.702 253.931 380.124 254.22 379.98 254.075C378.535 253.786 377.813 254.942 376.946 255.52C376.369 255.953 375.213 255.664 374.924 255.086C374.635 254.508 374.491 253.931 374.202 253.497C373.769 252.631 373.624 251.475 372.902 250.897C370.88 249.164 370.302 246.564 368.858 244.397C368.424 243.675 368.569 242.953 368.858 242.086C370.158 239.342 371.458 236.742 371.313 233.564C371.313 232.698 371.891 231.686 372.18 230.675C372.469 229.664 372.758 228.798 373.047 227.787C373.191 227.353 372.613 226.342 372.324 226.342C369.147 226.053 366.113 224.753 362.936 224.898C362.069 224.898 361.347 224.609 360.913 223.887C359.469 221.864 357.736 220.42 355.425 219.409C353.402 218.398 351.813 216.953 350.802 214.931C349.647 212.764 347.913 211.176 345.891 209.876C344.014 208.72 342.136 207.709 340.258 206.698C339.391 206.12 338.38 205.976 337.369 206.265C335.78 206.698 334.047 207.42 332.314 207.131C332.314 207.131 332.314 207.276 332.169 207.276L332.025 207.42V207.131H332.169C333.18 205.687 333.758 204.242 333.614 202.365C333.325 200.198 333.469 198.031 333.469 195.865C333.469 195.142 333.325 194.276 333.18 193.554C333.036 193.265 332.747 192.831 332.314 192.831C331.591 192.687 330.725 192.687 330.003 192.542C329.136 192.542 328.558 192.109 328.269 191.242C328.125 190.665 327.98 190.087 328.125 189.509C328.414 188.354 328.991 187.343 329.28 186.187C330.291 181.276 332.314 176.798 336.358 173.476C337.225 172.754 337.802 171.743 338.525 170.732C340.691 167.843 342.569 164.809 346.325 163.654C347.914 162.209 349.791 161.054 350.369 158.743C350.513 158.165 350.947 157.732 351.669 157.876C352.391 158.021 353.258 158.165 353.98 158.309C355.858 158.454 357.447 157.009 357.591 155.132C357.591 154.265 357.447 153.254 357.447 152.387H357.302C357.158 152.243 357.158 152.243 357.013 152.098C357.158 152.098 357.302 152.098 357.447 152.243V152.387C360.191 152.532 362.358 151.954 363.513 149.065C363.802 148.487 364.38 148.343 364.958 148.487C365.824 148.776 366.836 149.21 367.702 149.643C368.713 149.932 369.724 149.932 370.447 149.21C373.48 146.465 376.513 143.576 379.402 140.687C379.691 140.399 379.835 139.965 379.691 139.532C379.691 138.665 379.835 138.087 380.558 137.51C382.002 136.354 383.302 135.343 384.602 134.187C385.035 133.754 385.324 133.465 385.758 133.032C385.758 133.032 385.758 133.032 385.902 132.887C386.191 132.599 386.48 132.454 386.624 132.165C388.069 130.721 388.213 130.721 387.057 128.699C386.913 128.554 386.913 128.41 386.769 128.121C386.624 127.688 386.769 127.254 387.202 127.254C389.08 126.965 390.813 126.965 391.535 129.132C391.535 129.276 391.824 129.421 391.969 129.565C394.857 130.721 397.602 131.154 400.491 129.71C402.513 128.843 404.391 127.688 405.98 126.099C406.557 125.521 407.279 124.943 407.857 124.799C409.446 124.51 410.024 123.21 410.746 122.054C411.324 121.188 411.468 120.177 411.179 119.165C410.891 118.443 410.746 117.577 410.457 116.854C409.879 115.699 409.879 114.543 410.313 113.388C410.602 112.232 410.746 111.077 411.035 109.921H410.891L410.602 109.777L411.035 109.921C411.757 110.066 412.479 110.21 413.202 110.21C415.368 110.066 416.235 109.199 416.379 106.888C416.379 106.021 416.524 105.443 417.102 104.721C418.113 103.566 417.391 102.699 416.813 101.688C415.224 101.11 414.502 99.9545 414.502 98.2212C414.502 96.9212 413.924 96.199 412.479 96.199C411.324 96.199 411.035 95.3323 410.891 94.4657C409.591 94.6101 408.435 94.1768 407.28 93.3101C407.28 93.3101 407.28 93.3101 407.28 93.1657H407.135L407.28 93.3101C406.846 93.4546 406.557 93.599 406.124 93.599C404.246 93.599 403.091 94.4657 402.802 96.199C402.368 97.9323 401.213 99.3767 401.791 101.254C401.935 101.688 401.935 101.977 401.646 102.266C400.924 102.988 400.202 103.566 399.624 104.288C397.746 104.432 397.024 105.877 396.446 107.321C396.013 108.188 395.58 109.054 395.002 109.921C394.569 110.643 393.846 110.932 393.124 110.932V111.077C392.98 111.221 392.98 111.221 392.835 111.366C392.835 111.221 392.835 111.077 392.98 110.932C392.691 110.354 392.546 109.488 391.68 109.343C390.957 109.199 390.38 110.066 390.091 111.51C389.946 112.377 389.802 113.099 390.235 113.821C390.524 114.688 390.235 115.41 389.802 115.988C389.369 116.565 388.357 116.999 387.78 116.71C387.346 116.421 386.624 116.132 386.48 115.554C386.046 114.399 385.902 113.243 385.758 112.088C385.469 109.777 385.902 107.754 387.78 106.166C388.502 105.588 388.646 104.866 388.791 103.999C389.224 101.255 388.213 98.9434 387.057 96.6323C386.769 96.199 385.902 96.199 385.469 96.6323C384.313 97.9323 383.013 99.2323 382.435 100.966C382.146 101.977 381.424 102.699 380.702 103.277C380.558 103.421 380.413 103.566 380.124 103.566C379.691 103.566 379.402 103.277 379.546 102.843C380.124 100.966 380.702 99.0879 380.558 97.0657C380.413 96.0546 381.28 95.9101 382.002 95.6212C383.158 95.0435 383.158 94.0324 382.291 93.3101C381.424 92.5879 380.413 91.7213 379.258 91.5768C378.246 91.4324 377.38 90.9991 376.658 90.4213C376.224 90.1324 376.08 89.8435 376.369 89.4102C377.38 88.2546 378.535 87.0991 379.546 85.9435C379.835 85.6547 380.269 85.6547 380.558 85.5102C382.002 84.9324 382.435 84.6436 382.146 83.6325C381.28 79.8769 380.702 76.2659 382.146 72.5104C382.291 71.9326 382.435 71.2104 382.146 70.777C381.424 68.466 381.713 66.0104 380.558 63.8438C380.124 62.9771 380.558 62.3994 381.28 61.966C382.724 60.9549 384.169 59.7994 385.469 58.6438C386.48 57.9216 387.057 56.9105 387.202 55.6105C387.202 55.1772 387.346 54.8883 387.635 54.5994C387.924 54.3105 388.357 54.0217 388.646 54.0217C389.513 54.3105 390.524 54.7439 391.246 55.3216C392.402 56.0439 393.557 55.755 394.569 55.0328C395.291 54.5994 395.869 54.1661 396.446 53.5883C399.191 50.9884 401.935 48.3884 404.68 45.7884C405.257 45.2106 405.691 44.4884 406.124 43.9107C406.702 43.044 406.124 41.1662 405.257 40.7329C405.113 40.5885 404.968 40.444 404.68 40.444C402.224 40.2996 400.202 38.9996 398.324 37.5552C397.746 37.1218 396.88 36.833 396.157 36.6885C394.424 36.3996 392.546 36.2552 390.813 36.6885C390.235 36.833 389.657 37.1218 389.224 37.5552C388.357 38.5663 387.78 39.8663 386.335 40.2996C385.613 41.4551 384.891 42.6107 384.169 43.9107C383.158 45.7884 382.002 47.6662 381.135 49.6884C380.558 50.6995 380.124 51.855 380.124 53.0106C380.124 55.755 378.824 57.9216 377.958 60.3771C377.813 60.9549 377.38 61.3882 376.946 61.6771C375.791 62.3993 374.635 63.266 373.48 64.1327C372.469 64.8549 372.613 65.7215 372.758 66.7326H372.902C372.902 66.8771 372.902 66.8771 372.902 67.0215C373.047 67.0215 373.047 67.166 373.191 67.166C373.047 67.3104 373.047 67.3104 372.902 67.0215L372.758 66.8771C372.758 66.8771 372.758 66.8771 372.758 66.7326C371.891 67.0215 370.88 67.0215 370.158 67.5993C367.558 69.3326 365.969 71.7881 365.536 74.8214C365.391 76.1214 365.247 77.1325 364.236 77.8547C363.947 78.1436 363.658 78.4325 363.369 78.7214C362.358 79.8769 362.069 81.0325 362.213 82.6214C362.358 84.0658 362.647 85.3658 363.513 86.5213C363.947 87.0991 364.091 87.8213 364.38 88.3991C364.958 88.5435 365.391 88.688 365.824 88.8324C366.98 89.5546 368.135 90.2768 369.147 91.1435C369.291 91.2879 369.435 91.4324 369.435 91.5768C369.435 92.0102 369.147 92.0101 368.713 92.1546C368.136 92.299 367.558 92.299 367.124 92.7324C366.258 93.7435 365.391 94.899 364.669 95.9101C364.236 96.4879 364.524 97.3545 365.391 97.7879C365.68 97.9323 366.113 97.9323 366.402 98.0768V97.9323L366.835 97.7879L366.547 98.0768H366.402C366.547 98.799 366.547 99.6656 365.969 100.243C364.958 101.255 363.947 102.121 362.936 102.988C361.78 103.999 360.336 104.866 358.747 104.866C356.58 104.866 355.713 106.454 355.136 108.188C354.847 109.488 354.702 110.932 354.413 112.232C354.413 112.521 354.125 112.81 353.836 112.954C353.691 112.81 353.547 112.665 353.402 112.521C352.969 111.799 352.536 111.221 352.102 110.499C351.38 109.343 351.38 108.91 352.247 107.899C353.258 106.454 354.413 105.01 355.425 103.566C355.713 103.132 355.425 102.121 354.847 102.121C352.825 101.977 352.247 100.677 352.102 98.9434C351.958 98.799 351.813 98.6545 351.525 98.3656C351.669 98.5101 351.813 98.6545 352.102 98.9434L352.247 99.0879L352.102 98.9434C352.825 99.0879 353.691 99.3767 354.413 99.5212C355.136 99.8101 356.002 99.9545 356.724 99.5212C358.024 98.9434 359.324 98.3656 360.48 97.7879C360.769 97.6434 361.058 97.2101 361.058 96.7768C361.058 95.3323 360.913 94.0324 360.913 92.5879C360.913 91.5768 360.769 91.2879 362.213 91.1435C364.091 90.8546 364.091 89.5546 364.236 88.2546C363.947 88.2546 363.658 88.2546 363.224 88.2546C360.624 88.3991 358.602 87.5324 357.736 84.788C357.591 84.4991 357.302 84.0658 357.158 83.7769C356.869 83.3436 355.858 83.1991 355.569 83.488C354.847 84.2102 353.98 84.788 353.547 85.5102C351.958 87.6769 350.225 89.4102 347.48 89.6991C347.191 89.6991 346.758 90.1324 346.469 90.2768C346.325 90.4213 346.18 90.5657 346.036 90.7102C345.602 90.999 345.602 92.0102 346.036 92.299C348.058 93.7435 350.369 95.1879 351.38 97.6434L351.236 97.499L351.38 97.6434C350.369 97.7879 349.502 98.2212 348.491 98.2212C347.48 98.2212 346.614 98.2212 346.18 99.3767C345.891 100.099 345.169 100.532 344.591 101.11C344.158 101.543 343.725 101.977 343.725 102.554C343.725 103.132 343.725 103.71 343.147 104.143C342.425 104.577 341.558 104.432 340.836 104.143C340.114 103.854 339.391 103.421 338.669 103.132C337.369 102.554 336.069 102.266 334.625 102.988C334.047 103.277 333.469 103.277 332.891 103.421C332.025 103.566 331.303 103.421 330.58 103.132C329.28 102.41 328.125 101.832 327.403 100.532C326.536 98.6545 325.092 97.9323 323.358 97.499C322.636 97.3545 321.914 96.7768 321.769 95.9101C321.192 94.0324 320.18 92.299 320.469 90.1324C320.614 89.5546 320.469 88.9768 320.469 88.3991C320.325 87.0991 318.88 85.6547 317.58 85.9435C314.836 86.3769 312.092 86.8102 309.347 86.9546C308.192 87.0991 307.325 88.1102 306.892 89.2657C306.603 89.9879 306.892 91.1435 307.758 91.8657C308.192 92.299 308.769 92.4435 309.347 92.0101C309.636 91.8657 309.925 91.4324 310.358 91.2879C311.514 91.1435 312.669 90.9991 313.825 90.8546C314.98 90.5657 315.992 90.1324 317.147 89.6991C317.292 89.6991 317.725 89.988 317.869 90.2768C317.869 90.2768 317.725 90.7102 317.58 90.7102C316.425 91.1435 315.269 91.4324 314.403 92.0101C313.103 93.0212 311.658 93.599 310.069 93.8879C309.347 94.0324 308.481 94.3212 307.758 94.6101C306.603 95.0435 305.736 95.7657 305.447 97.0657C304.869 98.9434 304.436 100.821 304.147 102.843C304.147 103.421 303.714 103.999 303.281 104.288C302.847 104.721 302.125 105.154 301.836 105.01C301.114 104.721 301.547 103.999 301.836 103.566C302.414 102.554 302.27 101.688 301.836 100.677C301.258 99.3767 300.681 98.2212 300.103 96.9212C299.525 95.9101 299.092 94.7546 298.514 93.7435C298.225 93.1657 297.214 92.5879 296.492 92.7324C295.77 92.8768 294.903 93.1657 294.181 93.3101C288.259 94.6101 282.77 93.4546 278.003 89.6991C277.714 89.4102 277.57 88.5435 277.859 88.1102C278.436 86.9546 279.303 86.2324 280.603 86.2324C281.181 86.2324 281.759 86.2324 282.336 86.2324C284.792 86.2324 285.947 84.9324 285.514 82.4769C285.225 81.3214 284.792 80.1658 284.214 79.1547C283.347 77.7103 282.048 76.5548 280.314 76.8436C278.148 77.1325 276.414 76.2659 274.825 74.9659C272.659 73.2326 270.492 71.4992 268.325 69.7659C266.881 68.6104 265.581 67.4549 265.292 65.5771C264.859 63.1216 263.27 61.966 261.103 60.9549C259.226 60.0883 257.637 60.3772 256.337 61.966C255.903 62.5438 255.181 63.1216 254.603 63.5549C254.17 63.8438 253.448 63.8438 252.87 63.8438C252.148 63.8438 251.57 63.1216 251.859 62.6882C253.448 60.8105 253.881 58.4994 254.17 56.1883C254.17 56.0439 254.026 55.8994 253.881 55.755C253.737 55.6105 253.448 55.4661 253.448 55.6105C252.87 55.8994 252.292 56.0439 251.859 56.4772C250.126 57.9216 248.537 59.366 246.803 60.666C246.515 60.8105 246.081 60.9549 245.648 60.8105C245.359 60.666 244.926 60.3771 244.926 59.9438C244.637 58.3549 244.781 56.7661 245.07 55.1772C245.792 52.4328 245.937 49.6884 245.792 46.944C245.792 46.3662 245.503 45.7884 245.359 45.2106C245.215 45.0662 244.637 44.9218 244.348 45.0662C243.481 45.644 243.192 46.6551 243.048 47.6662C242.903 48.6773 242.615 49.5439 241.603 50.1217C240.448 50.8439 239.292 51.5661 237.992 52.1439C237.27 52.5772 236.404 52.2883 235.826 51.7106C235.537 51.4217 235.392 51.2772 235.104 50.9884C234.959 50.9884 234.815 50.9884 234.67 50.9884C234.381 51.2772 233.948 51.4217 233.659 51.7106C233.515 51.855 233.226 51.855 233.081 51.7106C232.648 51.4217 232.792 51.2772 233.37 51.1328C233.804 51.1328 234.237 50.9884 234.526 50.9884C234.67 50.8439 234.67 50.8439 234.815 50.8439L234.959 50.9884C235.104 50.4106 235.248 49.8328 235.392 49.255C235.537 48.5328 235.248 47.9551 234.67 47.8106C233.37 47.3773 231.926 47.0884 230.626 47.6662C227.737 48.8217 224.704 49.8328 221.526 49.9773C220.515 49.9773 219.504 50.2661 218.781 50.8439C217.048 52.2883 215.17 52.1439 213.293 51.855L213.148 51.9995L213.004 52.2883L213.148 51.855H213.293C213.437 51.7106 213.437 51.7106 213.582 51.5661C214.159 50.8439 214.159 50.1217 213.726 49.3995C213.148 48.6773 212.715 48.6773 211.704 49.255C210.982 49.6884 210.404 50.1217 209.537 50.2661C208.237 50.4106 206.793 50.6995 205.493 51.2772C203.904 51.855 202.748 52.7217 202.459 54.5994C202.315 55.3216 201.737 55.6105 201.304 55.3216C200.437 54.7439 199.715 54.1661 198.848 53.5883C197.693 52.7217 196.826 51.7106 196.537 50.2661C196.104 48.9662 195.671 47.6662 195.237 46.3662C194.948 45.4995 194.371 44.6329 193.937 43.7662C192.637 42.3218 190.76 41.4551 189.171 40.2996C186.715 38.7107 184.26 36.9774 183.249 33.9441C183.104 33.5108 182.815 33.2219 182.671 32.933C182.237 32.2108 181.515 31.7774 180.649 31.7774C179.926 31.7774 179.06 31.633 178.337 31.633C176.604 31.633 175.304 31.0552 174.004 29.8997C172.126 28.4553 170.393 26.8664 168.082 25.9997C167.071 25.5664 166.06 24.6997 165.193 23.8331C164.182 22.822 163.46 21.8109 162.882 20.5109C162.304 19.2109 161.004 18.4887 159.415 18.7776C158.404 18.922 157.538 19.2109 156.527 19.4998C155.949 19.6442 155.371 19.3554 155.082 18.7776C154.216 17.3332 154.215 15.4554 153.349 13.8665C153.204 13.7221 153.493 13.1443 153.782 12.8554C154.216 12.4221 154.504 11.8443 154.215 11.2666C153.927 10.6888 153.493 10.2554 153.06 9.96656C152.193 9.53323 151.182 9.24435 150.316 8.95546C149.738 8.81102 149.16 8.81102 148.582 8.66658C147.716 8.52214 147.427 8.23325 147.571 6.93326C147.716 5.92216 147.716 5.0555 146.704 4.62217C146.56 4.62217 146.416 4.62217 146.271 4.62217C145.693 4.76662 145.116 5.0555 144.538 5.19995C144.393 5.34439 144.104 5.48883 143.96 5.63327H143.816C143.816 5.92216 143.671 6.35549 143.527 6.64438C143.093 7.51103 142.516 7.65548 141.649 7.22215C141.36 7.07771 141.216 6.64438 141.216 6.21105C141.216 6.21105 141.505 5.92216 141.649 5.92216C142.371 5.77772 143.093 5.77772 143.816 5.63327V5.48883C144.104 5.34439 144.393 5.34439 144.538 5.19995C145.116 4.91106 145.549 4.62217 146.271 4.62217C146.416 4.62217 146.416 4.62217 146.56 4.47773C146.56 4.47773 146.56 4.47773 146.704 4.47773C146.271 2.88886 145.549 1.58887 144.393 0.577771C143.671 -8.179e-07 143.093 -0.144443 142.227 0.144443C140.927 0.577772 139.627 1.0111 138.471 1.87776C136.738 3.32219 134.86 3.32219 132.838 2.74441C131.682 2.45553 130.527 2.0222 129.371 1.73331C127.349 1.15554 125.905 2.0222 124.605 3.32219C124.171 3.75552 124.027 4.33329 123.738 4.91106C123.305 5.34439 122.871 5.92216 122.438 5.92216C120.849 6.21105 119.405 6.93326 117.816 6.35549C115.505 5.77772 113.338 6.35549 111.605 7.65548C108.138 9.96656 104.383 11.8443 101.349 14.7332C100.916 15.1665 100.483 15.5998 99.905 15.8887C96.005 18.0554 92.105 20.0776 87.6273 17.622C87.4829 17.4776 87.194 17.4776 87.0495 17.3332C85.1718 16.6109 84.3051 16.8998 82.8607 18.4887C81.994 19.4998 81.2718 20.7998 80.2607 21.6664C78.6718 22.9664 78.2385 24.4109 78.9607 26.4331C79.5385 27.733 79.6829 29.1775 80.1163 30.4775C81.4163 34.233 81.8496 37.844 79.8274 41.4551C79.394 42.1773 79.9718 43.4773 80.694 44.0551C81.7051 44.7773 82.7162 45.2106 83.7273 45.7884C83.8718 47.2328 83.8718 47.8106 83.8718 48.0995C83.8718 48.0995 83.5829 48.2439 83.294 48.2439C82.7162 48.3884 81.994 48.5328 81.994 49.255C81.8496 50.8439 81.7051 52.4328 81.7051 54.0217C81.7051 54.3105 82.1385 54.5994 82.5718 54.7439C83.0051 54.8883 83.5829 54.8883 84.0162 54.8883V54.7439C84.0162 54.7439 84.1607 54.7439 84.1607 54.8883C84.1607 54.5994 84.3051 54.1661 84.3051 53.8772C84.3051 53.8772 84.3051 53.8772 84.1607 53.8772L83.8718 53.5883L84.1607 53.7328C85.894 53.2994 87.4829 53.5883 89.0717 54.1661C89.5051 54.3105 89.7939 55.1772 89.5051 55.6105C89.3606 55.8994 88.9273 56.1883 88.6384 56.1883C86.9051 56.0439 85.4607 55.3216 84.0162 54.7439V54.8883C83.8718 54.8883 83.8718 54.8883 83.7273 54.8883C83.8718 55.4661 83.8718 56.3327 83.0051 56.4772C81.8496 56.6216 80.694 56.9105 79.6829 57.7772C78.6718 58.6438 77.3719 58.4994 76.3608 57.9216C75.0608 57.3438 73.9052 56.6216 72.7497 55.8994C71.883 55.4661 71.7386 54.5994 72.1719 53.8772C72.6052 53.155 73.0386 52.5772 73.4719 51.855C74.3386 50.555 73.0386 48.8217 71.7386 48.8217C70.1497 48.8217 68.5608 48.8217 66.972 49.1106C66.1053 49.255 64.9498 49.6884 64.372 50.4106C63.5053 51.5661 62.4942 51.5661 61.1942 51.4217C60.1831 51.2772 59.3165 51.7106 58.3054 51.855C55.4165 52.2883 53.3943 54.3105 50.6499 55.1772C49.6388 55.4661 49.3499 56.7661 49.9277 57.6327C50.7943 58.9327 51.8055 60.2327 52.6721 61.3882C52.961 61.8216 52.8165 62.1105 51.8054 62.5438C51.5166 62.6882 50.9388 62.8327 50.7943 63.1216C50.5055 65.1438 49.3499 66.7326 48.7721 68.6104C48.6277 69.3326 48.7722 70.3437 49.061 70.9215C50.361 72.9437 52.0943 74.677 54.8388 74.0992C57.1498 73.6659 59.172 73.9548 61.0498 75.3992C62.0609 76.2659 63.072 76.4103 64.372 75.6881C66.3942 74.677 68.4164 73.9548 70.4386 73.0881C70.8719 72.9437 71.5941 73.0881 72.1719 73.2326C72.3163 73.2326 72.4608 73.5215 72.4608 73.6659C72.4608 73.8103 72.4608 74.0992 72.4608 74.2437C72.1719 74.5326 71.883 74.677 71.4497 74.8214C70.4386 75.1103 69.5719 75.3992 69.8608 76.8436C70.0053 77.4214 70.0053 78.1436 69.7164 78.577C68.8497 80.1658 68.1275 81.7547 67.8386 83.6325C67.5497 85.5102 64.5164 87.6769 62.4942 87.6769C62.0609 87.6769 61.6276 87.5324 61.3387 87.388C60.6165 86.9546 60.0387 86.5213 59.4609 85.9435C59.0276 85.5102 58.7387 84.788 58.3054 84.788C57.7276 84.788 57.7276 85.6547 57.5832 86.088C56.7165 88.3991 54.9832 89.4102 52.6721 89.8435C52.3832 89.8435 51.9499 89.6991 51.661 89.4102C51.3721 89.1213 51.2277 88.8324 50.9388 88.3991C49.9277 86.9546 48.7721 86.5213 47.4722 87.2435C45.3055 88.5435 42.85 89.8435 42.1278 92.5879C41.9833 92.8768 41.6944 93.3101 41.4056 93.4546C37.9389 95.3323 35.4834 98.6545 32.3057 100.966C30.139 102.554 29.4168 104.721 30.139 107.177C30.4279 108.188 30.5723 109.054 30.8612 110.066C31.1501 111.077 31.0057 112.088 30.2835 112.81C28.4057 114.543 28.4057 116.565 28.9835 118.877C29.4168 120.177 29.5612 121.621 29.9946 122.921C30.2835 123.788 30.8612 124.221 31.5834 124.51C32.3057 124.799 33.1723 124.943 33.8945 124.799C35.339 124.51 36.9278 124.076 38.5167 124.221V124.076C38.5167 123.932 38.6611 123.788 38.6611 123.643C38.6611 123.21 38.6611 122.776 38.6611 122.488C38.6611 122.343 38.6611 122.054 38.8056 121.91C39.2389 121.621 39.3834 121.91 39.0945 122.488C38.95 122.921 38.8056 123.354 38.5167 123.788C38.5167 123.932 38.5167 124.076 38.5167 124.365H38.3723C38.2278 125.232 37.9389 126.243 37.9389 127.11C37.9389 128.699 37.2167 129.71 36.0612 130.721C35.1945 131.443 35.1945 132.454 35.6278 133.465C36.0612 134.332 35.7723 135.054 35.4834 135.776C35.1945 136.354 34.9056 136.787 34.4723 137.221C34.039 137.943 34.1834 138.376 34.7612 138.521C36.4945 139.099 38.2278 139.532 39.3834 137.365C39.5278 137.221 39.8167 137.076 39.9611 137.076C41.4056 138.521 43.5722 139.532 44.15 141.987C44.2944 142.565 45.0166 142.71 45.45 142.132C45.5944 141.987 45.5944 141.843 45.7388 141.699C46.7499 140.543 46.7499 140.543 48.4833 141.265C49.061 141.41 49.6388 141.554 50.2166 141.554C50.7944 141.554 51.3721 141.265 51.9499 141.265C52.0943 141.265 52.3832 141.265 52.5277 141.41C52.8165 141.699 52.8166 141.987 52.3832 142.276C50.6499 143.432 49.7833 145.021 48.7721 146.898C46.6055 150.943 44.0055 154.698 39.6722 156.865C38.2278 157.587 37.0723 158.598 35.6278 159.321C33.3168 160.332 31.1501 161.776 28.839 162.932C27.3946 163.654 26.2391 164.665 25.228 165.965C24.6502 166.687 23.928 166.832 23.2057 166.543C21.328 165.965 19.5947 166.398 18.1502 167.409C16.8503 168.276 15.5503 169.143 14.2503 170.154C12.2281 171.887 9.917 173.043 7.31702 173.187C6.30592 173.187 5.29482 173.476 4.28372 173.476C2.26152 173.62 1.25042 175.065 0.0948778 176.509C-0.0495652 176.654 -0.0495646 177.231 0.239321 177.52C0.383764 177.809 0.817091 178.098 1.25042 178.098C1.82819 178.098 2.40596 178.098 2.98374 177.809C4.13928 177.231 5.29482 177.665 6.45037 177.52C7.17258 177.376 8.18368 177.231 8.61701 176.654C9.917 175.209 11.5059 174.776 13.3836 174.632C15.9836 174.487 17.8614 173.332 19.0169 171.02C19.0169 171.02 19.0169 170.876 18.8725 170.876L19.1613 170.732L19.0169 170.876C19.4502 171.598 20.028 172.465 20.4613 173.187C20.8947 173.765 20.8947 173.765 21.4724 172.609C21.6169 172.32 21.7613 171.743 22.0502 171.598C23.7835 171.309 25.3724 170.443 27.2501 170.587C27.9724 170.732 28.6946 171.02 29.4168 170.443C30.2835 169.576 31.439 169.287 32.5945 168.854C34.3279 167.987 36.4945 167.698 37.2167 165.532C38.5167 164.665 39.8167 163.798 41.2611 163.221C41.6944 163.076 42.4167 163.221 42.9944 163.365C43.2833 162.932 43.5722 162.209 43.8611 162.065C45.3055 161.776 46.3166 160.909 47.6166 160.332C49.061 159.754 49.9277 159.032 50.5055 157.587C50.6499 157.154 51.2277 156.576 51.661 156.287C54.4054 154.554 57.0054 152.821 60.1831 152.098C62.4942 151.521 64.0831 150.51 65.3831 148.632C65.9609 147.91 66.972 147.476 67.6942 146.898C68.4164 146.465 69.1386 146.176 69.7164 145.743C70.8719 145.021 71.1608 143.865 70.583 142.71C70.2942 142.132 70.0053 141.699 69.7164 141.121C69.283 140.254 69.4275 139.676 70.0053 138.954C71.1608 137.654 72.6052 137.076 74.3386 137.51C75.3497 137.799 76.2163 137.51 77.083 136.787C78.2385 135.776 79.6829 135.054 79.9718 133.176C80.2607 132.165 81.1274 131.588 82.2829 131.588C83.1496 131.443 83.8718 131.299 84.3051 130.576C86.3273 126.965 89.9384 125.81 93.2606 124.221C94.4161 123.643 95.7161 124.654 95.7161 125.954C95.7161 126.532 95.7161 127.11 95.7161 127.688C95.7161 127.976 94.9939 128.265 94.8494 128.265C92.5384 126.965 90.2273 127.254 88.2051 128.699C87.7717 128.988 87.194 129.421 87.0495 129.854C85.894 132.743 83.7273 134.765 81.8496 136.932C81.1274 137.799 80.9829 138.665 81.8496 139.532C82.2829 139.965 82.2829 140.11 81.8496 140.399C80.8385 140.976 79.6829 141.41 78.6718 141.987C78.2385 142.276 77.9496 143.143 78.3829 143.576C78.6718 144.01 79.2496 144.587 79.6829 144.587C80.694 144.587 81.7051 144.443 82.5718 143.865C84.3051 142.854 86.1829 142.132 88.0606 141.699C88.7828 141.41 89.6495 141.265 90.2273 140.832C91.9606 139.965 93.6939 138.954 95.8606 139.387C96.2939 139.532 97.0161 138.954 97.4494 138.81C98.3161 138.376 99.0383 137.654 99.6161 136.787C100.194 136.065 100.916 136.21 101.494 136.787C101.927 136.787 102.216 136.787 102.649 136.787C102.938 135.921 103.227 135.199 102.216 134.476C101.638 134.043 101.205 133.321 100.916 132.599C100.483 131.443 100.772 130.288 101.783 129.565C102.36 129.132 102.938 128.988 103.227 129.71C103.66 130.865 104.238 131.732 105.683 131.443C106.549 131.299 107.56 131.299 108.427 131.299C108.427 131.299 108.427 131.299 108.427 131.154L108.716 131.01L108.572 131.299C108.572 131.299 108.572 131.299 108.427 131.299C108.427 131.876 108.427 132.454 108.427 133.032C108.86 135.199 109.727 137.221 112.183 137.943C113.627 138.376 114.349 139.532 115.071 140.832C115.36 141.41 115.36 141.987 115.649 142.421C116.083 143.143 116.66 143.721 117.527 143.721C118.249 143.865 119.116 144.01 119.838 144.01C121.716 144.01 123.305 144.587 124.749 145.887C125.182 146.321 125.76 146.465 126.194 146.754C126.194 146.754 126.194 146.754 126.194 146.61L126.482 146.465L126.338 146.754C126.627 147.187 127.06 147.621 127.349 148.054C128.649 149.354 130.094 150.365 132.116 149.787C132.26 149.787 132.549 149.787 132.694 149.932C133.127 150.076 133.416 150.51 133.127 150.798C131.827 152.098 131.971 153.11 133.127 154.41C133.705 154.987 133.993 155.709 134.716 156.143C135.582 156.721 136.305 157.009 136.305 158.309C136.305 159.032 136.449 159.898 136.593 160.621C136.882 162.498 137.749 164.087 138.905 165.387C139.627 166.109 140.493 166.543 141.505 166.398C142.371 166.254 142.949 165.532 142.805 164.809C142.66 164.232 142.516 163.654 142.371 163.076C142.371 162.932 142.371 162.643 142.371 162.498C142.66 162.065 142.949 162.209 143.093 162.787C143.382 163.509 143.816 164.232 143.96 164.954C143.96 166.254 144.827 167.12 145.549 167.987C145.693 168.132 145.693 168.42 145.693 168.565C145.404 168.998 145.116 168.998 144.682 168.709C144.393 168.565 143.96 168.276 143.671 168.132C142.371 167.843 141.216 168.42 140.638 169.432C140.205 170.587 139.771 171.598 139.916 172.898C140.205 174.054 140.349 175.209 140.493 176.365L140.349 176.22C140.349 176.365 140.349 176.509 140.349 176.509L140.493 176.365C141.216 177.231 141.649 178.243 141.216 179.543C140.493 181.42 140.349 183.443 140.638 185.32C140.638 185.465 140.927 185.754 140.927 185.754C141.216 185.754 141.793 185.609 141.938 185.465C142.66 184.165 143.238 182.865 143.96 181.565C143.96 181.42 143.96 181.131 143.96 180.987C144.104 180.987 144.104 180.987 144.249 180.987C144.827 180.265 145.549 179.976 146.56 180.12L146.704 179.976H146.849C146.849 179.831 146.849 179.687 146.993 179.543C148.582 177.376 150.171 175.209 151.182 172.609C151.182 172.465 151.76 172.465 152.049 172.465C152.193 172.465 152.338 172.754 152.338 172.898C152.338 173.476 152.338 174.054 152.193 174.632C151.76 175.932 151.327 177.231 150.749 178.387C150.316 179.398 150.893 180.12 151.327 180.843C151.471 180.843 151.471 180.843 151.616 180.843C151.616 180.987 151.616 181.131 151.616 181.276C152.049 181.854 152.338 182.576 152.482 183.298L152.627 183.443L152.771 183.731L152.482 183.587C152.482 183.443 152.482 183.443 152.482 183.298C151.76 182.865 151.616 181.998 151.616 181.276C151.616 181.131 151.471 181.131 151.471 180.987C151.471 180.987 151.471 180.843 151.327 180.843C150.604 180.698 150.027 180.698 149.449 180.409C148.582 179.976 147.716 179.976 146.849 179.976V180.12C146.704 180.12 146.704 180.12 146.56 180.12C145.982 180.987 145.26 181.131 144.249 180.987L144.104 181.131C144.104 181.276 143.96 181.42 143.96 181.565C143.816 183.298 144.104 185.031 143.238 186.62C142.949 187.198 143.527 188.065 144.393 188.354C144.682 188.498 144.971 188.498 145.404 188.498V188.354C145.549 188.209 145.693 188.065 145.693 188.065C145.838 187.776 145.838 187.487 145.982 187.198C145.982 187.343 146.127 187.487 146.127 187.631C145.982 187.776 145.838 187.92 145.693 188.065C145.693 188.209 145.549 188.354 145.549 188.498H145.404C145.26 189.076 145.116 189.654 145.26 190.087C145.838 190.954 146.271 191.676 145.838 192.831C145.549 193.554 145.404 194.276 145.26 195.142C145.116 195.72 144.971 196.442 145.26 196.876C146.271 198.176 145.982 199.909 146.704 201.353C146.849 201.642 147.282 201.787 147.571 201.787C147.86 201.787 148.438 201.498 148.438 201.209C149.16 199.476 150.171 197.742 150.171 195.72H150.027C150.027 195.576 150.027 195.576 150.027 195.431C149.882 195.287 149.738 195.287 149.738 195.142C149.882 195.142 150.027 195.142 150.027 195.287V195.431L150.171 195.576V195.72C150.604 195.72 150.893 195.72 151.327 195.72C151.327 195.72 151.327 195.576 151.182 195.576C151.327 195.431 151.327 195.431 151.471 195.287C151.471 195.431 151.471 195.576 151.327 195.72C151.76 196.442 152.193 197.165 152.627 197.742L152.771 197.598C152.771 197.742 152.771 197.887 152.771 198.031C152.916 198.32 153.06 198.465 153.06 198.753C153.06 199.331 152.916 199.331 152.771 198.753C152.771 198.609 152.771 198.32 152.771 198.176V198.031C152.771 197.887 152.627 197.887 152.627 197.742C151.76 198.32 151.616 199.187 151.76 200.053C151.904 200.92 152.338 201.498 153.06 201.931C153.638 202.22 154.215 202.22 154.793 202.365C155.515 202.509 155.804 203.087 155.371 203.52C154.216 204.676 153.493 205.976 153.493 207.709C153.493 208.431 152.627 208.431 152.193 208.576C151.471 209.009 151.327 209.298 151.904 209.876C153.204 211.32 153.204 212.042 151.471 212.764C151.038 212.909 150.749 213.053 150.749 213.487C151.038 214.931 152.193 215.798 153.204 215.509C154.504 215.076 155.804 214.353 157.249 214.498C157.393 214.498 157.682 214.642 157.682 214.787C157.682 215.076 157.827 215.509 157.538 215.798C156.96 216.376 156.382 216.809 155.804 217.387C154.649 218.398 154.216 219.698 154.36 221.142C154.36 221.431 154.793 221.72 155.082 222.009L154.938 221.864C155.082 221.864 155.082 221.864 155.227 221.864C155.227 221.72 155.371 221.72 155.371 221.575C155.66 221.72 155.515 221.864 155.227 221.864L155.082 222.009C156.093 223.02 157.104 224.031 157.971 225.187C158.549 225.764 158.693 226.487 158.404 227.209C158.115 227.787 157.827 228.509 157.538 229.087C157.538 229.087 157.538 229.087 157.393 229.087V229.231L157.538 229.087C157.538 229.664 157.249 230.386 157.393 230.82C157.682 231.831 157.827 232.698 157.104 233.564C156.96 233.709 156.96 233.853 156.815 234.142L158.549 237.609C159.704 238.042 160.715 238.764 161.438 239.775C162.16 240.786 163.027 241.364 164.182 241.797C165.049 242.086 165.915 242.664 166.782 243.097C167.36 243.386 167.649 243.964 167.504 244.542C167.071 245.697 166.782 246.853 167.215 248.009C167.36 248.442 167.793 248.875 168.082 249.309H168.371L168.226 249.453L168.082 249.309C168.226 249.742 168.226 250.175 168.371 250.464C168.949 250.609 169.382 250.609 169.96 250.753C170.682 250.897 171.404 251.186 171.693 252.197C172.126 253.497 172.56 254.797 173.282 256.097C174.004 257.397 173.426 258.408 172.993 259.42C172.849 259.708 172.56 260.142 172.271 260.286C171.838 260.575 171.115 261.008 170.682 261.008C168.949 260.431 167.215 260.286 165.915 258.986L166.06 259.131L165.915 258.986C166.493 259.131 167.071 259.131 167.649 259.131C168.804 259.131 169.382 258.408 169.526 257.397C169.671 255.086 169.238 252.92 168.371 250.753C167.504 250.32 166.638 249.886 166.349 248.875C166.06 247.864 165.771 246.997 165.482 245.986C164.904 243.82 163.604 242.52 161.582 241.942C159.993 241.509 158.693 240.642 157.393 239.631C156.671 239.053 155.949 238.331 155.082 237.753C154.649 237.464 153.927 237.464 153.349 237.32C152.916 237.175 152.049 237.898 152.193 238.331C152.338 239.486 152.771 240.642 152.627 241.797C152.627 242.375 152.916 242.953 153.204 243.386C154.071 244.542 155.082 245.409 155.804 246.564C158.115 250.031 161.149 252.92 163.46 256.386C163.749 256.82 164.327 257.253 164.76 257.542L164.615 257.397L164.76 257.542C163.171 258.12 162.16 259.275 162.16 261.153C162.16 263.753 162.015 266.353 162.16 268.953C162.304 272.275 161.727 275.164 160.571 278.197C159.415 281.375 157.827 284.408 157.104 287.73C156.382 290.764 155.227 293.797 153.493 296.397C151.76 298.852 151.327 301.452 151.471 304.341C151.471 304.919 151.471 305.497 151.616 306.075C151.76 309.252 151.327 312.43 149.449 315.175C148.871 316.041 148.727 317.052 149.16 318.063C150.171 320.086 150.46 322.108 149.882 324.419C149.593 325.286 149.738 326.441 149.882 327.308C149.882 327.885 150.027 328.463 150.171 329.041C150.893 330.63 151.471 332.363 152.338 333.952C152.627 334.385 153.204 334.819 153.638 335.108C154.793 335.83 154.793 335.83 154.36 336.697C154.216 337.274 153.782 337.708 153.638 338.285C153.493 338.863 153.349 339.441 153.638 340.019C154.216 341.752 155.227 343.196 154.36 345.074C154.216 345.508 154.504 346.23 154.649 346.808C155.66 348.974 156.527 351.141 157.538 353.307C158.115 354.463 158.404 355.474 158.26 356.774C158.115 358.218 158.549 358.796 159.56 359.085C163.027 359.663 165.627 361.83 168.515 363.563C170.971 365.007 172.271 367.03 172.415 369.774C172.56 371.941 173.138 374.107 173.715 376.129C174.726 379.74 176.46 383.207 176.893 386.963C177.037 388.118 177.76 389.129 178.771 389.996C180.649 391.585 181.804 393.607 182.96 395.774C183.682 396.929 183.393 398.085 182.815 399.096C182.382 399.963 181.66 400.107 180.793 399.962C180.649 399.962 180.36 399.963 180.215 400.107C179.637 400.251 179.349 401.118 179.637 401.551C180.649 403.429 181.949 404.874 183.826 405.74C186.282 406.896 188.015 408.774 189.893 410.507C190.615 411.229 191.048 412.24 190.904 413.251C190.904 414.262 190.904 415.273 190.615 416.14C190.326 417.44 190.76 418.307 191.626 419.318C194.515 422.207 197.982 424.662 199.859 428.562C200.148 429.14 201.304 429.284 202.026 428.707C202.893 427.984 203.326 426.973 203.037 426.107C202.604 424.662 201.882 423.507 201.015 422.496C200.148 421.629 197.837 417.44 197.548 416.285C197.259 415.273 196.826 414.407 196.537 413.396C196.248 411.807 196.104 410.218 195.815 408.629C195.382 406.751 193.648 405.885 193.071 404.151C192.204 401.551 191.048 398.951 189.604 396.64C188.015 394.185 187.004 391.296 184.982 388.985C184.549 388.552 184.404 387.974 184.26 387.396C183.971 384.507 183.393 381.474 184.26 378.585C184.404 378.152 184.693 377.863 185.126 378.007C186.282 378.441 187.293 379.018 188.304 379.452C189.46 380.029 190.182 380.752 190.326 382.052C190.76 384.652 191.048 387.107 192.06 389.563C193.504 393.318 195.526 396.785 197.982 399.818C198.415 400.396 199.282 400.974 199.426 401.696C199.859 403.574 201.159 404.729 202.459 405.885C203.326 406.607 204.337 407.329 205.204 408.196C205.637 408.629 205.782 409.207 205.348 409.785C205.059 410.074 204.915 410.507 204.771 410.796C204.193 411.662 204.337 412.818 205.204 413.54C206.359 414.407 207.37 415.273 208.67 415.851C210.115 416.573 210.837 417.44 210.982 419.029C210.982 419.751 211.704 420.329 212.282 420.907C218.348 427.262 220.081 430.584 221.959 437.662C222.104 438.24 222.104 438.818 221.959 439.395C221.67 440.118 221.381 440.984 220.948 441.562C219.504 443.44 220.081 445.318 221.093 447.051C221.959 448.64 223.115 450.084 224.848 450.662C226.581 451.24 228.026 452.395 229.037 453.84C230.192 455.429 231.781 456.151 233.515 456.584C234.237 456.729 235.104 456.873 235.826 457.017C236.548 457.306 237.415 457.451 237.992 458.029C240.592 460.34 243.337 462.073 246.803 462.94C248.537 463.373 250.126 464.24 251.714 465.106C253.448 466.117 255.326 466.695 257.203 467.273C263.703 469.295 263.848 469.295 270.348 466.84C272.225 466.117 274.103 466.406 275.403 467.562C278.436 470.451 282.048 472.617 284.792 475.939C285.947 477.384 287.536 478.251 289.414 478.395C292.014 478.684 294.47 479.551 296.925 480.273C299.67 481.139 302.558 482.439 305.592 482.151C306.314 482.151 306.747 482.439 306.892 483.017C307.469 484.75 308.914 485.906 310.069 487.35C311.369 488.939 312.814 490.239 313.969 491.973C314.692 492.839 315.125 493.995 314.692 495.295C314.114 497.173 315.125 498.328 316.858 498.761C317.58 499.05 318.303 499.339 319.169 499.339C319.747 499.339 320.325 499.339 320.903 499.628C322.347 500.784 323.936 501.65 324.225 503.673C324.658 505.839 326.391 506.273 328.269 506.706C328.847 506.85 329.425 506.706 330.003 506.561C332.025 505.839 333.614 506.561 334.914 507.861C336.069 509.161 337.514 509.739 338.669 510.75C339.969 511.906 340.691 511.761 342.28 510.461C343.002 509.884 343.147 509.161 342.858 508.439C342.714 507.861 342.28 507.139 342.858 506.85C344.447 505.839 345.313 504.25 346.469 502.95C346.758 502.661 347.625 502.661 348.058 502.95C349.791 503.817 350.947 505.117 351.236 506.995C351.38 508.439 351.813 509.739 352.68 510.75C353.836 512.195 353.98 514.072 355.425 515.372C355.713 515.661 355.858 516.528 355.858 516.961C355.858 519.561 356.002 522.161 355.713 524.617C355.569 526.061 355.713 527.361 356.58 528.517C357.013 529.094 356.869 529.672 356.436 530.25C355.28 532.128 354.125 534.006 351.958 534.872C349.791 535.883 348.491 537.472 347.913 539.639C347.625 540.939 346.902 541.661 345.747 542.239C344.736 542.817 343.58 543.394 342.569 543.972C342.28 544.117 341.991 544.55 341.991 544.983C340.836 549.894 340.836 549.894 338.958 553.216C338.814 553.505 338.38 553.939 338.38 554.228C338.236 556.25 337.947 558.272 338.236 560.15C338.525 561.594 339.969 562.605 341.414 563.327C341.558 563.327 341.702 563.183 341.847 563.039C342.136 562.75 342.28 562.461 342.569 562.172C342.714 562.461 342.858 562.75 342.858 563.039C342.858 564.05 342.569 565.061 341.702 565.639C340.547 566.505 339.391 567.083 338.38 568.094C336.791 569.394 335.78 571.127 336.502 573.294C336.791 574.161 337.08 575.172 337.225 576.183C337.225 576.761 337.225 577.338 337.08 577.916C336.647 579.072 337.08 579.794 338.091 580.372C339.247 581.094 340.547 581.816 341.702 582.394C343.147 583.116 344.447 584.127 345.025 585.716C345.602 587.016 346.325 588.172 347.48 589.038C348.058 589.472 348.636 590.194 348.78 590.916C349.502 593.372 351.091 595.538 351.958 597.994C353.113 601.172 354.847 604.06 356.724 606.805C358.747 609.694 360.48 612.871 362.358 615.905C362.647 616.338 362.936 617.06 362.791 617.638C362.358 619.516 363.513 620.671 364.524 621.827C367.847 625.582 372.469 627.749 376.369 630.782C377.091 631.36 378.246 631.505 379.113 631.938C381.28 632.949 383.591 633.816 385.18 635.549C387.346 637.86 389.946 639.882 392.257 641.904C392.835 642.482 393.124 643.204 393.269 643.927C393.413 644.938 393.413 645.949 393.557 646.816C393.991 648.838 394.28 650.715 393.702 652.738C393.557 653.46 393.702 654.327 393.991 655.049C395.291 658.949 395.002 662.849 393.846 666.749C393.702 667.326 393.557 667.904 393.702 668.482C395.146 674.404 394.28 680.326 394.569 686.248C394.569 687.837 394.28 689.426 394.135 691.015C393.846 693.037 393.413 694.915 392.98 696.793C392.691 697.948 392.546 699.104 392.98 700.259C393.702 701.993 393.557 703.87 392.835 705.459C392.113 707.193 392.113 708.926 392.835 710.659C393.846 712.97 393.124 715.426 394.135 717.737C394.569 718.748 393.991 720.048 394.135 721.204C394.135 722.215 394.28 723.226 394.569 724.092C394.857 725.104 394.713 725.97 394.424 726.981C393.991 728.281 393.702 729.581 393.269 731.026C392.257 735.503 391.246 739.981 390.235 744.314C390.091 745.037 389.802 745.903 389.224 746.337C387.924 747.492 387.924 748.937 388.646 750.092C389.946 752.114 390.091 754.57 391.391 756.737C392.546 758.614 392.546 760.492 391.391 762.37C390.813 763.525 390.669 764.536 390.813 765.836C390.957 766.992 390.957 768.147 390.957 769.447C390.957 770.892 391.391 772.192 392.257 773.347C392.691 773.925 393.269 774.647 393.702 775.225C391.535 775.081 391.246 775.37 390.669 777.103C390.524 777.681 390.235 778.258 390.38 778.836C390.669 780.714 390.957 782.592 391.391 784.614C391.535 785.192 392.835 785.625 393.413 785.192C394.135 784.47 394.857 783.747 394.713 782.736C394.713 781.436 394.713 779.992 394.857 778.692C395.002 777.536 394.424 776.381 393.702 775.514C394.713 775.803 395.58 775.514 396.446 774.936C397.168 774.503 397.313 774.792 397.457 775.659C397.602 776.236 397.891 776.814 397.891 777.392C397.746 779.992 397.313 782.447 397.457 785.047C397.602 787.647 397.313 790.103 396.88 792.558C396.735 793.425 396.735 794.147 397.168 794.869C398.613 797.181 398.035 799.347 397.024 801.658C396.88 802.092 396.591 802.236 396.157 802.092C396.013 801.947 395.724 801.947 395.724 801.803C395.435 801.081 395.291 800.358 395.002 799.78C393.269 799.78 391.824 800.647 391.535 802.236C391.102 804.258 389.946 805.847 389.224 807.58C389.08 807.869 389.369 808.303 389.657 808.592C389.946 808.88 390.38 809.025 390.669 808.88C391.246 808.736 391.68 808.014 392.113 808.014C393.269 808.014 394.424 808.303 395.58 808.592C396.157 808.736 396.735 809.747 396.591 810.469C396.302 811.914 395.869 813.503 396.157 814.947H396.302C396.302 815.091 396.302 815.091 396.446 815.236C396.591 815.236 396.735 815.38 396.735 815.38C396.735 815.669 396.591 815.525 396.446 815.236C396.302 815.236 396.302 815.236 396.157 815.091V814.947C395.002 815.091 393.991 815.38 393.124 816.103C392.546 816.68 392.113 817.258 392.257 818.125C392.402 818.847 392.546 819.569 392.835 820.291C392.98 820.869 393.702 821.158 393.702 821.736C393.846 822.458 393.557 823.325 394.135 823.902C394.28 824.191 394.569 824.336 394.857 824.48L395.146 824.336L395.002 824.625C395.002 824.625 394.857 824.625 394.857 824.48C394.857 825.058 394.857 825.636 394.713 826.069C394.424 827.802 394.424 827.802 395.869 828.669C396.735 829.247 397.602 829.825 398.468 830.402V830.547C398.468 830.547 398.468 830.547 398.613 830.547C399.335 831.847 399.335 831.991 398.613 832.858H398.468V833.002L398.613 832.858C398.613 834.736 399.335 836.613 398.757 838.636C398.468 839.502 399.191 840.08 400.057 840.08C400.924 840.08 401.357 839.647 401.502 838.636C401.646 837.191 401.502 835.747 402.224 834.302C402.224 834.302 402.224 834.302 402.224 834.158L402.08 833.869L402.368 834.013C402.368 834.158 402.368 834.158 402.224 834.302C402.802 834.88 403.091 835.458 403.091 836.325C403.091 837.191 403.38 837.913 403.957 838.491C404.535 839.213 404.824 839.791 404.246 840.513C403.813 841.091 403.235 841.813 402.368 841.813C401.935 841.813 401.502 841.669 401.213 841.813C400.924 841.958 400.491 842.247 400.346 842.536C400.202 842.969 400.346 843.258 400.78 843.402C401.357 843.547 401.935 843.836 402.513 843.836C404.391 843.98 404.968 845.569 405.691 846.869C405.257 848.024 405.835 848.747 406.702 849.324C408.002 850.191 409.157 851.058 410.313 851.924C410.457 851.924 410.457 851.924 410.602 851.924C410.602 852.069 410.746 852.069 410.746 852.213C411.035 852.358 411.324 852.647 411.468 852.936C411.613 852.936 411.613 853.08 411.757 853.08L411.902 853.369L411.613 853.224C411.613 853.08 411.468 853.08 411.468 852.936C411.035 852.791 410.891 852.502 410.746 852.213C410.602 852.213 410.602 852.069 410.457 852.069L410.313 851.924C408.579 852.069 406.991 851.924 405.546 850.913C405.257 850.769 404.824 850.624 404.391 850.624C404.246 850.624 403.957 850.913 403.957 850.913C403.957 851.347 404.102 851.78 404.246 851.924C406.702 853.658 409.157 855.102 411.035 857.413C411.757 858.28 413.057 858.713 414.068 859.002C414.791 859.291 415.513 859.002 416.379 859.002C416.524 858.569 416.813 858.135 416.957 857.702C416.957 857.558 417.246 857.413 417.391 857.413C417.824 857.413 417.824 857.702 417.679 858.135C417.535 858.424 417.679 858.713 417.679 859.002C417.968 859.147 418.402 859.291 418.69 859.291C419.99 859.58 420.857 860.158 420.568 861.602C420.424 862.035 420.713 862.324 421.146 862.469C422.59 862.758 423.457 863.769 424.035 865.069C424.324 865.791 425.19 865.935 426.057 865.935C426.779 865.069 427.213 864.058 428.224 863.48C428.657 863.335 429.09 863.335 429.235 863.769C429.379 864.058 429.379 864.491 429.379 864.924C429.379 865.647 429.235 866.513 429.957 867.091C430.535 867.524 431.401 867.813 432.124 867.958C432.701 868.102 433.279 867.813 433.857 867.813C434.579 867.813 435.446 867.958 436.168 867.958C437.468 868.102 437.468 867.958 437.035 866.224H436.89C436.89 866.08 436.89 866.08 436.89 865.935C436.746 865.935 436.746 865.791 436.601 865.791C436.746 865.646 436.746 865.647 436.89 865.935L437.035 866.08C437.035 866.08 437.035 866.08 437.035 866.224C438.046 865.935 439.201 865.647 440.213 865.358C441.079 865.069 441.513 864.491 441.657 863.624C441.657 863.191 442.09 863.047 442.668 863.191C443.39 863.335 444.401 863.769 444.979 863.48C446.279 862.758 447.435 861.747 448.735 860.88C448.735 860.88 448.735 860.447 448.59 860.302C448.012 859.58 447.146 860.013 446.424 859.724C443.968 858.713 441.368 857.558 438.912 856.402C438.624 856.258 438.19 855.969 437.901 855.68C436.746 854.38 435.157 853.513 434.146 852.069C433.568 851.202 433.279 850.48 432.99 849.469C432.557 846.869 431.113 845.858 428.513 845.713C427.79 845.713 427.068 845.713 426.49 845.713C426.49 845.713 426.49 845.858 426.346 845.858C426.202 845.858 426.202 845.858 426.057 846.002C425.913 846.58 425.913 847.158 425.624 847.302C423.602 848.313 423.746 850.047 423.457 851.78C423.457 851.924 423.457 852.213 423.313 852.358C423.313 852.502 423.024 852.647 422.879 852.647C422.735 852.647 422.446 852.358 422.446 852.213C422.446 851.491 422.302 850.624 422.446 849.902C422.735 847.88 423.89 846.436 425.913 846.002C425.913 845.858 425.913 845.858 425.913 845.713C426.057 845.713 426.057 845.713 426.202 845.713C426.635 844.702 427.213 843.691 428.657 844.124C428.802 844.124 429.09 844.269 429.235 844.269C429.524 844.125 430.101 843.98 430.246 843.836C430.39 843.547 430.39 843.113 430.246 842.825C429.379 841.525 428.224 840.369 427.502 838.925C426.779 837.48 426.49 835.891 426.057 834.447C425.479 832.858 425.913 831.269 426.924 829.969C427.502 829.391 427.935 828.814 428.513 828.38C430.102 827.225 430.824 825.636 430.535 823.758C430.39 822.025 430.968 820.725 432.124 819.425C433.424 818.125 434.435 816.68 435.59 815.38C436.168 814.514 436.457 813.647 436.313 812.636C436.168 812.058 436.168 811.48 436.024 810.903C435.735 809.314 435.013 807.869 432.99 807.869C431.979 807.869 431.113 807.436 430.246 806.714C429.379 805.992 428.368 805.269 427.502 804.547C425.624 802.814 425.479 800.792 426.924 798.769C427.502 798.047 428.224 797.181 429.09 796.747C430.246 796.025 431.546 795.592 432.846 795.014C433.135 794.869 433.568 794.581 433.713 794.292C433.857 792.558 435.301 791.114 434.435 789.236C434.146 788.658 434.146 788.081 434.146 787.503C434.001 785.914 434.29 784.47 435.59 783.17C436.313 782.447 437.035 781.436 437.613 780.57L437.468 780.425C437.035 780.425 436.457 780.425 436.024 780.281C435.59 780.136 435.735 779.703 436.024 779.414C436.168 779.27 436.457 779.27 436.601 779.27C436.89 779.703 437.179 779.992 437.468 780.425C437.613 780.425 437.613 780.425 437.757 780.425L437.613 780.57C438.046 780.57 438.335 780.714 438.768 780.714C440.213 780.57 441.079 779.703 440.935 778.403C440.79 777.392 440.501 776.525 440.213 775.514C440.068 775.081 439.201 774.647 438.624 774.936C438.19 775.081 437.901 775.37 437.613 775.514C435.735 776.381 434.001 775.514 433.424 773.636C433.135 772.481 432.846 771.325 432.701 770.17C432.557 769.736 432.413 769.447 432.413 769.014C432.268 768.292 433.279 767.57 434.001 767.714C435.157 768.148 436.313 768.436 437.324 769.014C438.768 769.881 440.357 770.025 441.946 769.736C443.535 769.447 445.557 767.714 445.412 766.125C445.412 764.97 444.979 763.814 444.979 762.659C444.979 761.359 445.412 759.914 445.557 758.614C445.557 758.47 445.412 758.181 445.412 758.037C445.268 757.603 445.124 757.314 445.124 756.881C444.835 755.581 445.412 754.859 446.568 755.148C451.046 756.159 455.235 755.725 459.423 753.992C460.579 753.559 461.734 753.27 462.746 752.692C464.623 751.825 466.212 750.814 466.646 748.503C466.934 747.203 467.801 746.048 468.234 744.748C468.523 744.026 468.668 743.303 468.957 742.437C469.101 741.57 468.668 740.414 467.801 739.981C467.223 739.692 466.79 739.548 466.212 739.114C465.634 738.826 465.49 738.248 465.49 737.526C465.49 736.948 465.634 736.37 465.779 735.792C466.357 734.203 465.634 733.192 464.623 732.181C463.323 731.026 461.734 730.448 460.579 729.148C460.434 729.148 460.435 729.148 460.29 729.148C460.29 729.004 460.29 729.004 460.29 728.859C460.146 728.715 460.146 728.715 460.001 728.57C460.146 728.57 460.29 728.715 460.29 728.715V728.859L460.435 729.003L460.579 729.148C463.468 729.437 466.357 729.437 468.812 731.026C469.246 731.315 469.968 731.315 470.546 731.315C471.701 731.459 472.857 731.459 474.157 731.459C477.19 731.459 479.501 730.448 481.09 727.704C481.957 726.404 482.245 724.67 483.545 723.659C484.99 722.504 485.712 720.915 486.145 719.181C486.579 717.304 487.156 715.281 487.59 713.404L487.734 713.548V713.404C487.734 713.404 487.734 713.404 487.59 713.404C487.156 711.815 487.301 710.948 488.456 710.226C488.89 709.937 489.468 709.937 489.901 709.793C490.19 708.348 490.768 706.904 491.634 705.604C491.779 705.315 492.212 705.026 492.645 705.026C492.934 705.026 493.223 705.459 493.223 705.748C493.367 706.326 493.512 706.759 493.656 707.337C494.812 707.193 495.245 706.326 495.679 705.459C497.267 701.559 499.001 697.804 501.456 694.482C503.045 692.171 504.056 689.571 502.467 686.682C502.323 686.393 502.323 685.96 502.179 685.526C501.601 681.915 502.323 678.882 505.212 676.426C506.367 675.415 507.667 674.26 508.678 673.249C510.556 671.371 512.723 670.071 515.178 669.204C516.478 668.771 517.634 668.193 518.645 667.182C519.512 666.315 520.523 665.738 520.812 664.438C520.812 664.149 521.534 663.86 521.823 664.004C522.978 664.293 524.134 664.004 525.289 663.86C526.445 663.715 527.6 664.004 528.756 664.004C530.923 664.004 532.945 663.571 534.534 661.549C535.256 660.682 536.556 660.249 537.423 659.671C538 659.238 538.434 658.515 538.289 657.649C538 656.638 538.145 655.627 538.723 654.76C539.878 652.738 540.889 650.571 542.189 648.549C543.2 646.96 543.778 645.371 543.489 643.493C543.345 642.049 543.345 640.604 544.067 639.449C545.656 637.138 545.945 634.682 546.089 632.082C546.234 628.905 546.234 625.727 546.234 622.549C546.234 620.382 546.089 618.216 546.089 616.049C546.089 615.038 546.378 614.027 547.389 613.594C550.134 612.438 551.722 610.271 552.589 607.383C552.734 606.805 553.167 606.371 553.311 605.794C554.034 604.205 555.045 602.76 556.489 601.46C558.078 600.016 559.667 598.427 561.111 596.838C562.556 595.249 563.856 593.372 564.578 591.349C565.3 589.327 566.022 584.705 565.445 583.116C565.156 580.805 564.289 578.205 563.278 575.605Z" fill="#FAFAFA"/>
</svg>
