<svg width="19" height="15" viewBox="0 0 19 15" fill="none" xmlns="http://www.w3.org/2000/svg">
<path fill-rule="evenodd" clip-rule="evenodd" d="M3.08399 5.77542C3.08399 5.77542 3.08399 5.92664 3.08399 5.77542C2.78155 6.53153 2.63033 7.43886 2.32788 8.19497C1.87422 9.25352 2.02546 10.1609 2.63034 11.0682C3.23523 11.9755 3.84009 12.7316 4.44498 13.4877C4.89865 14.2439 5.65475 14.5463 6.56208 14.6975C7.31819 14.8487 8.22554 15 8.98165 15C10.4939 15 11.8549 14.5463 12.7622 13.3365C13.6695 12.4292 14.2744 11.3706 14.5769 10.1609C14.7281 9.25352 15.333 8.79986 16.0891 8.34619C16.9964 7.89252 17.9037 7.28763 18.6599 6.83397C19.1135 6.53152 18.9623 6.07786 18.6599 5.77542C18.3574 5.47297 18.2062 5.0193 17.9037 4.86808C15.333 3.96075 12.7622 3.50708 10.0402 3.35586C7.92311 3.20464 5.95723 3.65831 4.14257 4.71686L4.29375 4.56564L4.14257 4.71686C3.99134 4.86808 3.84009 5.0193 3.53764 5.32175C3.68886 5.17052 3.84012 5.01931 4.14257 4.71686C3.99134 3.50708 3.99133 2.2973 3.8401 1.08753C3.68888 0.331417 2.63034 -0.122248 1.87423 0.0289745C0.966901 0.180197 0.513225 0.785085 0.210781 1.5412C-0.0916632 2.44853 -0.0916539 3.50708 0.362013 4.41442C1.11812 5.47297 2.17666 5.6242 3.08399 5.77542Z" fill="#FAFAFA"/>
</svg>
