<svg width="206" height="266" viewBox="0 0 206 266" fill="none" xmlns="http://www.w3.org/2000/svg">
<path fill-rule="evenodd" clip-rule="evenodd" d="M139.334 166.271L139.044 166.126L139.334 166.271L139.478 166.56L139.334 166.271ZM137.454 176.106L137.309 175.672H137.598L137.454 176.106ZM121.978 16.8667C121.399 16.722 121.544 16.2881 121.544 15.9989L121.399 15.8542C121.399 15.565 121.255 15.4203 121.11 15.2757C121.255 15.4203 121.399 15.565 121.544 15.7096C121.544 15.8542 121.544 15.8542 121.544 15.9989C121.689 16.1435 121.978 16.2881 122.123 16.5774C122.123 16.5774 121.978 16.8667 121.978 16.8667ZM119.953 14.6972C120.098 14.6972 119.664 14.1187 120.098 14.5526C120.242 14.6972 120.387 14.8418 120.532 14.9865C120.387 14.8418 120.242 14.6972 119.953 14.6972ZM89.1467 218.627C89.002 218.483 88.8574 218.483 88.7128 218.338C88.8574 218.338 89.002 218.194 89.1467 218.194C89.2913 218.194 89.4359 218.338 89.5805 218.483C89.4359 218.483 89.2913 218.627 89.1467 218.627ZM178.674 66.4752C178.818 66.186 179.252 66.0413 179.541 65.8967C179.686 65.8967 179.831 66.0413 179.975 66.186C180.409 66.4752 180.409 66.9091 180.12 67.1984C179.831 67.4877 179.541 67.6323 179.252 67.9216C178.673 67.9216 178.384 67.1984 178.674 66.4752ZM183.012 64.7397C183.157 64.595 183.302 64.595 183.446 64.595C183.591 64.7397 183.736 64.7397 183.88 64.8843C184.025 65.3182 183.88 65.4628 183.302 65.4628C183.157 65.4628 182.868 65.3182 182.868 65.1736C182.868 65.0289 182.868 64.8843 183.012 64.7397ZM155.966 185.073C156.111 184.928 156.111 184.35 156.111 183.916C156.111 183.771 155.822 183.627 155.677 183.627C153.363 182.904 150.904 183.337 148.735 182.036C146.999 180.879 145.408 181.168 143.673 181.746C143.383 181.891 142.95 181.746 142.516 181.602C142.371 181.602 142.226 181.313 142.082 181.168C141.793 180.734 141.793 180.3 142.226 180.156C143.094 179.722 144.107 179.577 144.974 179.288C146.131 178.854 146.855 177.697 146.71 176.395C146.565 175.238 146.276 174.081 146.131 172.924C146.131 172.49 146.855 171.767 147.289 171.767C147.578 171.912 148.156 172.056 148.156 172.345C149.024 174.515 149.603 176.829 151.049 178.854C152.061 180.156 153.218 181.168 155.099 181.023C155.822 180.879 156.69 181.023 157.413 181.023C159.582 181.023 159.871 180.879 160.016 178.854C160.161 177.118 160.016 175.238 160.161 173.502C160.45 171.622 158.57 170.321 159.148 168.44C159.293 168.006 158.714 167.428 158.425 166.849C157.413 164.68 155.822 162.944 153.797 161.498C152.929 160.92 152.206 160.341 151.483 159.618C151.049 159.184 150.615 158.75 150.47 158.172C150.181 156.87 149.892 155.424 149.747 154.122C149.747 153.833 150.036 153.399 150.326 153.254C150.615 153.109 151.194 153.254 151.338 153.399C151.627 153.833 151.772 154.411 151.772 154.99C151.772 157.159 152.64 158.75 154.52 159.907C155.677 160.63 156.545 161.787 157.991 162.221C158.57 162.366 159.438 162.077 159.438 161.498C159.438 160.486 159.582 159.618 160.305 158.75C160.016 157.738 160.595 157.015 161.028 156.147C161.462 155.424 161.173 154.411 160.595 153.977C159.293 153.109 157.991 152.242 156.69 151.229C156.4 150.94 156.256 150.361 156.256 149.928C156.256 149.928 156.111 149.928 156.111 149.783L155.966 149.638C154.665 149.494 153.652 148.915 152.495 148.192C152.495 148.192 152.495 147.903 152.495 147.758C152.64 147.613 152.784 147.469 152.929 147.469C153.363 147.469 153.797 147.469 154.086 147.613C154.665 148.192 155.243 148.915 155.822 149.638C155.966 149.638 155.966 149.638 156.111 149.638C156.111 149.783 156.111 149.783 156.111 149.928C156.545 150.217 157.123 150.361 157.557 150.651C158.859 151.374 160.161 151.663 161.462 150.651C162.764 149.638 164.355 149.349 165.946 149.06C166.38 148.915 166.958 148.481 167.248 147.903C167.682 147.18 167.826 146.456 167.971 145.589C168.115 144.721 167.826 143.853 166.958 143.708C165.367 143.419 164.066 142.551 162.619 141.828C162.475 141.828 162.475 141.394 162.475 141.25C162.619 140.816 163.053 140.671 163.487 140.816C165.367 141.828 167.103 142.407 168.983 140.671C169.272 140.382 170.14 140.527 170.719 140.382C172.744 140.237 173.756 137.055 172.31 135.754C171.442 134.886 170.719 134.163 170.574 132.861C170.574 132.427 169.996 131.849 169.562 131.559C169.128 131.27 168.839 131.125 169.128 130.547C169.272 130.113 169.706 130.113 170.14 130.113C170.719 130.258 171.297 130.258 171.876 130.113C172.744 129.824 172.888 128.956 173.033 128.233C173.178 126.787 173.322 125.485 173.322 124.039C173.322 123.026 173.033 122.014 172.165 121.435C171.008 120.423 171.876 119.989 172.454 119.266C172.888 118.832 172.599 117.964 172.165 117.675C171.297 116.952 169.851 117.241 169.128 116.228C168.839 116.228 168.405 116.084 168.115 116.084C167.248 115.795 166.958 115.216 166.958 114.348C166.958 113.625 167.248 113.047 167.826 112.613C168.26 113.047 168.694 113.48 169.128 113.914C169.128 113.914 169.128 113.914 169.272 114.059C169.272 113.914 169.272 113.914 169.272 113.77C168.839 113.336 168.405 112.902 167.971 112.468L167.826 112.613C168.839 111.6 169.706 110.588 170.719 109.575C171.153 109.141 172.454 109.142 173.033 109.431C173.178 109.575 173.467 109.575 173.467 109.72C174.624 111.022 176.215 112.034 175.926 114.204C175.636 115.939 176.07 117.675 176.793 119.41C176.793 119.41 177.227 119.555 177.227 119.41C177.372 118.832 177.661 118.253 177.516 117.675C177.227 115.361 177.516 113.336 178.818 111.456C179.831 110.009 179.975 108.129 179.975 106.249C179.975 105.381 179.107 104.224 178.24 103.935C177.516 103.79 176.649 103.79 175.926 103.501C175.347 103.356 174.913 102.922 174.479 102.488C174.335 102.344 174.19 102.055 174.335 101.91C174.479 101.621 174.768 101.187 175.058 101.187C177.372 100.753 177.516 100.464 176.649 98.8727C176.215 98.0049 175.636 97.1371 174.768 96.5586C174.19 96.1247 173.611 95.4015 173.178 94.823C173.178 94.6784 173.178 94.3891 173.322 94.3891C173.467 94.2445 173.756 94.0998 173.756 94.0998C175.492 94.823 176.359 94.0998 176.938 92.5089C177.516 90.4841 178.818 88.4592 178.818 86.2897C178.963 80.9384 180.988 76.3102 184.459 72.1159C185.471 70.9588 186.339 69.6571 187.351 68.3554C187.785 67.7769 187.641 67.343 187.496 66.6199C187.207 65.1736 187.207 65.0289 188.508 64.7397C190.244 64.4504 191.256 63.2933 192.124 61.9917C192.414 61.5578 192.124 60.1115 191.546 59.9668C190.967 59.6776 190.389 59.5329 189.81 59.3883C189.087 59.2437 188.219 59.2437 187.496 59.099C187.351 59.099 187.207 58.8098 187.207 58.8098C187.351 58.5205 187.496 58.0866 187.785 57.942C188.798 57.5081 189.666 57.7974 190.678 58.2312C192.269 58.8098 193.86 58.6651 195.306 57.7974C195.885 57.5081 196.463 57.3635 196.897 56.9296C197.476 56.6403 197.62 55.9171 197.476 55.3386C197.476 54.9047 197.331 54.6155 197.186 54.1816C197.186 53.4584 197.476 52.8799 198.199 53.0245C199.645 53.1691 200.947 53.0245 201.959 51.8675C202.393 51.2889 203.116 50.7104 203.695 50.2765C206.587 48.107 206.732 46.8054 204.273 43.9127C203.984 43.6235 203.695 43.3342 203.55 43.0449C201.236 40.2969 197.909 39.1399 194.583 39.1399C192.703 39.1399 190.678 39.8631 188.798 40.2969C188.508 40.4416 188.219 40.8755 188.075 41.1647C187.785 41.7433 187.785 42.3218 187.496 42.9003C187.207 43.6235 186.484 43.9127 185.471 43.7681C184.603 43.6235 184.025 43.3342 183.446 42.7557C182.868 42.3218 182.289 42.3218 182 43.0449C180.12 46.3715 176.938 47.9624 173.467 49.1195C171.731 49.698 169.706 50.1319 168.26 51.2889C168.26 51.4336 168.26 51.4336 168.26 51.5782C167.826 52.0121 167.392 52.3014 166.958 52.7353C166.524 53.1691 166.091 53.4584 165.657 53.8923L165.367 54.1816L165.657 53.8923C166.091 53.4584 166.38 53.0245 166.814 52.5906C167.248 52.1567 167.682 51.8675 168.115 51.4336C168.115 51.4336 168.26 51.4336 168.26 51.2889C168.405 50.7104 168.405 50.1319 168.694 49.8426C169.996 48.3963 171.297 46.8054 173.322 46.2268C175.492 45.5037 176.938 43.9127 177.806 41.5986C177.95 41.0201 178.24 40.4416 178.529 40.0077C180.409 35.3795 178.095 34.3671 174.624 34.801C174.479 34.801 174.19 34.801 174.045 34.9456C173.756 35.0902 173.322 35.3795 173.178 35.6687C172.744 36.5365 172.599 37.549 172.165 38.4167C171.731 39.5738 170.574 40.2969 169.417 40.2969C169.272 40.2969 168.983 40.4416 168.839 40.2969C166.669 39.4292 164.644 40.0077 162.475 40.1523C162.33 40.1523 162.186 39.8631 162.186 39.7184C162.186 39.5738 162.186 39.2845 162.33 39.1399C163.487 38.706 164.644 38.4167 165.657 37.9828C166.669 37.5489 167.248 36.8258 167.537 35.8134C167.826 35.0902 167.248 33.9332 166.669 33.7885C165.367 33.4993 163.921 33.21 162.619 32.9207C156.69 31.7637 154.52 31.9083 148.735 34.2224C148.012 34.5117 147.289 34.9456 146.565 35.2348C145.408 35.6687 144.251 35.958 143.094 36.2473C142.95 36.2473 142.516 35.8134 142.371 35.5241C142.371 35.3795 142.371 35.0902 142.516 35.0902C143.239 34.6563 143.817 34.2224 144.54 33.9332C146.565 33.0654 148.735 32.4869 150.615 31.6191C154.231 29.8835 157.847 29.5942 161.607 30.7513C164.21 31.4744 166.669 31.4744 169.272 31.3298C171.587 31.1852 174.045 30.6066 176.359 30.462C179.107 30.3174 181.132 28.5818 183.157 27.1355C184.17 26.4123 184.314 24.0982 183.302 23.3751C181.855 22.218 180.554 21.2056 178.963 20.1932C176.504 18.6022 174.045 17.7344 171.153 19.0361C170.863 19.1808 170.43 19.1808 169.996 19.0361C169.851 19.0361 169.562 18.8915 169.562 18.7469C169.562 18.6022 169.706 18.4576 169.851 18.313C170.43 18.0237 171.008 17.8791 171.442 17.5898C172.888 16.722 173.322 14.9865 172.31 13.3955C171.876 12.817 170.863 12.0938 170.285 12.3831C166.524 13.6848 162.909 13.5401 159.293 12.0938C158.28 11.6599 156.979 11.6599 155.822 11.8046C154.375 11.9492 153.074 12.2385 151.772 12.5277C149.892 12.9616 148.012 13.3955 145.987 12.9616C144.54 12.6723 143.239 13.1062 141.937 13.8294C141.503 14.1187 140.78 14.1187 140.202 14.1187C140.057 14.1187 139.768 13.974 139.768 13.8294C139.768 13.6848 139.768 13.3955 139.768 13.3955C140.491 12.9616 141.069 12.5277 141.792 12.3831C143.383 12.2385 145.119 12.5277 146.565 12.0938C149.458 11.0814 152.495 11.226 155.388 10.9368C157.702 10.7921 160.161 10.7921 162.475 11.5153C164.789 12.2385 166.814 11.3707 168.694 10.2136C168.983 10.069 168.983 9.34583 168.983 9.2012C167.826 7.03172 165.657 5.58541 163.343 5.00688C159.004 3.99446 154.954 2.40352 150.904 1.10183C149.024 0.523309 146.999 0.378677 145.119 0.0894139C142.95 -0.34448 140.925 0.957203 138.611 0.66794C136.875 1.53573 136.007 3.12667 134.995 4.57299C134.85 4.71762 134.85 4.71762 134.706 4.86225H134.561V5.00688L134.706 4.86225C134.706 5.29615 134.561 5.58541 134.561 6.0193H134.706L134.85 6.4532L134.416 6.16393V6.0193C132.97 6.16393 131.813 5.29615 130.8 4.57299C130.367 4.28373 130.077 4.28373 129.788 4.86225C129.643 5.00688 129.643 5.29615 129.643 5.44078C129.788 6.0193 129.933 6.59783 130.077 7.17635C130.222 7.61025 130.222 8.04414 129.788 8.18877C129.499 8.33341 128.92 8.47804 128.631 8.33341C126.895 7.75488 125.305 7.03172 124.003 5.87467C122.99 5.00688 121.833 5.15151 120.676 5.87467C119.664 6.4532 118.651 7.17635 117.35 7.17635C116.627 7.17635 116.193 7.75488 116.193 8.33341C116.048 9.77972 116.048 11.0814 115.903 12.5277C115.903 13.3955 115.614 13.974 114.746 14.4079C114.168 14.8418 113.734 15.565 113.155 15.9989C112.866 16.1435 112.432 16.2881 112.143 16.2881C110.841 15.7096 109.684 14.9865 108.238 14.9865C107.804 14.9865 106.936 15.565 106.936 15.9989C106.936 16.5774 106.792 17.1559 106.792 17.7344C107.081 19.9039 107.515 22.0734 108.093 24.0982C108.817 26.8462 108.817 29.5942 110.118 32.1976C110.407 32.6315 109.829 33.21 109.106 33.21C108.238 33.21 107.081 33.3546 106.792 32.053C106.502 31.0405 105.779 30.3174 104.767 30.0281C104.333 29.8835 104.622 29.7389 105.056 29.305C106.069 28.4372 106.213 27.5694 105.345 26.9909C104.333 26.2677 103.465 25.6892 103.031 24.3875C102.453 22.5073 101.585 20.7717 100.717 18.8915C100.139 17.7344 99.4155 17.0113 98.2584 16.4328C97.246 15.9989 96.089 16.2881 95.7997 17.1559C95.6551 17.5898 95.5104 17.8791 95.3658 18.313C94.498 20.6271 94.6426 22.9412 94.7873 25.3999C94.7873 26.4123 94.6426 27.4248 94.2088 28.2925C93.6302 29.305 92.4732 28.7264 91.4608 28.5818C91.3161 28.5818 91.0269 28.5818 90.8822 28.5818C90.593 28.7264 90.3037 29.0157 89.8698 29.1603C89.4359 29.4496 89.002 28.8711 88.7128 28.2925C88.2789 27.1355 89.8698 26.557 89.4359 25.5445C88.7128 23.6643 89.1466 21.6395 89.002 19.6147C89.002 19.0361 88.7128 18.4576 88.4235 17.8791C88.4235 17.7344 88.1343 17.4452 87.9896 17.4452C87.7004 17.5898 87.1218 17.5898 86.9772 17.8791C86.254 18.6022 86.3987 19.7593 86.254 20.6271C86.254 21.6395 86.5433 22.6519 86.254 23.5197C85.9648 24.3875 85.097 25.1106 84.5184 25.8338C84.3738 25.9784 84.3738 26.1231 84.2292 26.2677C84.2292 26.2677 84.2292 26.4123 84.3738 26.4123C83.9399 26.7016 83.506 27.1355 83.0721 27.4248C82.6382 27.8586 82.0597 28.2925 81.6258 28.7264C81.6258 28.8711 81.4812 28.8711 81.4812 29.0157C81.4812 29.1603 81.4812 29.4496 81.4812 29.5942C81.1919 29.305 81.3366 29.1603 81.4812 29.0157C81.4812 28.8711 81.4812 28.7264 81.4812 28.5818C81.9151 28.1479 82.4936 27.714 82.9275 27.2801C83.3614 26.9909 83.7953 26.557 84.2292 26.2677C83.9399 25.6892 83.6506 24.966 83.7953 24.2429C84.2292 22.9412 84.8077 21.6395 85.2416 20.3378C85.5309 19.0361 85.8201 17.5898 85.5309 16.2881C85.3862 15.7096 84.3738 14.8418 83.7953 14.9865C82.7829 15.2757 81.7704 15.2757 80.9026 15.7096C79.0224 16.5774 77.1422 16.722 75.1174 17.0113C72.3694 17.4452 69.6214 17.5898 66.8734 17.8791C65.861 18.0237 65.1378 18.7469 65.1378 19.9039C65.1378 20.4824 65.2825 21.061 65.1378 21.6395C65.1378 21.7841 64.9932 22.0734 64.8486 22.0734C64.704 22.0734 64.4147 22.0734 64.27 21.9288C63.8361 21.3502 63.4022 20.4824 62.8237 20.1932C61.9559 19.6147 60.9435 20.1932 59.9311 20.6271C58.9187 21.061 58.3402 21.7841 58.0509 22.7965C57.9063 23.3751 57.7616 23.9536 57.7616 24.5321C57.617 25.6892 57.7616 26.9909 57.1831 28.0033C56.7492 29.0157 55.5921 29.7389 54.869 30.6066C54.5797 30.8959 54.4351 31.3298 54.1458 31.6191C53.5673 32.1976 52.6995 32.4869 52.121 31.9083C50.8193 30.7513 49.5176 30.462 47.7821 30.8959C45.7572 31.3298 44.0216 31.9083 42.72 33.6439C41.4183 35.2348 39.5381 35.958 37.5132 36.2473C37.224 36.6812 36.7901 36.9704 36.3562 37.2597C34.3313 38.5614 33.1743 40.5862 31.8726 42.611C31.0048 44.0574 31.4387 45.359 32.885 45.7929C34.3313 46.2268 35.7777 46.6607 37.224 47.0946C37.224 47.0946 37.224 47.0946 37.224 46.95L37.5132 46.6607L37.3686 46.95C37.5133 47.2393 37.5132 47.6732 37.6579 47.9624C37.9471 48.5409 37.8025 49.1195 37.3686 49.5534C36.5008 50.1319 35.7777 50.7104 35.633 51.7228C35.4884 52.446 35.0545 53.1691 34.6206 53.7477C33.4635 55.0494 32.3065 56.351 31.0048 57.6527C30.4263 58.2312 29.5585 58.5205 28.8353 58.2312C26.3766 56.9296 23.7733 57.3635 21.3145 57.3635C20.3021 57.3635 19.2897 57.6527 18.5665 58.2312C17.4095 59.099 16.1078 59.5329 14.8061 59.6776C12.0581 60.1115 9.45473 60.69 6.5621 61.1239C4.39263 61.4131 2.80169 63.0041 1.64464 65.0289C0.921481 66.3306 0.632227 67.6323 1.78928 68.7893C3.23559 70.3803 3.52484 72.5498 5.11578 74.1407C5.26042 73.9961 5.40507 73.9961 5.5497 73.9961C5.69434 73.8514 5.83896 73.7068 6.12822 73.5622C6.12822 73.9961 5.83897 73.9961 5.5497 73.9961C5.40507 73.9961 5.40506 74.1407 5.26042 74.2853L5.11578 74.1407C5.54968 75.2978 5.98357 76.3102 6.5621 77.3226C7.14062 78.335 8.15305 79.0582 9.59937 78.9135C10.6118 78.7689 11.4796 78.0457 12.492 78.4796C13.649 78.9135 14.8061 78.7689 15.9631 78.4796C16.2524 78.4796 16.6863 78.6243 16.9756 78.7689C17.2648 79.0582 17.5541 79.4921 17.5541 79.7813C17.5541 80.0706 17.1202 80.6491 16.8309 80.6491C16.2524 80.7937 15.6739 80.7937 15.0953 80.6491C12.7812 79.7813 10.4672 79.4921 8.15305 80.7937C7.14063 81.2276 6.27284 81.083 5.26042 80.9384C3.95874 80.7938 2.94633 80.9384 1.78928 81.5169C0.198333 82.3847 -0.669482 84.8434 0.632201 86.0005C1.93388 87.1575 2.80169 88.8931 4.53727 89.6163C5.26042 89.9055 5.26042 90.1948 4.39263 90.6287C3.66947 91.0626 2.94632 91.3518 2.3678 91.9304C2.07853 92.2196 1.64465 93.0874 1.78928 93.5213C2.65707 95.98 4.39263 98.0049 6.5621 99.4512C8.15304 100.464 8.73159 100.319 9.74401 98.5834C10.3225 97.571 10.4671 97.571 11.6242 98.0049C12.3474 98.2941 13.0705 98.5834 13.5044 99.3066C13.6491 99.5958 14.2276 99.8851 14.5168 99.7405C16.9756 98.5834 19.7236 100.608 22.0377 98.8727C22.1823 98.728 22.4716 98.728 22.6162 98.728C24.9303 99.7405 27.389 100.753 29.4139 102.344C31.1495 103.646 32.885 104.947 34.6206 106.394C35.1991 106.827 35.7776 107.551 36.2115 108.129C36.5008 108.563 36.6455 109.286 36.5008 109.72C36.3562 110.732 36.0669 111.745 35.633 112.613C34.6206 114.348 35.1991 115.65 36.2115 116.952C36.6454 117.53 36.9347 118.398 37.0793 119.121C37.224 120.133 37.224 121.146 36.2115 121.724C35.7776 122.014 35.633 122.448 36.2115 122.592C36.7901 122.881 37.3686 123.026 37.9471 123.171C38.6703 123.46 38.8149 124.039 38.5257 124.617C38.381 124.906 38.0918 125.34 37.8025 125.629C37.0793 126.497 36.9347 127.22 37.8025 128.088C38.0918 128.377 38.0918 128.811 38.0918 129.245C37.9471 129.824 37.3686 130.258 37.3686 130.836C37.5133 131.559 38.0917 132.283 38.2364 133.006C38.5256 134.163 38.381 135.464 38.6703 136.477C39.1042 137.779 38.6703 138.791 38.0918 139.803C37.9471 140.093 38.0917 140.527 38.2364 140.816C38.381 141.105 38.8149 141.25 39.1042 141.684C39.8273 142.696 39.5381 143.419 38.381 143.564C37.5132 143.708 36.7901 143.853 36.2115 144.432C35.9223 144.721 36.0669 145.155 36.3562 145.444C36.6454 145.733 38.381 145.733 36.6455 146.601C35.1991 147.324 35.1991 148.771 35.0545 150.217C35.4884 150.361 35.7776 150.361 36.2115 150.506C36.2115 150.506 36.2115 150.506 36.3562 150.361L36.6455 150.217L36.5008 150.506C36.3562 150.506 36.3562 150.506 36.2115 150.506C35.7776 150.795 35.4884 151.229 35.0545 151.519C35.0545 151.519 35.0545 151.519 34.9099 151.374V151.519L35.0545 151.374C34.7652 152.965 34.1867 154.267 33.0297 155.424C32.4511 156.002 32.7404 157.448 33.3189 158.172C35.3438 160.486 37.224 160.63 39.2488 158.461C39.6827 158.027 39.9719 157.593 40.4058 157.159C40.9844 156.581 41.8522 156.581 42.5753 156.87C42.8646 157.015 43.1538 157.159 43.4431 157.448V157.593H43.5878V157.882C43.877 158.027 44.4556 158.172 44.6002 158.316C44.7448 159.039 44.0217 158.895 43.7324 159.184C43.1539 160.052 42.4307 160.92 41.8522 161.932C41.4183 162.51 41.5629 163.089 42.1414 163.378C42.5753 163.668 43.1539 163.812 43.7324 164.101C44.4555 164.535 44.7448 165.258 44.3109 166.126C44.1663 166.56 43.877 166.994 43.5878 167.573C43.5878 167.573 43.5878 167.717 43.7324 167.717C45.1787 167.717 45.9018 168.585 46.1911 170.031C46.1911 170.176 46.0465 170.465 45.9019 170.465C45.7572 170.465 45.4679 170.465 45.4679 170.465C44.8894 169.597 44.3109 168.585 43.877 167.717C43.7324 167.717 43.7324 167.717 43.5878 167.717C43.5878 167.717 43.5878 167.573 43.7324 167.573C42.1414 167.573 40.6951 166.994 39.2488 166.56C38.381 166.271 37.3686 165.982 36.3562 165.837C35.1991 165.692 34.0421 166.705 34.1867 168.006C34.1867 168.151 34.3313 168.44 34.3313 168.585C34.476 169.164 34.7652 169.887 34.6206 170.321C34.476 170.754 33.7528 170.899 33.1743 171.188C32.4511 171.478 31.8726 172.056 31.728 172.924C31.4387 174.081 31.1494 175.238 31.1494 176.395C31.1494 178.709 32.3065 180.445 34.0421 181.891C34.1867 182.036 34.3313 182.036 34.6206 182.18C36.7901 182.614 38.9596 182.325 40.8398 181.313C41.8522 180.879 42.2861 179.143 41.7076 178.275C41.4183 177.841 40.9844 177.408 40.5505 176.974C39.5381 176.25 39.3934 175.238 39.2488 174.081C39.2488 174.081 39.1042 174.081 39.1042 173.936L38.9595 173.502L39.2488 173.792C39.2488 173.936 39.2488 173.936 39.2488 174.081C41.8522 175.383 44.3109 176.829 47.2035 176.974C47.9267 176.974 48.2159 177.841 47.7821 178.275C47.3482 178.854 46.7696 179.288 46.3357 179.866H46.1911C46.1911 180.011 46.1911 180.011 46.1911 180.156L46.3357 180.011C46.0465 180.734 45.7572 181.457 45.3233 182.18C45.0341 182.759 45.1787 183.337 45.3233 183.916C45.6126 185.073 45.6126 185.073 44.4555 185.218C43.877 185.362 43.1539 185.362 43.0092 185.941C42.5753 188.544 41.2736 189.701 38.5257 189.267C37.6579 189.123 36.6455 189.557 35.7777 189.701C35.7777 190.858 36.0669 192.015 36.6455 193.028H36.7901L36.9347 193.317L36.6455 193.172V193.028C36.0669 192.883 35.633 192.883 35.0545 192.738C33.8975 192.594 33.8974 192.594 33.3189 193.606C33.0296 194.185 32.885 194.763 32.5958 195.197C31.8726 196.065 30.7155 196.788 30.4263 197.801C29.9924 198.813 29.8478 199.97 29.2692 200.982C28.8354 201.561 28.8354 202.429 28.6907 203.297C28.5461 204.02 28.8353 204.888 29.5585 205.321C29.9924 205.611 30.4263 205.9 30.7156 206.189C30.8602 206.189 31.0048 206.045 31.1494 206.045C31.2941 205.9 31.4387 205.755 31.5834 205.611C31.5834 205.611 31.8726 205.611 32.0172 205.755C31.728 205.9 31.4387 205.9 31.2941 206.045C31.1494 206.189 31.1494 206.189 31.0048 206.334L30.8602 206.189C29.9924 207.057 29.1246 207.78 28.4015 208.648C27.389 209.805 27.0998 211.107 28.1122 212.408C28.6907 213.276 29.2692 213.999 28.98 215.156C28.8353 215.879 29.1246 216.747 29.2692 217.47C30.2817 220.074 30.7155 222.822 30.4263 225.57C30.4263 226.004 30.4263 226.293 30.4263 226.727C30.4263 227.305 31.1494 227.884 31.728 227.739C33.0296 227.305 34.1867 227.016 35.4884 226.582C35.4884 226.438 35.633 226.438 35.633 226.293C35.7777 226.148 35.9223 226.148 36.0669 226.148C36.2115 226.004 36.3562 225.859 36.5008 225.714C36.5008 226.148 36.2115 226.148 36.0669 226.148C35.9223 226.293 35.9223 226.293 35.7777 226.438C35.633 226.438 35.633 226.438 35.4884 226.582C34.9099 227.739 33.8975 228.607 32.885 229.186C31.4387 230.053 31.2941 231.5 31.5834 232.657C32.0173 234.682 32.1619 236.706 33.4636 238.442L33.6082 238.297V238.587C33.6082 238.587 33.6082 238.442 33.4636 238.442C33.7528 238.876 34.0421 239.454 34.476 239.744C35.4884 240.467 35.633 241.19 35.1991 242.347C34.9099 242.926 34.7653 243.504 35.1991 244.083C36.3562 245.384 36.3562 246.975 36.9347 248.422C37.3686 249.434 37.224 250.302 36.9347 251.314C36.7901 251.603 36.7901 252.182 36.9347 252.471C37.6579 253.339 38.5257 254.207 39.2488 255.075C41.129 255.364 41.9968 256.376 41.8522 258.256C41.8522 258.401 42.5753 258.69 42.8646 258.69C44.0216 258.546 45.1787 258.256 46.3357 257.967C46.9143 257.823 47.4928 257.533 48.0713 257.389C49.2284 257.099 50.2408 257.533 50.2408 258.546C50.3854 260.137 50.8193 261.583 52.121 262.74C52.5549 263.029 52.6995 263.752 52.9888 264.186C53.4227 264.62 54.0012 265.199 54.4351 265.054C55.8814 264.91 57.0385 265.777 58.4848 265.777C59.3526 265.777 60.5096 265.199 60.9435 264.476C62.2452 262.306 62.2452 259.558 63.6915 257.533C63.8361 255.653 64.7039 254.062 65.861 252.761C66.7288 251.603 67.3073 250.446 67.5966 249C67.8858 247.843 68.1751 246.831 68.4644 245.674H68.3197C68.3197 245.529 68.1751 245.529 68.1751 245.384C67.8858 245.24 67.7412 245.24 67.4519 245.095C67.3073 245.095 67.1627 244.806 67.1627 244.806C67.3073 244.372 67.5966 244.372 67.8858 244.661C68.0304 244.95 68.1751 245.095 68.1751 245.384C68.3197 245.384 68.3197 245.384 68.4644 245.529C68.4644 245.529 68.4644 245.529 68.4644 245.674C69.4768 245.095 70.4892 244.517 70.9231 243.359C71.6462 241.19 72.9479 239.599 74.8282 238.297C76.7084 236.851 77.2869 234.682 76.2745 232.367C75.8406 231.355 76.4191 230.921 76.9976 230.487C77.2869 230.198 77.7208 230.053 78.01 229.909C78.4439 229.475 78.7332 228.896 78.4439 228.318C78.2993 227.884 78.1546 227.595 78.01 227.305C77.4315 225.859 77.4315 225.714 79.0225 225.57C80.1795 225.425 81.0473 225.136 81.4812 224.123C82.0597 222.677 83.0721 221.665 84.6631 221.954C86.8325 222.243 89.002 220.942 91.1715 221.52C91.8946 221.665 92.1839 221.231 92.7624 220.797C93.1963 220.363 93.6302 219.785 94.2088 219.785C97.246 219.495 99.994 218.483 102.163 216.313C102.453 216.024 102.887 216.169 103.321 216.024C105.056 215.446 106.792 214.289 107.37 212.842C108.527 210.383 110.697 208.937 111.998 206.768C113.3 204.454 116.337 203.875 117.784 201.706C119.085 200.982 120.532 201.706 121.833 201.416C122.557 201.272 123.28 200.838 124.147 200.693C124.726 200.549 125.305 200.259 125.883 200.404C127.185 200.693 128.197 200.549 129.354 199.97C131.379 198.958 133.404 198.379 135.573 198.09C139.189 197.511 142.516 196.354 145.408 194.04C148.156 190.569 152.206 187.966 155.966 185.073Z" fill="#FAFAFA"/>
</svg>
