<svg width="31" height="33" viewBox="0 0 31 33" fill="none" xmlns="http://www.w3.org/2000/svg">
<path fill-rule="evenodd" clip-rule="evenodd" d="M28.5052 16.2829C28.6516 15.8439 28.5052 15.1122 28.2126 14.6732C27.9199 14.2341 27.3345 13.7951 26.8955 13.3561C26.4565 12.9171 26.0174 12.6244 25.2857 12.917C24.7003 13.2097 24.2613 13.5024 23.6759 13.7951C22.3589 14.5268 21.0418 14.3805 19.5784 14.0878C18.8467 13.9415 18.554 13.3561 18.7003 12.3317C18.7003 12.1853 18.8467 11.8926 18.8467 11.7463C18.993 10.5756 18.4076 9.84387 17.2369 9.69752C16.6515 9.55118 16.2125 9.69752 15.6271 9.69752V9.84388L15.4808 9.9902V9.69752H15.6271C16.2125 7.94142 17.3832 6.62435 18.7003 5.45361C20.0174 4.42921 20.4564 2.81943 21.3345 1.50235C21.4808 1.20966 21.4808 0.770641 21.4808 0.477956C21.4808 0.185271 20.4564 -0.107418 19.871 0.0389247C17.8222 0.477952 16.2125 1.35601 14.7491 2.96577C11.9685 6.33164 9.48072 9.9902 7.28559 13.9414C6.11485 15.9902 4.79779 17.4537 2.60266 18.3317C1.87095 18.6244 2.01727 19.2098 2.30996 19.7951C2.89533 20.5268 2.74901 21.2586 2.0173 21.8439C1.28559 22.5756 0.700192 23.3074 0.114823 24.0391C-0.177861 24.4781 0.114814 25.3562 0.700183 25.5025C1.28555 25.6488 1.87094 25.9415 2.45631 25.9415C4.5051 25.7952 6.5539 25.6488 8.45635 26.2342C10.0661 26.6732 11.5295 26.6732 13.1393 26.2342C14.8954 25.7952 16.2125 26.9659 17.6759 27.5513V27.9903C17.0905 28.5757 16.5051 29.0147 16.0661 29.7464C15.9198 30.0391 15.9198 30.4781 16.0661 30.7708C16.2125 31.0635 16.7979 31.2099 17.0905 31.2099C17.9686 31.2099 18.7003 30.7708 19.1393 30.0391C20.1637 28.4293 22.0662 28.1366 23.3832 26.8196L23.8223 27.1122C23.676 28.1366 23.3832 29.0147 23.3832 30.0391C23.3832 30.3318 23.5296 30.9172 23.6759 31.0635C24.8467 31.7952 25.8711 32.6732 27.3345 32.8196C28.0662 32.8196 29.0906 32.3806 29.3833 31.7952C29.9687 30.4781 30.4077 29.161 30.8467 27.844C31.2857 26.8196 30.7004 26.0879 30.115 25.3561C29.9687 25.3561 29.9687 25.3561 29.8223 25.3561C29.676 25.5025 29.676 25.5025 29.5296 25.6488C29.5296 25.5025 29.5296 25.3561 29.676 25.3561H29.8223L29.9686 25.2098C29.2369 24.4781 28.5052 24.1854 27.4808 24.4781C27.1882 24.6244 26.8955 24.1854 27.0418 23.7464C27.1881 23.161 27.4808 22.5756 27.9199 22.1366C28.3589 21.5512 29.0906 20.9659 29.5296 20.5268C29.676 20.3805 29.676 20.2342 29.5296 20.0878C29.3833 19.6488 29.0906 19.5025 28.6516 19.5025C28.0662 19.5025 27.4808 20.0878 27.0418 19.3561C26.7491 18.7708 27.0418 18.1854 27.3345 17.7463C27.7735 17.161 28.3589 16.722 28.5052 16.2829Z" fill="#FAFAFA"/>
</svg>
