<svg width="27" height="27" viewBox="0 0 27 27" fill="none" xmlns="http://www.w3.org/2000/svg">
<path fill-rule="evenodd" clip-rule="evenodd" d="M8.62104 1.83963C8.47261 1.83963 8.47261 1.83963 8.62104 1.83963C8.32418 3.02708 7.87891 4.0661 7.58205 5.25355C6.3946 8.96434 4.16809 12.2298 3.27751 15.9406C3.12907 16.8312 2.38695 17.2765 1.6448 17.7218C1.1995 18.0186 0.754174 18.4639 0.30888 18.9092C-0.284845 19.6514 0.0120542 21.1357 0.902642 21.581C1.1995 21.7294 1.64478 21.8779 2.09007 22.0263C2.98066 22.3232 3.42594 22.9169 3.27751 23.8075C3.27751 24.2528 3.12911 24.5496 3.12911 24.9949C3.12911 26.4792 4.01966 27.2214 5.50397 26.7761C6.24613 26.6277 7.28515 26.4792 7.73044 25.8855C9.66005 23.659 13.074 22.7684 14.2615 19.7998C14.4099 19.6514 15.0036 19.503 15.3004 19.503C16.4879 20.2451 17.8238 20.9873 17.8238 22.62C17.8238 23.3622 18.1207 23.8075 18.7144 24.1043C20.1987 24.698 21.683 25.2918 23.3157 25.7371C23.6126 25.8855 24.2063 25.7371 24.5032 25.4402C25.2454 24.8465 25.9875 24.1043 26.7297 23.3622C27.3234 22.62 26.8781 21.2841 25.9875 20.8388C25.8391 20.6904 25.5422 20.6904 25.3938 20.6904C24.0579 20.2451 23.3157 19.503 23.3157 18.0187C23.3157 16.2375 22.722 14.9016 21.5346 13.5657C20.7924 12.8236 20.0502 12.0814 19.6049 11.1908C18.7144 8.8159 15.8942 7.92532 14.8552 5.69885C14.7067 5.40199 14.113 5.40199 13.6677 5.25355C12.4802 4.80826 12.4803 4.65983 13.2224 3.76924C13.9646 3.02709 14.5583 2.28493 15.152 1.54277C15.3004 1.24591 15.152 0.800612 15.0036 0.355318C14.8552 -0.0899754 14.4099 -0.0899618 13.9646 0.206901C13.2224 0.652194 12.6287 0.949039 11.7381 0.652176C10.9959 0.355314 10.1054 0.503759 9.3632 0.503759C9.3632 1.09748 8.9179 1.39434 8.62104 1.83963Z" fill="#FAFAFA"/>
</svg>
