<svg width="135" height="104" viewBox="0 0 135 104" fill="none" xmlns="http://www.w3.org/2000/svg">
<path fill-rule="evenodd" clip-rule="evenodd" d="M38.2591 42.6371C38.1141 42.6371 38.1141 42.6371 38.1141 42.6371C38.1141 42.6371 38.1141 42.6371 38.1141 42.7821C38.2591 42.7821 38.2591 42.7821 38.2591 42.6371Z" fill="#FAFAFA"/>
<path fill-rule="evenodd" clip-rule="evenodd" d="M63.6411 61.202L63.496 61.492L63.0609 61.202H63.6411ZM45.6563 32.0492C45.5113 32.0492 45.3662 32.1943 45.2212 32.3393C45.3662 32.1943 45.3663 32.0492 45.5113 31.9042L45.8013 31.7592L45.6563 32.0492ZM108.893 38.4309C109.038 38.4309 109.183 38.4309 109.328 38.576C109.328 38.721 109.183 38.866 109.183 38.866C109.038 38.866 108.893 38.866 108.748 38.721C108.893 38.576 108.893 38.4309 108.893 38.4309ZM35.0685 86.5837C35.0685 86.5837 35.0685 86.7287 35.0685 86.5837C34.9235 86.8738 34.9235 87.0188 34.7785 87.1638C34.6334 87.3089 34.4883 87.3089 34.3433 87.4539C34.1983 87.5989 34.0533 87.5989 33.9082 87.744C34.1983 87.5989 34.3433 87.3089 34.6334 87.1638C34.7784 86.8738 34.9235 86.8738 35.0685 86.5837C35.0685 86.5837 35.0685 86.2936 35.2136 86.1486C35.2136 86.2936 35.2135 86.4386 35.0685 86.5837ZM28.8319 72.805L28.5418 72.9501L28.8319 72.805L28.9769 72.515L28.8319 72.805ZM26.0761 82.3776C25.9311 82.2325 25.9311 82.2325 25.7861 82.0875C25.9311 82.0875 26.0761 82.2325 26.0761 82.3776H26.3662H26.0761ZM38.6945 44.8126C37.9693 45.9729 37.9693 46.9882 38.4044 48.1485C39.1296 49.5989 39.1296 51.1943 38.6945 52.7897C38.2593 54.0951 38.1143 55.5455 37.8242 56.8508C37.6792 57.1409 37.3891 57.576 37.099 57.721C35.6486 58.3012 35.9387 59.4615 35.9387 60.6218H36.0838C36.5189 61.0569 36.954 61.492 37.5342 62.0722C37.6792 62.2172 37.8242 62.3623 37.9693 62.3623C38.4044 62.5073 38.9845 62.7974 39.4197 62.9424C39.5647 62.9424 39.8548 62.9424 39.9998 62.9424C39.9998 63.0875 39.9998 63.0875 39.9998 63.2325C40.2899 63.3775 40.58 63.5226 40.87 63.6676C41.0151 63.6676 41.1601 63.9577 41.1601 64.1027C41.1601 64.2478 41.0151 64.3928 40.87 64.5378C40.4349 64.8279 40.1448 64.6829 39.9998 64.2478C39.9998 63.9577 39.9998 63.6676 39.9998 63.3775H39.8548C39.7098 63.3775 39.5647 63.2325 39.4197 63.2325C38.8395 63.2325 38.4044 62.9424 37.9693 62.6523C37.8242 62.5073 37.5342 62.5073 37.3891 62.3623C36.954 61.9271 36.5189 61.492 36.0838 61.0569V60.9119C34.9235 61.0569 33.7632 61.0569 32.6029 61.202C32.0227 61.6371 31.4425 61.9271 30.7174 61.9271C29.412 62.0722 28.1067 62.2172 26.6563 62.3623C26.0761 64.5378 24.7708 66.1333 23.0303 67.2936C21.725 68.1638 21.4349 69.4691 21.1448 70.9195C20.9998 71.6447 21.725 72.515 22.4502 72.66C22.8853 72.805 23.1754 72.66 23.6105 72.805C25.496 73.0951 26.0761 73.6753 26.0761 75.4157C26.0761 76.1409 26.2212 77.0111 26.0761 77.7363C25.9311 78.7516 25.641 79.6218 24.9158 80.347C24.7708 80.4921 24.6257 80.4921 24.3357 80.4921C24.1906 80.4921 23.9006 80.347 23.9006 80.347C23.6105 79.0417 23.4654 77.5913 23.0303 76.286C22.7403 75.5608 22.1601 74.9806 21.4349 74.6905C20.1296 73.9653 18.8242 74.1104 17.3738 74.6905C17.0838 74.8356 16.6486 75.1256 16.5036 75.4157C16.2135 75.9959 16.0685 76.576 16.0685 77.1562C15.9234 79.4768 16.6486 81.6524 16.9387 83.973H17.0837L16.9387 84.118V83.973C16.3585 83.973 15.7784 84.118 15.3433 84.118C11.7173 83.3928 8.67153 84.5531 5.77076 86.2936C5.62573 86.4386 5.33561 86.4386 5.19057 86.5837C4.75546 87.0188 4.32035 87.3089 3.88524 87.744C3.16005 88.4692 2.86997 87.5989 2.43485 87.3089C1.56462 86.5837 0.694401 86.5837 0.404324 87.1638C-0.17583 88.4692 -0.175812 90.3547 0.694419 91.0799C2.57992 92.5303 4.46538 93.9806 6.64096 94.8509C9.10661 95.7211 11.2822 97.0265 13.6028 98.3318C14.183 98.6219 14.6181 98.9119 15.1983 99.202C16.0685 99.6371 17.2288 99.4921 17.8089 98.3318C17.954 98.0417 18.244 97.7516 18.3891 97.4616L18.244 97.3165H18.5341C18.5341 97.3165 18.5341 97.4616 18.3891 97.4616C19.2593 97.3165 20.2746 96.8814 21.1448 97.6066C23.0303 99.057 25.2059 99.7822 27.8166 99.3471C28.1067 99.3471 28.5418 99.4921 28.9769 99.6371C29.9922 99.9272 30.4273 100.362 30.5723 101.668C30.5723 101.813 30.4273 102.103 30.5723 102.248C30.7173 103.118 31.4425 103.698 32.1677 103.553C33.4731 103.263 34.7785 102.828 36.2288 102.538C37.0991 102.248 37.9693 101.523 38.9846 101.668C41.3052 101.958 42.4655 100.217 43.9159 98.912C44.0609 98.7669 44.0609 98.6219 44.206 98.3318C45.0762 96.5913 44.7861 95.431 42.9006 94.5608C42.3204 94.2707 41.7403 94.1257 41.7403 93.5455C41.5952 92.6753 41.8853 91.9501 42.4655 91.3699C42.9006 90.9348 43.3357 90.6448 43.9159 90.3547C45.0762 89.6295 46.3815 89.1944 47.6869 88.4692C49.1373 87.744 50.2976 86.5837 50.7327 84.9883C50.8777 84.5531 51.0227 84.2631 51.0227 83.8279C51.0227 83.6829 51.1678 83.3928 51.3128 83.2478C51.7479 82.3776 52.3281 81.9425 53.1983 82.2325C55.0838 82.9577 57.1143 82.5226 58.9998 82.5226C59.8701 82.5226 60.4502 81.3623 60.0151 80.347C59.8701 80.057 59.725 79.7669 59.725 79.4768H59.58C59.435 79.4768 59.435 79.3318 59.2899 79.3318C58.9999 79.3318 58.8548 79.3318 58.5647 79.1867C58.9999 78.7516 59.1449 79.0417 59.2899 79.3318C59.435 79.3318 59.58 79.3318 59.725 79.3318V79.4768C61.4655 79.7669 63.0609 79.3318 64.0762 77.7363C64.5113 76.8661 65.2365 76.1409 65.8167 75.5608C66.5419 74.8356 67.122 74.1104 67.7022 73.3852C68.5724 72.3699 68.4273 71.2096 67.7022 70.1943C67.122 69.4691 66.6869 68.744 66.8319 67.7287H66.6869C66.5419 67.5836 66.3968 67.5836 66.3968 67.4386C66.5419 67.4386 66.6869 67.4386 66.8319 67.5836V67.7287C67.7021 68.0188 68.5724 68.4539 69.4426 68.744C70.4579 69.034 71.3281 68.4539 71.4732 67.2936C71.6182 66.2783 71.3281 65.263 70.4579 64.6829C69.7327 64.2478 69.0075 64.1027 68.2823 63.8126C68.1373 63.8126 67.9922 63.6676 67.7022 63.5226C67.9922 63.2325 68.1373 62.9424 68.4273 62.6523C69.0075 62.3623 69.5877 62.0722 70.0228 62.2172C71.7632 62.6523 73.6488 62.5073 75.3892 62.3623C76.5495 62.3623 77.2747 61.7821 77.4197 60.6218C77.5648 60.1867 77.7098 59.8966 77.7098 59.4615C77.9999 59.6065 78.29 59.7516 78.58 60.0416C78.8701 60.3317 79.1602 60.4768 79.5953 60.7668C82.206 62.0722 83.9465 61.7821 85.832 59.4615C87.8625 56.9958 90.0381 54.8203 92.7938 53.2248C94.2442 52.4996 95.6946 51.9195 96.5648 50.6141C97.1449 49.7439 98.1602 49.4538 99.0305 49.1638C102.076 48.2935 104.687 46.263 107.878 45.8279C110.634 44.2325 113.389 42.637 116 41.0416C116.435 40.7515 116.58 40.0263 116.725 39.4462C116.87 38.866 116.435 38.4309 115.13 37.9958C114.405 37.7057 113.679 37.4156 112.954 37.1256V37.2706L112.809 37.5607L112.954 37.1256C113.244 36.5454 113.389 35.8202 114.405 35.8202C117.305 35.6752 120.351 35.3851 123.252 35.095C126.008 33.6446 128.908 32.1943 131.664 30.7439C131.954 30.5988 132.389 30.4538 132.679 30.1637C133.26 29.4385 134.13 28.7133 134.42 27.8431C134.855 26.8278 135 25.5225 135 24.3622C135 23.0568 134.42 22.0416 133.115 21.6065C132.244 21.3164 131.809 20.8813 131.954 19.866C132.099 18.5607 132.099 17.1103 132.099 15.6599C132.099 15.3698 131.809 14.7897 131.519 14.7897C130.214 14.3545 128.908 13.9194 127.603 13.4843C126.298 13.1942 125.282 13.3393 124.267 13.9194C123.832 14.0645 123.397 14.2095 122.962 14.3545C122.817 14.4996 122.817 14.4996 122.672 14.6446C122.527 14.6446 122.382 14.6446 122.382 14.6446C122.237 14.7897 122.092 15.0797 121.947 15.2248C121.947 15.2248 121.656 15.0797 121.511 15.0797C121.656 14.6446 122.092 14.6446 122.382 14.6446L122.527 14.4996C122.672 14.4996 122.817 14.4996 122.962 14.3545C123.542 13.7744 124.122 13.0492 124.702 12.469C125.573 11.5988 125.718 11.4538 124.702 10.5835C124.412 10.2935 124.122 10.1484 123.687 9.85834C123.542 9.71331 123.397 9.56827 123.107 9.56827C121.511 9.42323 120.351 8.26292 118.756 7.97285C117.595 7.82781 117.015 7.24765 116.725 6.08735C116.435 5.21711 115.855 4.782 114.985 4.63696C113.389 4.34688 111.794 4.20185 110.343 3.62169C108.603 3.04154 107.298 3.18658 105.847 4.05681C104.832 4.63696 104.107 4.20185 104.107 2.60642C104.107 2.17131 104.252 1.73619 103.962 1.59115C101.786 1.011 99.7557 0.430846 97.5801 0.140769C96.8549 -0.00426951 95.9846 0.140769 95.2595 0.140769C94.5343 0.140769 93.8091 0.865961 93.664 1.73619C93.519 3.18658 93.374 4.49192 93.2289 5.79727C93.2289 5.94231 92.9389 6.08735 92.7938 6.08735C92.3587 6.23238 92.0686 6.08734 91.9236 5.65223C91.7786 5.07208 91.7785 4.49192 91.7785 3.91177C91.7785 3.76673 91.7785 3.47665 91.6335 3.33161C91.3434 3.04154 91.0533 2.60642 90.7633 2.75146C89.0228 3.04154 88.2976 1.73619 87.4274 0.720923C86.7022 -0.149308 85.6869 -0.149308 84.6717 0.285807C83.6564 0.720923 83.0762 1.59115 83.0762 2.60642C83.0762 3.33161 83.3663 4.20185 83.3663 4.92704C83.3663 5.07208 83.2213 5.36215 82.9312 5.36215C82.7862 5.36215 82.4961 5.36215 82.351 5.21711C81.7709 4.20185 81.3358 3.04154 80.7556 2.02627C80.0304 0.865961 78.58 1.15604 77.9999 2.31635C77.2747 3.47665 77.2747 3.62169 76.4045 3.33161C76.2594 3.33161 75.9694 3.18658 75.8243 3.04154C74.664 2.75146 73.6487 3.33161 73.7938 4.34688C74.2289 5.94231 73.6488 6.81254 72.4884 7.68277C71.9083 8.11788 71.7632 9.13315 71.4732 9.71331C71.038 10.4385 69.2976 10.2935 68.8625 9.56827C68.1373 7.97285 67.4121 6.23238 66.5419 4.782C66.2518 4.20185 65.2365 4.05681 64.3663 3.91177C63.7861 3.76673 62.9159 4.34688 62.7709 5.36215C62.6258 6.52246 62.1907 7.24765 61.0304 7.39269C60.5953 7.39269 60.1602 7.53773 59.8701 7.68277C59.58 7.82781 59.2899 8.40796 59.2899 8.69804C59.7251 10.1484 60.4502 11.5988 61.0304 13.0492C61.1754 13.0492 61.1754 13.0492 61.1754 13.0492L61.3205 13.4843L61.0304 13.1942V13.0492C60.0151 13.0492 59.2899 12.9042 58.5647 12.0339C58.1296 11.3087 57.4045 10.8736 56.5342 11.1637C55.809 11.4538 55.3739 11.1637 54.9388 10.7286C54.5037 10.2935 54.2136 9.71331 53.9235 9.27819C53.3433 8.553 52.6182 8.40796 51.893 8.98811C51.3128 9.56827 50.7327 10.1484 50.2975 10.7286C50.0075 11.0187 49.5724 11.0187 49.2823 10.5835C48.5571 9.71331 47.5418 9.56827 46.5265 9.85834C44.351 10.4385 42.3204 11.0187 40.4349 12.179C39.9998 12.469 39.5647 12.9042 39.1296 13.3393C38.4044 14.2095 38.5494 15.8049 39.7098 16.3851C39.9998 16.5301 40.2899 16.6752 40.725 16.6752V16.5301C40.87 16.5301 41.0151 16.5301 41.0151 16.5301C41.3052 16.24 41.5953 15.8049 41.8853 15.5148C42.0304 15.3698 42.3204 15.3698 42.3204 15.5148C42.7555 15.8049 42.6105 16.095 42.1754 16.3851C41.7403 16.5301 41.3052 16.5301 40.87 16.6752C40.87 16.8202 40.725 16.8202 40.725 16.9652H40.58C40.725 17.6904 40.725 18.4156 41.0151 19.1408C41.4502 20.5912 41.5952 20.5912 41.0151 21.0263C40.58 21.4614 40.1449 21.8965 39.8548 22.3316C38.9846 23.492 39.4197 24.7973 40.87 25.6675C41.1601 25.8126 41.4502 25.9576 41.7403 26.1026C41.5952 26.2477 41.4502 26.2477 41.1601 26.2477C40.725 26.2477 40.4349 26.2477 39.9998 26.3927C38.8395 26.6828 38.4044 27.408 38.6945 28.5683C38.9845 30.1637 39.5647 31.4691 40.725 32.6294C41.7403 33.6446 43.0456 33.9347 44.351 33.7897V33.6446C44.496 33.6446 44.6411 33.4996 44.7861 33.3546C44.6411 33.4996 44.641 33.4996 44.496 33.7897C44.496 33.7897 44.496 33.7897 44.351 33.7897C44.641 34.5149 44.7861 35.2401 45.2212 35.6752C46.6716 37.2706 48.7021 38.1408 50.8777 38.4309C52.4731 38.721 53.7785 37.9958 55.2288 37.2706V37.1256C55.3739 36.9805 55.664 36.8355 55.3739 37.2706C55.3739 37.2706 55.3739 37.2706 55.2288 37.2706C55.3739 37.9958 55.3739 38.721 55.954 39.1561C58.1296 40.7515 60.5953 41.3317 63.206 40.7515C65.8166 40.1714 68.5724 39.7363 70.3129 37.1256C70.748 36.5454 71.3281 36.2553 72.0533 36.1103C72.0533 36.1103 72.0533 35.9653 72.1984 35.9653L72.3434 36.1103C72.1984 36.1103 72.1984 36.1103 72.1984 36.1103C72.0533 36.4004 71.9083 36.6905 71.7633 36.9805C71.6182 37.1256 71.6182 37.2706 71.4732 37.4156C71.1831 38.1408 71.6182 39.0111 72.1984 39.3011C73.3587 39.7363 74.664 39.4462 75.6793 40.4615C75.8243 40.4615 75.8243 40.4615 75.9694 40.4615L76.1144 40.7515L75.8243 40.6065L75.6793 40.4615C71.6182 40.1714 67.5571 40.1714 63.7861 42.2019C62.1907 43.0721 60.3052 42.9271 58.5647 42.347C57.4044 42.0569 56.2441 41.9118 55.0838 41.7668C54.5037 41.6218 53.3434 42.492 53.3434 43.0721C53.1983 44.6676 53.0533 46.263 53.0533 47.8584C53.0533 48.4386 52.7632 48.5836 52.4731 48.4386C52.3281 48.2935 52.1831 48.1485 52.1831 48.0035C51.6029 43.9424 49.2823 41.1866 45.6563 39.3011C45.5113 39.1561 45.3662 39.1561 45.0761 39.0111C44.2059 38.4309 43.0456 38.576 42.3204 39.3011C41.1601 40.4615 39.9998 41.7668 38.8395 42.9271C38.6945 43.3622 39.1296 44.2325 38.6945 44.8126Z" fill="#FAFAFA"/>
</svg>
