<svg width="1902" height="705" viewBox="0 0 1902 705" fill="none" xmlns="http://www.w3.org/2000/svg">
<g filter="url(#filter0_d_168_855)">
<rect x="141" y="107" width="1620" height="423" rx="13" fill="#47AB82"/>
</g>
<mask id="mask0_168_855" style="mask-type:alpha" maskUnits="userSpaceOnUse" x="141" y="107" width="1620" height="423">
<rect x="141" y="107" width="1620" height="423" rx="13" fill="#47AB82"/>
</mask>
<g mask="url(#mask0_168_855)">
<circle cx="346.182" cy="510.334" r="2.6549" transform="rotate(180 346.182 510.334)" fill="#F7FFFC"/>
<circle cx="320.013" cy="510.334" r="2.6549" transform="rotate(180 320.013 510.334)" fill="#F7FFFC"/>
<circle cx="293.843" cy="510.334" r="2.6549" transform="rotate(180 293.843 510.334)" fill="#F7FFFC"/>
<circle cx="267.673" cy="510.334" r="2.6549" transform="rotate(180 267.673 510.334)" fill="#F7FFFC"/>
<circle cx="241.503" cy="510.334" r="2.6549" transform="rotate(180 241.503 510.334)" fill="#F7FFFC"/>
<circle cx="215.334" cy="510.334" r="2.6549" transform="rotate(180 215.334 510.334)" fill="#F7FFFC"/>
<circle cx="189.164" cy="510.334" r="2.6549" transform="rotate(180 189.164 510.334)" fill="#F7FFFC"/>
<circle cx="162.994" cy="510.334" r="2.6549" transform="rotate(180 162.994 510.334)" fill="#F7FFFC"/>
<circle cx="346.182" cy="484.164" r="2.6549" transform="rotate(180 346.182 484.164)" fill="#F7FFFC"/>
<circle cx="320.013" cy="484.164" r="2.6549" transform="rotate(180 320.013 484.164)" fill="#F7FFFC"/>
<circle cx="293.843" cy="484.164" r="2.6549" transform="rotate(180 293.843 484.164)" fill="#F7FFFC"/>
<circle cx="267.673" cy="484.164" r="2.6549" transform="rotate(180 267.673 484.164)" fill="#F7FFFC"/>
<circle cx="241.503" cy="484.164" r="2.6549" transform="rotate(180 241.503 484.164)" fill="#F7FFFC"/>
<circle cx="215.334" cy="484.164" r="2.6549" transform="rotate(180 215.334 484.164)" fill="#F7FFFC"/>
<circle cx="189.164" cy="484.164" r="2.6549" transform="rotate(180 189.164 484.164)" fill="#F7FFFC"/>
<circle cx="162.994" cy="484.164" r="2.6549" transform="rotate(180 162.994 484.164)" fill="#F7FFFC"/>
<circle cx="346.182" cy="457.994" r="2.6549" transform="rotate(180 346.182 457.994)" fill="#F7FFFC"/>
<circle cx="320.013" cy="457.994" r="2.6549" transform="rotate(180 320.013 457.994)" fill="#F7FFFC"/>
<circle cx="293.843" cy="457.994" r="2.6549" transform="rotate(180 293.843 457.994)" fill="#F7FFFC"/>
<circle cx="267.673" cy="457.994" r="2.6549" transform="rotate(180 267.673 457.994)" fill="#F7FFFC"/>
<circle cx="241.503" cy="457.994" r="2.6549" transform="rotate(180 241.503 457.994)" fill="#F7FFFC"/>
<circle cx="215.334" cy="457.994" r="2.6549" transform="rotate(180 215.334 457.994)" fill="#F7FFFC"/>
<circle cx="189.164" cy="457.994" r="2.6549" transform="rotate(180 189.164 457.994)" fill="#F7FFFC"/>
<circle cx="162.994" cy="457.994" r="2.6549" transform="rotate(180 162.994 457.994)" fill="#F7FFFC"/>
<circle cx="346.182" cy="431.825" r="2.6549" transform="rotate(180 346.182 431.825)" fill="#F7FFFC"/>
<circle cx="320.013" cy="431.825" r="2.6549" transform="rotate(180 320.013 431.825)" fill="#F7FFFC"/>
<circle cx="293.843" cy="431.825" r="2.6549" transform="rotate(180 293.843 431.825)" fill="#F7FFFC"/>
<circle cx="267.673" cy="431.825" r="2.6549" transform="rotate(180 267.673 431.825)" fill="#F7FFFC"/>
<circle cx="241.503" cy="431.825" r="2.6549" transform="rotate(180 241.503 431.825)" fill="#F7FFFC"/>
<circle cx="215.334" cy="431.825" r="2.6549" transform="rotate(180 215.334 431.825)" fill="#F7FFFC"/>
<circle cx="189.164" cy="431.825" r="2.6549" transform="rotate(180 189.164 431.825)" fill="#F7FFFC"/>
<circle cx="162.994" cy="431.825" r="2.6549" transform="rotate(180 162.994 431.825)" fill="#F7FFFC"/>
<circle cx="346.182" cy="405.655" r="2.6549" transform="rotate(180 346.182 405.655)" fill="#F7FFFC"/>
<circle cx="320.013" cy="405.655" r="2.6549" transform="rotate(180 320.013 405.655)" fill="#F7FFFC"/>
<circle cx="293.843" cy="405.655" r="2.6549" transform="rotate(180 293.843 405.655)" fill="#F7FFFC"/>
<circle cx="267.673" cy="405.655" r="2.6549" transform="rotate(180 267.673 405.655)" fill="#F7FFFC"/>
<circle cx="241.503" cy="405.655" r="2.6549" transform="rotate(180 241.503 405.655)" fill="#F7FFFC"/>
<circle cx="215.334" cy="405.655" r="2.6549" transform="rotate(180 215.334 405.655)" fill="#F7FFFC"/>
<circle cx="189.164" cy="405.655" r="2.6549" transform="rotate(180 189.164 405.655)" fill="#F7FFFC"/>
<circle cx="162.994" cy="405.655" r="2.6549" transform="rotate(180 162.994 405.655)" fill="#F7FFFC"/>
<circle cx="532.397" cy="197.356" r="1.39728" transform="rotate(-90 532.397 197.356)" fill="#F7FFFC"/>
<circle cx="532.397" cy="183.583" r="1.39728" transform="rotate(-90 532.397 183.583)" fill="#F7FFFC"/>
<circle cx="532.397" cy="169.81" r="1.39728" transform="rotate(-90 532.397 169.81)" fill="#F7FFFC"/>
<circle cx="532.397" cy="156.037" r="1.39728" transform="rotate(-90 532.397 156.037)" fill="#F7FFFC"/>
<circle cx="532.397" cy="142.263" r="1.39728" transform="rotate(-90 532.397 142.263)" fill="#F7FFFC"/>
<circle cx="532.397" cy="128.49" r="1.39728" transform="rotate(-90 532.397 128.49)" fill="#F7FFFC"/>
<circle cx="532.397" cy="114.717" r="1.39728" transform="rotate(-90 532.397 114.717)" fill="#F7FFFC"/>
<circle cx="546.17" cy="197.356" r="1.39728" transform="rotate(-90 546.17 197.356)" fill="#F7FFFC"/>
<circle cx="546.17" cy="183.583" r="1.39728" transform="rotate(-90 546.17 183.583)" fill="#F7FFFC"/>
<circle cx="546.17" cy="169.81" r="1.39728" transform="rotate(-90 546.17 169.81)" fill="#F7FFFC"/>
<circle cx="546.17" cy="156.037" r="1.39728" transform="rotate(-90 546.17 156.037)" fill="#F7FFFC"/>
<circle cx="546.17" cy="142.263" r="1.39728" transform="rotate(-90 546.17 142.263)" fill="#F7FFFC"/>
<circle cx="546.17" cy="128.49" r="1.39728" transform="rotate(-90 546.17 128.49)" fill="#F7FFFC"/>
<circle cx="546.17" cy="114.717" r="1.39728" transform="rotate(-90 546.17 114.717)" fill="#F7FFFC"/>
<circle cx="559.944" cy="197.356" r="1.39728" transform="rotate(-90 559.944 197.356)" fill="#F7FFFC"/>
<circle cx="559.944" cy="183.583" r="1.39728" transform="rotate(-90 559.944 183.583)" fill="#F7FFFC"/>
<circle cx="559.944" cy="169.81" r="1.39728" transform="rotate(-90 559.944 169.81)" fill="#F7FFFC"/>
<circle cx="559.944" cy="156.037" r="1.39728" transform="rotate(-90 559.944 156.037)" fill="#F7FFFC"/>
<circle cx="559.944" cy="142.263" r="1.39728" transform="rotate(-90 559.944 142.263)" fill="#F7FFFC"/>
<circle cx="559.944" cy="128.49" r="1.39728" transform="rotate(-90 559.944 128.49)" fill="#F7FFFC"/>
<circle cx="559.944" cy="114.717" r="1.39728" transform="rotate(-90 559.944 114.717)" fill="#F7FFFC"/>
<circle cx="573.717" cy="197.356" r="1.39728" transform="rotate(-90 573.717 197.356)" fill="#F7FFFC"/>
<circle cx="573.717" cy="183.583" r="1.39728" transform="rotate(-90 573.717 183.583)" fill="#F7FFFC"/>
<circle cx="573.717" cy="169.81" r="1.39728" transform="rotate(-90 573.717 169.81)" fill="#F7FFFC"/>
<circle cx="573.717" cy="156.037" r="1.39728" transform="rotate(-90 573.717 156.037)" fill="#F7FFFC"/>
<circle cx="573.717" cy="142.263" r="1.39728" transform="rotate(-90 573.717 142.263)" fill="#F7FFFC"/>
<circle cx="573.717" cy="128.49" r="1.39728" transform="rotate(-90 573.717 128.49)" fill="#F7FFFC"/>
<circle cx="573.717" cy="114.717" r="1.39728" transform="rotate(-90 573.717 114.717)" fill="#F7FFFC"/>
<circle cx="587.49" cy="197.356" r="1.39728" transform="rotate(-90 587.49 197.356)" fill="#F7FFFC"/>
<circle cx="587.49" cy="183.583" r="1.39728" transform="rotate(-90 587.49 183.583)" fill="#F7FFFC"/>
<circle cx="587.49" cy="169.81" r="1.39728" transform="rotate(-90 587.49 169.81)" fill="#F7FFFC"/>
<circle cx="587.49" cy="156.037" r="1.39728" transform="rotate(-90 587.49 156.037)" fill="#F7FFFC"/>
<circle cx="587.49" cy="142.263" r="1.39728" transform="rotate(-90 587.49 142.263)" fill="#F7FFFC"/>
<circle cx="587.49" cy="128.49" r="1.39728" transform="rotate(-90 587.49 128.49)" fill="#F7FFFC"/>
<circle cx="587.49" cy="114.717" r="1.39728" transform="rotate(-90 587.49 114.717)" fill="#F7FFFC"/>
<circle cx="601.263" cy="197.356" r="1.39728" transform="rotate(-90 601.263 197.356)" fill="#F7FFFC"/>
<circle cx="601.263" cy="183.583" r="1.39728" transform="rotate(-90 601.263 183.583)" fill="#F7FFFC"/>
<circle cx="601.263" cy="169.81" r="1.39728" transform="rotate(-90 601.263 169.81)" fill="#F7FFFC"/>
<circle cx="601.263" cy="156.037" r="1.39728" transform="rotate(-90 601.263 156.037)" fill="#F7FFFC"/>
<circle cx="601.263" cy="142.263" r="1.39728" transform="rotate(-90 601.263 142.263)" fill="#F7FFFC"/>
<circle cx="601.263" cy="128.49" r="1.39728" transform="rotate(-90 601.263 128.49)" fill="#F7FFFC"/>
<circle cx="601.263" cy="114.717" r="1.39728" transform="rotate(-90 601.263 114.717)" fill="#F7FFFC"/>
<path d="M1808.06 1429.01C1687.83 1635.04 1498.93 1504.27 1419.51 1413.13C1176.65 1131.2 1440.82 1083.52 1223.97 669.646C1007.12 255.768 1149.06 333.816 1783.11 -235.761C2417.15 -805.337 2444.62 -101.501 2319.39 -8.86378C2194.16 83.7734 2262.43 236.206 2471.59 419.336C2680.74 602.465 2353.21 1105.52 2136.97 1031.92C1920.73 958.314 1958.34 1171.47 1808.06 1429.01Z" stroke="white" stroke-opacity="0.53"/>
<path d="M1810.8 1340.37C1702.35 1526.02 1531.91 1408.17 1460.24 1326.04C1241.11 1071.97 1479.45 1029.03 1283.77 656.073C1088.1 283.114 1216.17 353.453 1788.17 -159.744C2360.17 -672.94 2385.01 -38.7148 2272.03 44.751C2159.05 128.217 2220.65 265.578 2409.37 430.611C2598.09 595.643 2302.62 1048.92 2107.52 982.58C1912.42 916.242 1946.37 1108.32 1810.8 1340.37Z" stroke="white" stroke-opacity="0.53"/>
<path d="M1812.55 1271.64C1713.47 1441.44 1557.79 1333.67 1492.33 1258.56C1292.18 1026.2 1509.9 986.913 1331.18 645.818C1152.47 304.723 1269.45 369.046 1791.99 -100.367C2314.53 -569.78 2337.17 10.2826 2233.97 86.6289C2130.76 162.975 2187.02 288.602 2359.4 439.527C2531.77 590.452 2261.83 1005.04 2083.62 944.381C1905.41 883.723 1936.41 1059.39 1812.55 1271.64Z" stroke="white" stroke-opacity="0.53"/>
<path d="M1816.32 1206.66C1725.94 1361.44 1583.9 1263.19 1524.19 1194.72C1341.58 982.911 1540.2 947.105 1377.14 636.171C1214.09 325.237 1320.81 383.877 1797.5 -43.9925C2274.18 -471.862 2294.86 56.8957 2200.71 126.484C2106.56 196.073 2157.89 310.591 2315.15 448.175C2472.41 585.758 2226.18 963.663 2063.59 908.362C1901.01 853.06 1929.3 1013.19 1816.32 1206.66Z" stroke="white" stroke-opacity="0.53"/>
<path d="M1818.19 1136.13C1737.2 1274.62 1609.92 1186.69 1556.39 1125.42C1392.74 935.856 1570.72 903.83 1424.58 625.567C1278.43 347.304 1374.07 399.788 1801.22 16.9338C2228.36 -365.92 2246.94 107.258 2162.57 169.524C2078.21 231.79 2124.21 334.274 2265.16 457.409C2406.1 580.543 2185.46 918.704 2039.76 869.202C1894.06 819.701 1919.42 963.003 1818.19 1136.13Z" stroke="white" stroke-opacity="0.53"/>
<path d="M1820.09 1061.97C1749.18 1183.37 1637.74 1106.31 1590.88 1052.6C1447.61 886.458 1603.44 858.377 1475.5 614.488C1347.56 370.599 1431.3 416.595 1805.3 80.996C2179.31 -254.603 2195.54 160.137 2121.67 214.719C2047.81 269.3 2088.08 359.125 2211.47 467.044C2334.87 574.963 2141.67 871.375 2014.1 827.996C1886.54 784.617 1908.73 910.22 1820.09 1061.97Z" stroke="white" stroke-opacity="0.53"/>
</g>
<circle cx="1645.7" cy="476.299" r="1.7013" transform="rotate(-90 1645.7 476.299)" fill="white"/>
<circle cx="1645.7" cy="464.099" r="1.7013" transform="rotate(-90 1645.7 464.099)" fill="white"/>
<circle cx="1645.7" cy="451.9" r="1.7013" transform="rotate(-90 1645.7 451.9)" fill="white"/>
<circle cx="1645.7" cy="439.702" r="1.7013" transform="rotate(-90 1645.7 439.702)" fill="white"/>
<circle cx="1657.9" cy="476.299" r="1.7013" transform="rotate(-90 1657.9 476.299)" fill="white"/>
<circle cx="1657.9" cy="464.099" r="1.7013" transform="rotate(-90 1657.9 464.099)" fill="white"/>
<circle cx="1657.9" cy="451.9" r="1.7013" transform="rotate(-90 1657.9 451.9)" fill="white"/>
<circle cx="1657.9" cy="439.702" r="1.7013" transform="rotate(-90 1657.9 439.702)" fill="white"/>
<circle cx="1670.1" cy="476.299" r="1.7013" transform="rotate(-90 1670.1 476.299)" fill="white"/>
<circle cx="1670.1" cy="464.099" r="1.7013" transform="rotate(-90 1670.1 464.099)" fill="white"/>
<circle cx="1670.1" cy="451.9" r="1.7013" transform="rotate(-90 1670.1 451.9)" fill="white"/>
<circle cx="1670.1" cy="439.702" r="1.7013" transform="rotate(-90 1670.1 439.702)" fill="white"/>
<circle cx="1682.3" cy="476.299" r="1.7013" transform="rotate(-90 1682.3 476.299)" fill="white"/>
<circle cx="1682.3" cy="464.099" r="1.7013" transform="rotate(-90 1682.3 464.099)" fill="white"/>
<circle cx="1682.3" cy="451.9" r="1.7013" transform="rotate(-90 1682.3 451.9)" fill="white"/>
<circle cx="1682.3" cy="439.702" r="1.7013" transform="rotate(-90 1682.3 439.702)" fill="white"/>
<circle cx="1694.5" cy="476.299" r="1.7013" transform="rotate(-90 1694.5 476.299)" fill="white"/>
<circle cx="1694.5" cy="464.099" r="1.7013" transform="rotate(-90 1694.5 464.099)" fill="white"/>
<circle cx="1694.5" cy="451.9" r="1.7013" transform="rotate(-90 1694.5 451.9)" fill="white"/>
<circle cx="1694.5" cy="439.702" r="1.7013" transform="rotate(-90 1694.5 439.702)" fill="white"/>
<defs>
<filter id="filter0_d_168_855" x="0" y="0" width="1902" height="705" filterUnits="userSpaceOnUse" color-interpolation-filters="sRGB">
<feFlood flood-opacity="0" result="BackgroundImageFix"/>
<feColorMatrix in="SourceAlpha" type="matrix" values="0 0 0 0 0 0 0 0 0 0 0 0 0 0 0 0 0 0 127 0" result="hardAlpha"/>
<feOffset dy="34"/>
<feGaussianBlur stdDeviation="70.5"/>
<feColorMatrix type="matrix" values="0 0 0 0 0 0 0 0 0 0 0 0 0 0 0 0 0 0 0.24 0"/>
<feBlend mode="normal" in2="BackgroundImageFix" result="effect1_dropShadow_168_855"/>
<feBlend mode="normal" in="SourceGraphic" in2="effect1_dropShadow_168_855" result="shape"/>
</filter>
</defs>
</svg>
