<svg width="51" height="20" viewBox="0 0 51 20" fill="none" xmlns="http://www.w3.org/2000/svg">
<path fill-rule="evenodd" clip-rule="evenodd" d="M50.3534 17.6244C51.0769 17.4797 51.2216 16.3222 50.6429 15.5987C50.0641 15.02 49.63 14.2965 48.9065 14.0071C44.9998 12.2708 41.093 10.1003 37.0416 8.65341C35.7394 8.21933 34.4371 7.64058 33.2796 6.91711C31.9774 6.04895 30.5304 5.32549 28.9388 4.8914C28.2153 4.74671 27.3471 4.3126 26.913 3.73383C25.1767 1.9975 23.151 1.56342 20.9806 1.56342C19.2443 1.56342 17.942 1.27406 16.3504 0.55059C15.4822 0.116509 14.3247 -0.172905 13.4565 0.116482C10.852 0.839951 7.95815 0.984636 5.35367 2.14219C2.74918 3.29974 1.59163 5.61486 0 7.49588C0 7.49588 0.289392 7.78528 0.434086 7.78528C1.15755 7.78528 2.17042 7.92997 2.7492 7.64058C5.49838 6.04895 8.82634 5.75955 11.4308 3.87853C12.0096 3.44445 13.1671 3.87852 13.4565 4.4573C13.8906 5.47015 14.6141 6.04895 15.6269 6.19364C16.9292 6.48303 18.3761 6.62773 19.6784 7.06181C20.6912 7.20651 21.7041 7.49586 22.5722 7.92994C24.3085 8.9428 26.1896 9.37689 28.2153 9.52158C29.3729 9.66627 30.0963 10.2451 30.5304 11.2579C31.3985 13.2836 32.9902 14.2965 35.1606 14.5859C35.3053 14.5859 35.45 14.7306 35.7394 14.8753C36.3181 15.1647 36.4629 15.5987 36.1735 16.3222C36.0288 16.6116 35.7394 17.0456 35.5947 17.335C35.1606 18.2032 35.45 19.0714 36.4628 19.0714C37.9098 19.2161 39.212 19.0714 41.6718 19.0714C43.9869 19.9395 47.1702 18.4926 50.3534 17.6244Z" fill="#FAFAFA"/>
</svg>
