<svg width="10" height="7" viewBox="0 0 10 7" fill="none" xmlns="http://www.w3.org/2000/svg">
<path fill-rule="evenodd" clip-rule="evenodd" d="M9.88659 2.11659C10.0378 1.81422 10.0378 1.36065 9.88659 0.907099C9.7354 0.604728 9.43303 0.151172 9.13066 0.151172C8.52592 -1.38437e-05 7.92119 0 7.77 0C6.40933 0 5.65341 -1.38437e-05 4.74629 0.151172C4.14155 0.302357 3.5368 0.453556 3.08324 0.755927C2.17613 1.51185 1.26904 2.41896 0.361925 3.32607C-0.0916317 3.77963 -0.0916409 4.38437 0.21073 5.1403C0.513101 5.74504 0.815499 6.34978 1.42024 6.34978C2.17617 6.50097 3.08324 6.65215 3.83917 6.34978C6.40932 5.59386 8.37473 4.082 9.88659 2.11659Z" fill="#FAFAFA"/>
</svg>
