<svg width="30" height="13" viewBox="0 0 30 13" fill="none" xmlns="http://www.w3.org/2000/svg">
<path fill-rule="evenodd" clip-rule="evenodd" d="M1.88288 10.5741C3.04155 10.5741 4.20022 10.2844 5.3589 10.2844C6.80725 10.2844 8.11075 10.4292 9.55909 10.7189C10.8626 10.8637 11.2971 12.3121 12.3109 12.8914C12.6006 13.0363 13.0351 13.0363 13.4696 12.8914C13.7593 12.7466 14.1938 12.4569 14.3387 12.1673C15.3525 10.7189 16.5112 9.99471 18.394 10.2844C18.9734 10.4292 19.6975 10.2844 20.132 10.1395C22.4494 8.83603 24.7667 9.12571 27.0841 9.70505C27.5186 9.56022 27.9531 9.70503 28.2428 9.41536C28.6773 9.1257 29.1118 8.6912 29.4015 8.11186C29.5463 7.82219 29.2566 7.24288 28.9669 7.09805C26.7944 5.79453 24.7667 4.20134 22.7391 2.60816C22.1597 2.17366 21.2907 1.88398 20.5665 1.73915C17.8147 1.01497 15.2076 0.435618 12.4558 1.44946C11.5868 1.73913 10.5729 1.30463 9.70394 0.725287C9.41427 0.435618 9.12458 0.290792 8.69008 0.145957C7.9659 -0.288546 6.95209 0.290819 6.22792 1.30466C5.79341 1.884 5.93826 2.4633 6.37276 2.89781C7.82111 3.76681 7.67624 5.21516 8.11075 6.51867C8.25558 7.24285 8.11077 7.38771 7.09693 6.9532C6.08309 6.5187 5.64855 7.3877 5.06921 7.53253C3.47603 7.8222 2.02771 7.96704 0.43453 8.25671C0.289696 8.25671 0 8.9809 0 9.27057C0 9.8499 0.869034 10.5741 1.88288 10.5741Z" fill="#FAFAFA"/>
</svg>
