<svg width="12" height="17" viewBox="0 0 12 17" fill="none" xmlns="http://www.w3.org/2000/svg">
<path fill-rule="evenodd" clip-rule="evenodd" d="M0.336141 14.3469C0.482348 15.2242 1.21339 15.6628 1.94442 15.9552C4.13752 16.54 6.33062 16.54 8.52371 16.2476C8.96233 16.2476 9.54715 15.6628 9.83956 15.078C10.4244 14.2007 10.2782 12.8849 11.1554 12.0076L11.3016 12.1538C11.3016 12.0076 11.3016 12.0076 11.3016 11.8614L11.1554 12.0076C12.1789 10.5456 12.3251 9.0835 11.3016 7.62144C9.98577 6.01316 9.25475 4.25869 8.52371 2.358C8.2313 1.77318 7.93888 1.33456 7.64647 0.74973C7.20785 0.0186977 5.59959 -0.273714 5.01477 0.311112C2.82167 2.50421 1.06718 4.84351 1.21339 8.20626C1.3596 9.52212 0.628545 10.3994 0.189926 11.569C-0.248694 12.3 0.189935 13.4697 0.336141 14.3469Z" fill="#FAFAFA"/>
</svg>
