<svg width="49" height="31" viewBox="0 0 49 31" fill="none" xmlns="http://www.w3.org/2000/svg">
<path fill-rule="evenodd" clip-rule="evenodd" d="M31.7389 18.8132C29.9771 18.5196 28.2153 18.0791 26.4534 17.6387C26.1598 17.6387 25.8661 16.9046 25.8661 16.7578C26.8939 14.9959 25.7193 13.2341 26.1598 11.6191C26.013 10.0041 26.013 8.68271 25.8661 7.21452C25.7193 5.89315 24.6916 5.15905 23.3702 4.86542C22.1957 4.57178 22.1957 4.42496 22.1957 3.2504C22.1957 1.34175 21.4616 0.460841 19.9934 0.167203C18.8188 0.020384 17.3506 -0.273255 16.4697 0.607659C15.0015 2.07585 12.7992 2.36949 11.1842 3.54404C10.5969 3.9845 10.1565 4.7186 9.56923 5.30587C9.86287 6.77406 8.83513 7.21452 7.66058 7.8018C6.77966 8.24226 6.19238 9.12317 5.45829 9.71045C5.16465 10.0041 5.16465 10.5914 5.45829 10.7382C6.04557 11.1786 6.77965 11.6191 7.51375 12.0595C7.95421 12.3532 8.10102 12.6468 7.80738 12.9405C7.66056 13.0873 7.36693 13.0873 7.22011 13.0873C5.89874 12.9405 4.43055 12.6468 3.10917 12.5C1.7878 12.5 0.760068 13.6746 0.172792 15.1428C-0.267665 16.3173 0.172801 17.0514 1.05372 17.7855C1.78781 18.3728 2.66871 19.1069 3.40281 19.6941C5.31146 21.1623 7.36692 22.6305 10.0097 21.3092C10.3033 21.1623 10.8906 21.1623 11.1842 21.3092C12.6524 22.1901 14.2674 22.1901 15.8824 22.3369C16.0293 22.3369 16.1761 22.4837 16.3229 22.6305C16.1761 22.7773 16.0293 22.7773 15.7356 22.9242C13.0929 23.3646 10.597 23.8051 7.95421 24.2455C7.22011 24.3924 6.63284 25.1265 6.48602 26.0074C6.3392 27.916 6.92648 29.2374 8.39467 29.9715C9.12877 30.2651 9.86286 30.5588 10.597 30.7056C11.7715 30.8524 13.0929 30.7056 14.2674 30.8524C16.6165 31.146 18.672 30.7056 20.5807 29.3842C21.3148 28.9438 22.0489 28.5033 22.7829 28.5033C24.5448 28.3565 26.4534 28.3565 28.2152 27.7692C28.5089 27.6224 28.9494 27.7692 29.3898 27.916C30.7112 28.3565 32.0325 28.7969 33.3539 29.3842C34.3816 29.8247 35.2625 29.9715 36.2903 29.8247C37.0244 29.6778 37.9053 29.531 38.6394 29.3842C39.9608 29.2374 40.8417 28.6501 41.8694 27.7692C43.7781 26.0074 45.3931 23.9519 47.3017 22.1901C47.889 21.7496 48.1827 20.8687 48.6231 20.1346C49.504 18.5196 48.7699 16.4641 47.1549 15.4364C46.8613 15.2896 46.4208 15.2896 45.9804 15.2896C45.0994 15.4364 44.5122 16.0237 44.0717 16.7578C43.7781 17.1982 43.4844 17.4919 43.1908 17.0514C42.4567 16.1705 40.8417 15.8768 41.429 14.2618C40.8417 13.3809 40.2544 12.6468 41.1353 11.6191C41.7226 11.0318 42.0163 10.2977 42.0163 9.41681C41.8694 7.50816 42.3099 5.89315 43.044 4.13132C43.3376 3.54404 43.044 2.95676 42.6035 2.51631C42.0163 1.92903 41.1353 1.92903 40.4012 2.36949C38.7862 3.54404 37.1712 4.7186 35.5562 5.89315C34.6753 6.62725 34.3817 7.50816 34.5285 8.53589C34.5285 9.12317 34.6753 9.71045 34.8221 10.2977C35.1157 11.4723 34.5285 12.2064 33.6476 12.7936C33.5007 12.9405 33.3539 13.0873 33.2071 13.0873C32.1794 13.6746 32.0326 14.7023 32.473 15.73C32.6198 16.1705 32.7666 16.4641 32.9135 16.9046C33.2071 18.0791 32.473 18.9601 31.7389 18.8132Z" fill="#FAFAFA"/>
</svg>
