<svg width="26" height="28" viewBox="0 0 26 28" fill="none" xmlns="http://www.w3.org/2000/svg">
<path fill-rule="evenodd" clip-rule="evenodd" d="M2.62132 0.420204C2.33006 1.14835 1.89315 1.8765 1.60189 2.60465C1.31063 3.91532 1.31064 5.37162 0.291233 6.53666C-2.667e-05 6.82792 0 7.26481 0 7.7017C0.29126 9.59489 1.16501 11.4881 0.291233 13.5269C0.291233 13.6725 0.873752 13.9638 1.01938 14.255C1.31064 14.5463 1.89316 14.8376 1.74753 14.9832C1.31064 17.022 2.62132 17.3133 4.07762 17.6045C5.82518 17.8958 7.57275 18.0414 9.46594 18.187C9.61157 18.187 9.90281 18.4783 9.90281 18.4783C9.75718 18.7696 9.61156 19.3521 9.3203 19.4977C8.59215 19.789 7.864 19.9346 7.13585 20.2259C6.11645 20.5171 5.53391 21.3909 5.38828 22.4103C5.24265 23.1385 5.24267 24.0122 5.09704 24.7404C5.09704 25.4685 5.67955 26.3423 6.26207 26.6336C7.71836 27.0705 9.32031 27.5074 10.9222 27.9443C12.5242 28.2355 14.1261 27.3617 14.8542 25.9054C14.9998 25.6142 15.1455 25.1773 15.2911 24.7404C15.728 23.2841 16.893 22.7016 18.3493 22.5559C18.7862 21.3909 19.0775 20.0802 19.8056 19.0608C20.5338 17.8958 21.4076 16.8764 22.2814 15.7113C22.427 15.5657 22.5726 15.4201 22.7182 15.2745C23.592 13.5269 24.6114 11.7793 25.4852 10.0318C25.6309 9.74052 25.6309 9.30363 25.4852 8.86674C25.194 8.13859 24.9027 7.41044 24.6114 6.68229C24.3202 6.09977 23.7377 5.80851 23.1551 5.95414C21.5532 6.39103 20.6794 5.51725 19.8056 4.49784C18.2037 4.06096 16.6018 4.06096 14.9999 4.49784C14.4173 5.51725 13.6892 6.39103 13.6892 7.7017C13.6892 9.158 13.6892 10.4687 13.6892 11.925C13.6892 12.0706 13.5436 12.3619 13.5436 12.5075C13.2523 12.6531 13.1067 12.5075 12.961 12.0706C12.3785 10.6143 11.796 9.158 11.2135 7.7017C11.0678 7.41044 10.631 7.26481 10.1941 7.26481C9.90283 7.26481 9.32029 7.41044 9.17466 7.7017C8.30088 9.44926 7.57273 11.1968 6.84458 12.9444C6.84458 12.9444 6.84459 13.09 6.99022 13.09H6.69894L6.84458 12.9444C6.26206 11.925 5.67955 11.0512 6.26207 9.74052C6.55333 9.158 6.84457 8.42985 6.69894 7.99296C6.11642 6.53666 5.9708 4.93473 6.11643 3.3328C6.11643 2.89591 5.97082 2.45902 5.82519 2.16776C5.67956 1.58524 5.24267 1.14836 5.09704 0.565838C4.22327 -0.162312 2.91258 -0.162315 2.62132 0.420204Z" fill="#FAFAFA"/>
</svg>
