<svg width="14" height="17" viewBox="0 0 14 17" fill="none" xmlns="http://www.w3.org/2000/svg">
<path fill-rule="evenodd" clip-rule="evenodd" d="M2.24461 7.54403C0.448923 7.54403 0.149641 8.8908 0 10.2376C1.64605 10.5368 1.64605 10.6865 1.49641 11.8836C1.34677 12.4822 1.19711 13.0807 1.19711 13.6793C1.19711 15.3254 2.09497 16.2232 3.74102 16.5225C4.33959 16.6721 4.93808 16.8218 5.53664 16.9714C6.43449 17.121 7.03309 16.6721 7.63165 15.9239C8.23021 15.0261 8.82876 14.2779 8.82876 13.0807C8.82876 12.1829 8.97845 11.4347 9.72666 10.8361C11.2231 9.78864 11.5223 7.69367 13.0187 6.49654C13.9165 5.89798 13.7669 4.40157 13.1684 3.65336C12.2705 2.45623 11.5223 1.40875 10.4749 0.211622C10.3252 0.0619815 9.72664 -0.0876571 9.42736 0.0619838C7.48203 0.510907 7.03309 0.959826 6.88344 2.90516C6.88344 4.55121 5.9856 5.5987 4.63883 6.3469L4.78844 6.19726H4.63883C4.18991 7.24475 3.2921 7.54403 2.24461 7.54403Z" fill="#FAFAFA"/>
</svg>
