<svg width="20" height="25" viewBox="0 0 20 25" fill="none" xmlns="http://www.w3.org/2000/svg">
<path fill-rule="evenodd" clip-rule="evenodd" d="M2.43521 9.98189C2.582 10.5691 2.58205 11.1562 2.58205 11.0094C2.43526 12.3306 2.28841 13.0645 2.43521 13.6517C2.87558 15.8536 3.31596 18.0555 3.90313 20.1106C4.34351 21.7253 4.93073 23.1932 6.25186 24.2208C6.54545 24.3676 6.98576 24.5144 7.27934 24.3676C7.57293 24.2208 8.01332 24.074 8.30691 23.6336C10.6556 20.551 10.6556 20.5509 14.9126 17.9087C16.0869 17.1747 17.1145 16.1472 18.142 15.1196C18.876 14.3857 19.3163 13.5049 19.7567 12.6242C20.0503 12.1838 20.0503 11.4498 19.9036 10.8626C19.61 9.98189 18.876 9.10114 18.4356 8.22038C17.8485 6.89925 16.8209 5.8717 15.3529 5.57812C13.2978 5.13774 11.6832 3.81661 9.92168 3.08264C8.01338 2.34868 6.10505 1.9083 4.49034 0.587169C3.90317 0.146792 3.02236 0 2.1416 0C1.84802 0 1.26092 0.146794 1.11413 0.440379C0.233371 2.20189 -0.647455 4.11019 0.673677 6.16529C1.55443 7.33963 1.99483 8.66076 2.43521 9.98189Z" fill="#FAFAFA"/>
</svg>
