<svg width="21" height="30" viewBox="0 0 21 30" fill="none" xmlns="http://www.w3.org/2000/svg">
<path fill-rule="evenodd" clip-rule="evenodd" d="M1.95409 16.8726C3.11772 17.018 4.13591 17.1635 5.15408 17.7453V17.8908C5.15408 17.8908 5.29954 17.8908 5.29954 17.7453C5.88136 18.1817 6.31772 18.7635 6.89954 19.1998C9.37225 21.0907 10.6813 23.1271 9.08134 26.3271C8.64498 27.1998 9.0813 28.2179 9.95402 28.9452C10.9722 29.8179 12.4268 29.8179 13.2995 29.2361C14.8995 28.2179 15.9176 26.9089 16.2085 25.018C16.6449 22.6907 17.3721 20.5089 19.4085 18.7635C19.9903 18.3271 20.2812 17.4544 20.5721 16.7271C21.154 15.1271 21.2994 13.6726 19.9903 12.3635C19.4085 11.7817 18.9721 11.1999 19.4085 10.3272C19.5539 10.0363 19.554 9.59992 19.554 9.16356C19.554 6.39995 18.5358 5.38177 15.9176 6.39995C15.4813 6.5454 15.1904 6.69085 14.754 6.83631C14.754 6.83631 14.754 6.83631 14.754 6.98176C14.754 7.41812 14.754 7.56357 14.4631 7.12721C14.6085 6.98176 14.754 6.98176 14.754 6.83631C14.8995 5.67268 15.0449 4.50905 15.0449 3.34543C15.0449 1.45453 13.4449 0 11.554 0C10.3904 0 9.22677 0.290907 8.06315 0C7.77224 0 7.33586 0.290906 7.04496 0.581813C5.88133 1.74544 4.71773 2.76361 5.29954 4.65451C5.445 5.09087 5.15407 5.81813 5.00862 6.25449C4.71771 7.41812 4.71774 7.56357 6.17227 8.29084C6.17227 8.29084 6.17227 8.29084 6.17227 8.14539C6.31772 8.14539 6.31769 8.14539 6.31769 7.99993C6.31769 7.85448 6.46315 7.70903 6.46315 7.70903C6.75406 7.70903 6.75405 7.85448 6.31769 7.99993C6.31769 8.14539 6.31769 8.14539 6.31769 8.29084H6.17227C6.31772 9.01811 6.46315 9.74537 6.46315 10.6181C6.46315 11.1999 6.17226 11.7817 6.02681 12.3635C5.7359 13.0908 5.1541 13.3817 4.71774 13.0908C3.99047 12.7999 3.40862 12.3635 2.68136 11.9272C2.09954 11.6363 1.51776 11.9272 1.0814 12.3635C0.645044 12.7999 0.35412 13.2363 0.0632134 13.8181C-0.227693 15.2726 0.499556 16.5817 1.95409 16.8726Z" fill="#FAFAFA"/>
</svg>
