<svg width="13" height="18" viewBox="0 0 13 18" fill="none" xmlns="http://www.w3.org/2000/svg">
<path fill-rule="evenodd" clip-rule="evenodd" d="M6.85227 11.6333L7.1424 11.7784L6.70725 11.6333L6.56215 11.1981L6.85227 11.6333ZM2.35562 13.0838C2.64573 13.2289 2.9358 13.519 3.22591 13.6641C3.37096 13.6641 3.37098 13.6641 3.51603 13.6641L3.66105 13.9542L3.37102 13.8091C3.37102 13.8091 3.37096 13.8091 3.22591 13.6641C2.50064 13.9542 1.92047 14.0992 1.1952 14.3893C0.905088 14.5344 0.614979 14.9696 0.469924 15.2597C0.469924 15.5498 0.75998 15.9849 1.05009 16.13C2.64569 17.1454 4.5314 16.5652 6.127 17.7256C6.41711 18.0157 7.28745 17.7256 7.86767 17.5805C8.30284 17.4355 8.88307 17.2904 8.88307 17.0003C9.31824 15.1146 10.9138 14.2443 12.3643 13.0838C13.2347 12.3586 13.2347 11.7784 12.2193 10.4729C12.0743 10.3278 11.9292 10.1828 11.7842 10.1828L11.9292 10.0377H11.7842C11.7842 10.0377 11.7842 10.0377 11.7842 10.1828C11.349 10.4729 11.0589 10.3278 10.6237 10.1828C10.6237 10.1828 10.6237 10.1828 10.6237 10.0377H10.4786L10.6237 10.1828C9.89847 9.89265 9.1732 9.60254 8.44793 9.16737C8.15782 9.02232 7.72262 8.4421 7.86767 8.29705C8.44789 5.97617 6.41711 3.6553 7.57755 1.33443C7.7226 1.18937 7.28749 0.609153 6.99738 0.464098C5.40178 -0.551284 3.66109 0.173989 3.51603 1.91464C3.37098 3.94541 3.37095 5.83112 2.21051 7.57177C1.77534 8.15199 2.21054 8.73221 2.79076 9.02232C2.93582 9.16738 3.22591 9.16737 3.22591 9.45748C3.37096 9.89265 3.08085 10.0377 2.50064 10.0377C1.48525 10.1828 0.179744 9.89265 0.0346899 11.1981C-0.255419 12.9388 1.34023 12.6487 2.35562 13.0838Z" fill="#FAFAFA"/>
</svg>
