<svg width="575" height="875" viewBox="0 0 575 875" fill="none" xmlns="http://www.w3.org/2000/svg">
<path fill-rule="evenodd" clip-rule="evenodd" d="M0.970165 18.1584C0.825634 18.7365 1.25925 19.1701 1.9819 19.3147C2.56003 19.4592 3.2827 19.3147 3.7163 19.6037C4.87255 20.4709 6.17334 20.9045 7.61866 21.049C7.76319 21.049 8.0522 21.1936 8.19673 21.3381C8.48579 21.6272 8.19675 21.7717 7.76315 21.9162C7.0405 22.0608 6.17334 22.2053 5.45069 22.3498C4.5835 22.4944 4.00534 22.7834 3.42721 23.5061C3.13815 23.9397 3.42727 24.6623 4.29446 25.5295C5.45071 26.5412 6.6069 27.6975 7.76315 28.7092C8.05222 28.9983 8.48583 29.1428 8.77489 28.9983C11.2319 28.5647 12.8217 26.1076 12.0991 23.6506C11.9546 23.0725 11.5209 22.6389 11.81 22.0608C11.9545 21.9162 12.0991 21.7717 12.2437 21.6272C12.3882 21.6272 12.6772 21.4826 12.8217 21.6272C13.6889 22.7834 14.5561 23.7951 14.2671 25.385C14.1225 26.1076 14.1225 26.9748 13.978 27.6975C13.6889 29.7209 13.6889 29.8655 15.4233 29.8655C16.8686 29.8655 18.1694 30.2991 18.8921 31.5998C20.0483 33.4787 21.7827 34.2014 23.9507 34.2014C27.2749 34.2014 30.5991 34.3459 33.9234 35.3576C34.5015 35.5022 35.2241 35.5022 35.6577 35.3576C37.103 34.7795 38.4038 33.9123 39.56 32.6116C39.9936 32.178 39.9937 30.8772 39.7046 30.299C39.4156 30.01 39.271 29.5764 38.982 29.4319C38.4038 28.8537 37.8256 28.4201 37.103 27.9866C36.2358 27.553 36.0913 26.8303 36.2358 25.9631C36.5249 24.2287 34.7905 23.217 34.5014 21.6272C33.9233 18.592 31.7554 17.0022 29.2984 15.4123C28.1421 14.6897 26.9859 14.5451 25.9741 15.2678C24.9624 15.9905 24.2397 15.7014 23.3725 15.1233C22.0717 14.2561 20.771 14.4006 19.4702 15.2678C19.1812 15.4123 18.8921 15.5569 18.603 15.7014C18.603 15.8459 18.603 15.8459 18.603 15.9905C18.4585 15.9905 18.4585 15.9905 18.3139 15.9905C17.4467 16.8576 16.5796 17.7248 15.7124 18.592C15.4233 18.8811 14.9898 18.8811 14.8452 18.4475C14.8452 18.303 14.8452 18.0139 14.8452 17.8694C15.7124 16.7131 16.7241 15.8459 18.3139 15.8459L18.4585 15.7014C18.4585 15.7014 18.603 15.7014 18.603 15.5569C18.7475 13.8225 18.603 12.2326 16.8686 11.0764C15.5678 10.0647 15.1342 8.61936 14.9897 6.88498C14.9897 6.01779 14.2671 5.29514 13.3999 5.29514C10.7983 5.00607 9.06392 3.56076 7.47407 1.68185C6.89595 0.959197 5.8843 0.525602 5.01711 0.0920085C4.43899 -0.197054 3.13817 0.23654 2.99364 0.814665C2.56004 2.40451 2.12643 3.84982 1.25925 5.1506C-0.186067 7.31857 -0.330599 9.7756 0.536589 11.9436C1.11471 14.2561 1.40376 16.135 0.970165 18.1584Z" fill="#FAFAFA"/>
<path fill-rule="evenodd" clip-rule="evenodd" d="M573.748 844.588C573.17 844.299 572.592 844.299 572.014 844.588C571.724 844.733 571.291 845.022 571.002 845.311C568.689 846.756 568.111 846.756 566.232 845.167C565.221 844.444 564.642 843.577 564.498 842.131C564.353 840.686 564.064 839.385 563.92 838.084C563.775 837.506 563.631 836.928 563.342 836.495C563.197 836.206 562.764 836.061 562.474 836.061C562.33 836.061 562.186 836.206 562.041 836.495C561.896 836.928 561.752 837.217 561.607 837.651C561.463 837.94 561.174 838.229 560.885 838.374C560.596 838.518 559.728 837.651 559.728 837.217C560.162 834.471 560.018 831.725 560.596 828.979C561.029 827.389 560.885 825.944 559.728 824.498C558.428 822.909 557.416 820.741 555.682 819.44C555.248 819.151 555.103 818.428 554.814 817.85C554.67 817.706 554.67 817.561 554.381 817.417C554.092 817.127 553.658 817.127 553.369 817.417C553.225 817.561 553.08 817.706 553.08 817.85C553.08 819.44 554.525 820.741 553.803 822.475C553.224 823.631 553.514 824.788 553.947 825.944C554.525 827.678 554.959 829.413 555.392 831.147C555.681 832.881 556.693 834.471 555.826 836.35C555.682 836.784 556.115 837.506 556.26 838.084C556.549 838.807 556.838 839.53 556.982 840.252C556.693 842.131 556.549 844.01 555.826 845.6C555.103 847.479 554.381 849.213 553.658 851.092C553.225 852.104 552.646 852.682 551.635 853.116C550.767 853.405 549.756 853.838 548.889 854.272C547.443 855.139 547.01 857.307 548.166 858.463C549.178 859.475 550.189 860.487 551.201 861.354C552.213 862.221 552.357 863.377 552.213 864.678C552.213 865.69 551.779 866.557 551.201 867.424C550.045 868.87 548.889 870.17 547.877 871.616C547.732 871.905 547.732 872.483 547.877 872.772C548.455 873.495 549.178 874.217 549.9 874.795C550.189 874.94 550.623 875.084 551.056 874.94C552.646 874.362 553.803 873.35 554.959 872.194C556.982 870.17 558.861 868.292 560.74 866.124C562.475 864.1 563.92 862.077 563.92 859.331C563.92 857.885 565.221 856.874 566.81 856.729C567.244 856.729 567.533 856.729 567.967 856.729C568.4 856.729 568.978 856.44 568.978 856.295C569.412 854.416 571.002 853.405 572.303 852.249C572.881 851.67 573.17 850.948 573.459 850.225C573.892 849.069 574.182 847.913 574.615 846.901C574.904 845.889 574.471 845.022 573.748 844.588Z" fill="#FAFAFA"/>
</svg>
