<svg width="48" height="38" viewBox="0 0 48 38" fill="none" xmlns="http://www.w3.org/2000/svg">
<path fill-rule="evenodd" clip-rule="evenodd" d="M2.27147 31.8967C2.27147 33.492 2.27148 35.0874 2.12645 36.6827C2.12645 37.1178 2.85159 37.843 3.28669 37.843C5.46217 37.843 7.49262 36.9728 9.52307 35.9576C9.52307 35.9576 9.52309 35.9576 9.37806 35.8125L9.66812 35.6675L9.52307 35.9576C10.1032 36.6827 10.8284 37.4079 11.8436 37.2628C12.8588 37.2628 13.874 37.1178 14.5992 36.3927C15.1793 35.8125 15.7595 35.3774 16.1946 34.6523C16.9197 33.7821 17.4998 32.6218 18.225 31.7516C19.3853 30.4463 20.5455 29.141 22.576 29.141C23.4462 29.141 24.3164 28.4159 25.1866 27.8358C26.0567 27.1106 26.7819 26.0954 27.6521 25.3702C28.2322 24.9351 28.9574 24.355 29.6826 24.355C31.858 24.0649 33.8885 23.4848 35.9189 22.9047C36.6441 22.7596 37.5143 22.6146 38.2394 22.6146L38.0944 22.7596C38.0944 22.7596 38.0944 22.7596 38.2394 22.7596C38.2394 22.7596 38.2394 22.7596 38.2394 22.6146C39.2547 21.7444 40.4149 21.4543 41.5752 21.4543C42.4454 21.4543 43.3156 21.4543 44.1858 21.4543C45.201 20.4391 46.5063 20.2941 47.8116 20.2941C48.2467 17.1034 47.8116 14.0577 47.6665 10.867C47.5215 9.12661 46.5063 7.96635 45.4911 6.80609C44.7659 6.08093 43.7507 5.9359 42.7355 5.9359C40.9951 5.9359 39.6898 5.35577 38.3845 4.34055C37.6593 3.61539 36.6441 3.18029 36.209 2.45512C34.9037 0.279642 33.0183 -0.300484 30.5527 0.134612C28.8124 0.424677 26.9269 0.13461 25.1866 0.279642C24.1713 0.279642 23.1561 0.424679 22.2859 0.714743C21.4157 0.859775 20.8356 1.58493 20.6905 2.31009C20.4005 3.47035 20.2555 4.63061 20.1104 5.79087C19.9654 7.09616 19.5303 7.96635 18.5151 8.83654C16.6296 10.2869 14.8893 11.8822 13.0039 13.4776C11.9886 14.2027 11.2635 15.0729 11.2635 16.3782C11.2635 16.6683 10.9734 17.1034 10.6833 17.3934C7.3476 19.2789 4.73701 22.0345 1.83637 24.355C1.25624 24.7901 0.386048 25.2252 0.0959841 25.9503C-0.339112 26.9656 0.821149 27.5457 1.25625 28.4159C1.98141 29.141 2.4165 30.4463 2.27147 31.8967Z" fill="#FAFAFA"/>
</svg>
