<svg width="22" height="24" viewBox="0 0 22 24" fill="none" xmlns="http://www.w3.org/2000/svg">
<path d="M21.3726 16.9592L16.56 14.7092C16.3544 14.6136 16.1259 14.5935 15.9089 14.6518C15.6919 14.7101 15.4982 14.8438 15.3569 15.0326L13.2256 17.8733C9.88072 16.1529 7.18888 13.2163 5.61181 9.56738L8.21576 7.24234C8.38922 7.08844 8.51199 6.87708 8.56549 6.64025C8.61899 6.40342 8.6003 6.15403 8.51225 5.92982L6.44972 0.679742C6.35308 0.438055 6.18218 0.240725 5.96646 0.121779C5.75075 0.00283371 5.50375 -0.0302726 5.26806 0.0281692L0.799232 1.15319C0.571996 1.21043 0.369256 1.35001 0.224101 1.54914C0.0789457 1.74827 -5.23458e-05 1.99519 2.60232e-08 2.24961C2.60232e-08 14.2732 8.93335 23.9999 19.9378 23.9999C20.1711 24.0001 20.3976 23.914 20.5802 23.7556C20.7628 23.5973 20.8908 23.376 20.9433 23.1281L21.9746 18.253C22.0278 17.9946 21.9968 17.7241 21.8869 17.4879C21.7771 17.2518 21.5952 17.0648 21.3726 16.9592V16.9592Z" fill="#47AB82"/>
</svg>
