<svg width="5" height="5" viewBox="0 0 5 5" fill="none" xmlns="http://www.w3.org/2000/svg">
<path fill-rule="evenodd" clip-rule="evenodd" d="M1.89725 0.583782C1.89725 0.729724 1.89725 1.0216 1.89725 1.16754L2.0432 1.02161C1.45943 1.60538 1.0216 2.18915 0.437827 2.77292C-0.145942 3.50263 -0.145942 4.0864 0.437827 4.23234C0.729711 4.23234 1.31348 4.37828 1.60537 4.23234C2.91885 3.35668 4.08639 2.18914 4.96204 0.875662C5.10799 0.583778 4.8161 0.145951 4.37827 0.145951C3.94045 8.90543e-06 3.64856 0 3.21073 0C2.7729 0.437827 2.48103 0.729716 2.0432 1.16754C1.89726 1.0216 1.89725 0.875667 1.89725 0.583782Z" fill="#FAFAFA"/>
</svg>
