<svg width="14" height="12" viewBox="0 0 14 12" fill="none" xmlns="http://www.w3.org/2000/svg">
<path fill-rule="evenodd" clip-rule="evenodd" d="M11.7477 0.146855C10.8666 0.73424 10.1324 1.32161 8.95762 1.02792C7.78285 0.734227 7.04862 1.02792 6.60808 2.20269C6.46124 2.49639 6.0207 2.79008 5.72701 2.93693C5.58016 3.08377 5.28647 2.93693 5.13962 2.93693C1.02792 3.52431 0 4.69907 0 8.66392C0 9.25131 0.293693 9.69184 0.734231 10.1324C1.17477 10.5729 1.17477 11.1603 1.61531 11.6008C1.76215 11.8945 2.49639 12.0414 2.64323 11.7477C4.69908 9.8387 6.90177 8.37024 9.69185 7.34231C10.8666 6.90177 11.7477 5.58015 13.0693 4.99276C13.9504 4.55223 14.0972 3.37747 13.9504 2.34955C13.8035 1.76216 13.363 1.46846 12.7756 1.02792C12.4819 1.02792 12.1882 0.587394 11.7477 0.146855C11.8945 0.146855 11.8945 0.146855 11.7477 0.146855C11.7477 8.9606e-06 11.6009 0 11.6009 0L11.7477 0.146855Z" fill="#FAFAFA"/>
</svg>
