<svg width="14" height="9" viewBox="0 0 14 9" fill="none" xmlns="http://www.w3.org/2000/svg">
<path fill-rule="evenodd" clip-rule="evenodd" d="M0.347133 3.6766C1.94338 3.96683 3.39452 4.54728 4.2652 5.99841C5.86145 5.99841 6.44188 7.44954 7.60279 8.17511C10.0697 9.62624 13.1171 8.32022 13.5524 5.70819C13.6975 4.98262 13.6976 4.11194 13.8427 3.38638C13.8427 3.24126 13.8426 2.95104 13.9878 2.80592C14.1329 0.774341 12.972 -0.241449 11.2306 0.0487767C9.48925 0.339003 7.74789 0.629228 6.00653 0.484115C4.70052 0.339002 3.2494 0.77434 1.94339 0.919453C1.36293 1.06457 0.782481 1.35479 0.492255 1.79013C0.202029 1.93524 0.0569333 2.5157 0.0569333 2.80592C-0.0881798 3.09615 0.0569067 3.53149 0.347133 3.6766Z" fill="#FAFAFA"/>
</svg>
