<svg width="10" height="9" viewBox="0 0 10 9" fill="none" xmlns="http://www.w3.org/2000/svg">
<path fill-rule="evenodd" clip-rule="evenodd" d="M0.631561 2.94555C0.3158 2.94555 0 3.57708 0 3.89284C0 5.47165 0.631484 6.73469 1.73665 7.99773C2.21029 8.62926 3.47333 8.94502 4.10486 8.62926C4.89426 8.3135 5.52582 7.52409 6.31522 7.52409C7.57827 7.36621 8.20979 6.73469 8.68343 5.62952C8.99919 4.84012 9.4728 4.05072 9.63068 3.73496C10.2622 2.31403 10.1044 1.84039 8.99921 1.20887C8.20981 0.735229 7.42041 0.419467 6.631 0.103705C6.31524 -0.0541751 5.52586 -0.0541775 5.36798 0.261584C4.26281 1.68251 2.52613 2.47191 0.631561 2.94555Z" fill="#FAFAFA"/>
</svg>
