<svg width="1133" height="1062" viewBox="0 0 1133 1062" fill="none" xmlns="http://www.w3.org/2000/svg">
<path d="M35.2982 259.998C-62.4317 130.998 68.7084 46.7441 146.495 20.7424C386.386 -57.9169 347.41 119.987 663.177 92.002C978.944 64.0176 893.064 132.594 1084.63 678.193C1276.19 1223.79 828.14 1057.58 802.744 955C777.349 852.416 664.074 855.455 494.855 938.751C325.636 1022.05 95.8727 685.783 198.328 569.508C300.783 453.233 157.461 421.247 35.2982 259.998Z" stroke="#33CC00" stroke-opacity="0.24"/>
<path d="M90.1044 284.813C2.07706 168.499 120.313 92.4442 190.434 68.9558C406.687 -2.10233 371.477 158.384 656.095 133C940.712 107.617 863.277 169.511 1035.69 661.554C1208.1 1153.6 804.345 1003.88 781.501 911.361C758.658 818.841 656.561 821.633 504.004 896.842C351.448 972.052 144.51 668.845 236.906 563.918C329.303 458.992 200.139 430.206 90.1044 284.813Z" stroke="#33CC00" stroke-opacity="0.24"/>
<path d="M132.702 303.822C52.1582 197.508 160.236 128.071 224.344 106.642C422.049 41.8155 389.927 188.433 650.164 165.37C910.401 142.307 839.624 198.824 997.499 648.476C1155.37 1098.13 786.117 961.149 765.188 876.605C744.258 792.06 650.903 794.565 511.443 863.213C371.982 931.861 182.624 654.731 267.062 558.904C351.499 463.076 233.381 436.716 132.702 303.822Z" stroke="#33CC00" stroke-opacity="0.24"/>
<path d="M172.423 323.114C99.0232 226.164 197.577 162.797 256.03 143.232C436.295 84.0434 406.967 217.788 644.229 196.676C881.492 175.563 816.949 227.135 960.751 637.233C1104.55 1047.33 767.945 922.495 748.889 845.386C729.832 768.276 644.721 770.587 517.555 833.244C390.39 895.902 217.835 643.176 294.844 555.744C371.853 468.311 264.173 444.301 172.423 323.114Z" stroke="#33CC00" stroke-opacity="0.24"/>
<path d="M216.12 342.666C150.467 255.845 238.718 199.024 291.05 181.466C452.44 128.348 426.12 248.186 638.512 229.151C850.903 210.116 793.103 256.352 921.616 623.687C1050.13 991.023 748.886 879.352 731.867 810.279C714.847 741.206 638.661 743.32 524.8 799.519C410.939 855.718 256.607 629.388 325.585 551.018C394.562 472.648 298.187 451.192 216.12 342.666Z" stroke="#33CC00" stroke-opacity="0.24"/>
<path d="M262.077 363.184C204.51 287.128 281.824 237.402 327.677 222.046C469.085 175.592 446.067 280.526 632.181 263.939C818.296 247.351 767.662 287.819 880.422 609.554C993.182 931.289 729.154 833.38 714.213 772.884C699.273 712.389 632.51 714.21 532.753 763.382C432.997 812.553 297.667 614.29 358.082 545.686C418.498 477.082 334.035 458.255 262.077 363.184Z" stroke="#33CC00" stroke-opacity="0.24"/>
</svg>
