<svg width="34" height="25" viewBox="0 0 34 25" fill="none" xmlns="http://www.w3.org/2000/svg">
<path fill-rule="evenodd" clip-rule="evenodd" d="M14.0567 7.38375V7.67331V7.38375C13.7671 7.38375 13.4776 7.23897 13.3328 7.09419C13.4776 7.23897 13.7671 7.23897 14.0567 7.38375ZM24.7703 11.0032L24.9151 11.2928L24.7703 11.0032C24.6255 11.0032 24.4807 10.8585 24.4807 10.7137C24.4807 10.8585 24.6255 11.0032 24.7703 11.0032ZM3.0534 14.0436C3.92208 15.3466 5.08035 16.3601 5.08035 18.0974C5.08035 18.5318 5.65945 19.1109 6.23857 19.4004C7.25203 19.9796 8.2655 20.7035 9.42373 20.993C10.8715 21.4274 12.0297 22.0065 12.8984 23.0199C13.7671 23.8886 14.7805 24.3229 16.0836 24.0334C17.097 23.8886 18.1105 24.1782 18.9791 24.0334C19.4135 24.0334 19.9926 23.4543 20.2822 23.0199C20.7165 22.1512 20.7165 21.2826 21.73 20.5587C22.4539 20.1243 23.033 19.1109 23.6121 18.2422C24.7703 16.6496 26.0733 15.781 28.1002 16.3601C28.5346 16.5049 29.2585 16.2153 29.6929 15.9257C30.1272 15.6362 30.5615 15.2018 30.9958 14.7675C31.2854 14.4779 31.4302 14.0436 31.4302 13.754C31.4302 13.0301 31.8645 12.7406 32.2989 12.451C32.5884 12.1615 33.0227 12.0167 33.1675 11.5824C33.4571 11.148 33.8914 10.5689 33.8914 9.98978C34.0362 9.26588 34.0362 8.39721 33.8914 7.67331C33.6018 6.80463 33.1676 5.79118 32.878 4.9225C33.4571 3.04037 32.2989 2.46125 30.8511 2.17169C28.3898 1.59257 25.7838 1.15823 23.3225 0.579117C23.1777 0.579117 22.8882 0.434338 22.7435 0.579117C22.3091 0.868676 21.73 1.01346 21.2957 1.44779C21.1509 1.59257 21.1509 2.31647 21.2957 2.46125C22.3091 4.1986 23.033 6.08074 22.8882 8.10765C22.8882 8.54199 23.033 9.1211 23.1778 9.55544C23.1778 9.55544 23.3225 9.55544 23.3225 9.70022C23.3225 9.845 23.4673 9.98978 23.6121 10.1346C23.4673 9.98978 23.3226 9.98978 23.1778 9.845C23.1778 9.70022 23.1778 9.70022 23.1778 9.55544C22.8882 9.41066 22.5987 9.26588 22.4539 8.97632C21.2956 7.09419 20.1374 5.21206 19.8479 3.04037C19.7031 1.59257 18.8344 1.01346 17.5313 0.723897C16.3731 0.434338 15.2149 0.144779 14.0567 0C13.7671 0 13.3328 0.289558 13.0432 0.579117C12.6089 1.30301 12.3193 2.02691 12.1745 2.75081C12.0297 3.90904 12.1745 4.9225 12.1745 6.08074H12.3193C12.4641 6.37029 12.6088 6.51507 12.8984 6.80463C12.6088 6.65985 12.464 6.51507 12.1745 6.22552V6.08074C10.5819 5.50162 8.8446 5.35684 7.68636 3.90905C6.67291 2.75081 4.93552 2.31647 3.48773 1.88213C2.90861 1.73735 1.89517 2.17169 1.60561 3.04037C1.17127 4.48816 0.592155 6.08074 0.157817 7.52853C-0.131742 8.10765 0.0130905 8.68676 0.302649 9.26588C1.46088 10.8585 2.03995 12.5958 3.0534 14.0436Z" fill="#FAFAFA"/>
</svg>
