<svg width="7" height="18" viewBox="0 0 7 18" fill="none" xmlns="http://www.w3.org/2000/svg">
<path fill-rule="evenodd" clip-rule="evenodd" d="M3.27053 0.0946368C2.67589 -0.202683 1.48661 0.243297 1.04063 0.837937C0.445987 1.7299 0 2.62187 0 3.66249C0 4.85177 0.148667 6.04104 0.297327 7.23032H0.148669C0.297329 8.27094 0.445984 9.31156 0.445984 10.2035C0.297324 12.7307 1.18929 14.9606 2.37857 17.1905C2.52723 17.4878 2.97321 17.7852 3.27053 17.9338C3.41919 18.0825 3.71651 17.9338 3.86517 17.9338C4.01383 17.7852 4.31114 17.6365 4.31114 17.4879C3.12186 14.2173 4.01382 11.0955 5.05444 7.97362C5.64908 6.1897 6.24373 4.55444 6.83837 2.77052C6.98703 2.4732 6.6897 1.87857 6.39238 1.72991C5.50042 1.13527 4.31114 0.540617 3.27053 0.0946368Z" fill="#FAFAFA"/>
</svg>
