<svg width="19" height="24" viewBox="0 0 19 24" fill="none" xmlns="http://www.w3.org/2000/svg">
<path fill-rule="evenodd" clip-rule="evenodd" d="M17.0853 2.50391C15.1706 2.94577 13.1086 3.09304 11.1938 3.68219C9.42636 4.27134 8.10078 3.68217 6.77519 2.65116C5.89146 1.91472 4.86051 1.03099 3.97678 0.441844C3.53492 0.14727 2.79843 0.147287 2.35656 0C1.76741 0 1.03103 1.03103 1.03103 1.76747C1.03103 2.20933 0.883689 2.50389 0.883689 2.94575C0.736402 6.48065 1.47287 10.1628 0 13.6977C0 13.845 0 14.1396 0 15.3179C0.147287 16.3489 0.589114 18.2636 0.883689 20.3257C1.17826 22.535 2.79843 23.2715 4.56588 23.7133C4.86045 23.8606 5.44958 23.8606 5.74416 23.566C6.62788 22.9768 7.36437 22.3877 8.10081 21.6513C8.98454 20.6203 10.0156 20.3257 11.3412 20.473C12.2249 20.6203 12.9613 20.0312 13.2559 19.2947C13.9923 16.7908 14.7287 14.2869 16.7907 12.3722C17.0853 12.0776 17.0854 11.6358 17.2327 11.1939C17.8218 9.27917 18.4109 7.36443 18.8528 5.3024C19.0001 4.86054 19 4.56589 19 4.12403C19 3.24031 18.1163 2.20933 17.0853 2.50391Z" fill="#FAFAFA"/>
</svg>
