<svg width="455" height="192" viewBox="0 0 455 192" fill="none" xmlns="http://www.w3.org/2000/svg">
<path fill-rule="evenodd" clip-rule="evenodd" d="M450.367 4.4771C450.367 4.62152 450.512 4.76595 450.656 4.91037C451.523 5.48806 452.534 5.63248 453.4 5.05479C454.267 4.62153 454.845 3.75499 454.989 2.88845C455.133 1.44423 453.834 0 452.534 0C452.245 0 451.812 0.288844 451.523 0.433267C450.512 1.73307 450.367 3.1773 450.367 4.4771Z" fill="#FAFAFA"/>
<path fill-rule="evenodd" clip-rule="evenodd" d="M6.12264 185.872C5.54495 185.872 4.82283 185.872 4.38957 186.161C2.80092 187.316 1.35669 188.616 0.201307 190.349C-0.0875379 190.782 -0.0875379 191.071 0.34573 191.36C0.490153 191.504 0.778998 191.504 0.923421 191.36C3.23418 190.493 5.11168 189.194 6.70033 187.316C6.84475 187.172 6.84475 186.883 6.84475 186.739C6.5559 186.45 6.41148 186.016 6.12264 185.872Z" fill="#FAFAFA"/>
</svg>
