<svg width="42" height="27" viewBox="0 0 42 27" fill="none" xmlns="http://www.w3.org/2000/svg">
<path fill-rule="evenodd" clip-rule="evenodd" d="M21.3202 26.1076C24.2328 24.9426 26.9999 23.195 30.0581 22.3212C30.6407 22.1756 31.0776 21.7387 31.5145 21.3018C32.9708 19.8454 34.7183 18.9717 36.7572 18.5348C37.631 18.3891 38.0679 17.8066 38.6504 17.2241C39.233 16.4959 39.9611 15.7677 40.6893 15.0396C40.9806 14.7483 41.1262 14.1658 40.9806 14.0201C40.1068 12.2726 40.8349 10.9619 41.8543 9.50555C42 9.35992 42 9.06864 42 8.92301C42 8.77738 41.8544 8.48611 41.7087 8.48611C40.9806 8.04921 40.398 7.61232 39.6698 7.17542C38.6504 6.44726 39.2329 5.28221 38.9417 4.40842C38.6504 3.53462 38.0679 2.66082 37.631 1.78703C37.4854 1.35013 37.0485 1.35014 36.6116 1.49577C35.7378 1.78703 35.0096 1.6414 34.4271 1.05887C33.4077 -0.106192 32.3883 0.0394407 31.3688 1.05887C29.6212 2.66082 27.728 3.38899 25.3979 2.51519C24.6697 2.22393 23.7959 2.80646 23.0678 2.51519C21.0289 1.78703 20.0095 2.66082 19.2813 4.26278C19.1357 4.40841 18.5532 4.40841 18.2619 4.26278C17.825 3.82588 17.5337 3.38898 17.2425 2.80645C16.9512 2.36955 15.9318 2.51518 15.6405 3.09771C15.2036 3.82587 15.2036 4.55405 15.3493 5.42784C15.6405 6.73853 14.9124 7.32105 13.8929 7.75795C13.6017 7.90358 13.1648 8.04921 12.8735 8.19485L13.0191 8.34049C12.8735 8.34049 12.7279 8.48611 12.5823 8.48611C12.7279 8.34048 12.7279 8.19485 12.8735 8.19485C12.1453 7.32105 11.9997 6.30164 12.1453 5.13658C12.291 3.97152 11.8541 2.80645 10.8346 2.07829C10.3977 1.78703 9.96086 1.35012 9.52396 0.913226C8.21327 -0.397465 7.63073 -0.251824 5.73751 1.05887L5.88315 1.35013L5.59187 1.20449C5.59187 1.20449 5.73751 1.2045 5.73751 1.05887C4.71808 1.35013 3.69867 1.49577 3.11614 2.22393C2.09672 3.68026 1.07728 5.13658 0.0578548 6.5929C-0.23341 7.0298 0.640367 8.34049 1.2229 8.34049C1.80543 8.34049 2.38797 8.34049 2.9705 8.04923C4.42683 7.32107 5.73749 7.90358 6.90255 8.48611C7.33945 8.63174 7.4851 9.06865 7.19383 9.50555C6.6113 10.2337 6.46568 11.2531 5.15499 11.3988C3.69867 11.5444 2.38795 11.8357 1.07726 12.1269C0.931623 12.1269 0.640376 12.7095 0.640376 13.0007C0.640376 13.292 0.931632 13.8745 1.2229 14.0201C2.09669 14.3114 3.11612 14.457 4.13554 14.7483C4.71807 14.8939 5.30061 15.1852 5.73751 15.4765C6.32004 16.2046 6.75694 17.0784 7.19383 18.0979C7.33947 18.3891 7.04818 18.826 6.90255 19.1173C6.61129 19.4085 6.32005 19.5542 5.88315 19.6998C4.86372 19.8455 4.42684 20.2823 4.57247 21.3018C4.57247 22.4668 5.30061 23.0494 6.46567 23.195C7.0482 23.195 7.63075 23.3406 8.21328 23.3406C10.2521 23.195 12.291 23.195 13.7473 24.797C15.6405 25.3795 17.5337 26.1076 19.4269 26.5445C19.7182 26.5445 20.592 26.3989 21.3202 26.1076Z" fill="#FAFAFA"/>
</svg>
