<svg width="34" height="54" viewBox="0 0 34 54" fill="none" xmlns="http://www.w3.org/2000/svg">
<path fill-rule="evenodd" clip-rule="evenodd" d="M3.49881 52.2879C4.08195 52.7253 5.10244 53.1626 5.68558 53.0169C7.14342 52.7253 8.4555 53.1626 9.76756 53.7458C10.6423 54.1831 11.2254 54.0374 11.9543 53.4542C12.5375 52.8711 13.1206 52.4337 13.8495 51.9964L13.7037 52.1422L13.8495 52.2879C13.8495 52.1422 13.8495 52.1422 13.8495 51.9964C15.1616 51.2675 16.6194 50.6843 17.6399 49.3723C18.5146 48.3518 19.8266 47.9144 20.9929 47.1855C21.2845 46.6024 21.5761 46.0192 21.8676 45.4361C22.4508 44.2698 23.4712 43.9782 24.6375 43.8325C24.6375 43.8325 24.6375 43.8325 24.6375 43.6867C24.4917 43.2493 24.6375 43.1035 24.9291 43.5409C24.7833 43.6867 24.6375 43.6867 24.6375 43.8325C24.6375 45.4361 24.6375 45.5819 26.0954 45.8734C26.3869 45.8734 26.6785 46.0192 26.9701 46.0192C27.9906 44.8529 28.1364 43.2493 29.4484 42.2288C30.4689 41.3541 31.9267 40.771 31.9267 39.1674C32.0725 37.1264 32.0725 35.2312 30.6147 33.4818C30.3231 33.1902 30.1773 32.8986 30.0316 32.4613C29.74 31.8781 29.74 31.295 30.1774 30.8577C31.0521 29.8372 31.6352 28.6709 32.8014 27.942C32.8014 26.6299 32.2183 25.3179 32.8014 23.86C33.2388 22.9853 33.3846 21.9648 33.3846 20.9443C33.3846 19.4865 31.6352 19.4865 30.9063 18.6118C30.1774 17.5913 28.8653 17.2997 27.9906 16.5708C27.5532 16.2792 27.2617 15.5503 27.1159 15.113C27.1159 13.5093 27.1159 11.9057 27.2617 10.3021C27.4075 8.84424 27.699 7.53218 27.9906 6.22013C28.2822 4.03336 26.9701 2.42974 25.5122 0.971894C24.346 -0.19438 23.0339 -0.0485945 21.576 0.0971897C20.8471 0.0971897 20.264 0.82611 19.9725 1.70082C19.8267 2.28395 20.264 2.72131 20.9929 3.01287C21.7218 3.30444 22.4508 3.59601 23.1797 3.88758C23.617 4.17915 23.617 4.6165 23.3255 4.90807C23.1797 5.05385 23.0339 5.34542 22.8881 5.34542C21.8677 5.4912 20.8472 5.34542 19.9725 5.49121C18.952 5.63699 18.0773 5.92856 17.0568 6.22013C16.0363 6.51169 15.1616 7.96954 15.3073 9.13581C15.4531 9.86473 15.8905 10.5937 16.1821 11.3226C16.1821 11.6141 16.0362 12.0515 15.7447 12.3431C15.7447 12.4888 15.3073 12.4888 15.1615 12.3431C14.2868 11.7599 13.4121 11.1768 12.3917 12.0515C11.3712 12.9262 10.3507 13.2178 9.03864 13.072C7.72658 12.9262 7.43498 14.0925 7.72655 15.113C8.01811 16.1335 8.45547 16.8624 9.18439 17.7371C9.91331 18.6118 10.6422 19.4865 10.6422 20.7985H10.788C10.9338 20.7985 11.0796 20.9443 11.2254 21.0901C11.517 21.0901 11.8085 21.2359 12.1001 21.2359C11.6627 21.5275 11.517 21.2359 11.2254 21.0901C11.0796 21.0901 10.9338 21.0901 10.6422 20.9443V20.7985C9.47596 20.6528 8.4555 20.0696 7.5808 19.4865C6.99766 19.1949 6.26873 19.3407 5.97716 19.7781C4.22775 22.9853 3.64459 26.4841 1.89518 29.6914C1.31204 30.8577 1.89519 32.0239 2.91568 32.8986C3.93617 33.6276 4.95668 34.0649 6.12295 34.2107C6.70609 34.2107 7.28919 34.648 7.72655 34.9396C8.01811 35.0854 8.01813 35.6685 8.01813 35.9601C8.01813 36.2517 7.72657 36.689 7.435 36.8348C7.14344 36.9806 6.70606 36.8348 6.2687 36.8348C3.4988 36.3975 1.89518 37.2722 1.16626 39.6047C0.437335 41.4999 0.145784 43.3951 0 45.4361C0 48.6433 1.16626 50.6843 3.49881 52.2879Z" fill="#FAFAFA"/>
</svg>
