<svg width="312" height="48" viewBox="0 0 312 48" fill="none" xmlns="http://www.w3.org/2000/svg">
<circle cx="24" cy="24" r="24" fill="white"/>
<path d="M38.4932 16.5799C38.1482 15.2496 37.1316 14.2018 35.8409 13.8463C33.5014 13.2002 24.1201 13.2002 24.1201 13.2002C24.1201 13.2002 14.7389 13.2002 12.3993 13.8463C11.1086 14.2019 10.092 15.2496 9.747 16.5799C9.12012 18.9911 9.12012 24.022 9.12012 24.022C9.12012 24.022 9.12012 29.0529 9.747 31.4642C10.092 32.7945 11.1086 33.7986 12.3993 34.1541C14.7389 34.8002 24.1201 34.8002 24.1201 34.8002C24.1201 34.8002 33.5013 34.8002 35.8409 34.1541C37.1316 33.7986 38.1482 32.7945 38.4932 31.4642C39.1201 29.0529 39.1201 24.022 39.1201 24.022C39.1201 24.022 39.1201 18.9911 38.4932 16.5799V16.5799ZM21.0519 28.5897V19.4544L28.8928 24.0221L21.0519 28.5897V28.5897Z" fill="#47AB82"/>
<circle cx="90" cy="24" r="23.5" stroke="white" stroke-opacity="0.17"/>
<path d="M100.114 12.96H80.3607C79.4556 12.96 78.7201 13.6746 78.7201 14.5519V33.448C78.7201 34.3253 79.4556 35.04 80.3607 35.04H100.114C101.02 35.04 101.76 34.3253 101.76 33.448V14.5519C101.76 13.6746 101.02 12.96 100.114 12.96ZM85.6836 31.8857H82.2687V21.3484H85.6887V31.8857H85.6836ZM83.9761 19.9092C82.8807 19.9092 81.9961 19.0566 81.9961 18.0117C81.9961 16.9669 82.8807 16.1142 83.9761 16.1142C85.0664 16.1142 85.9561 16.9669 85.9561 18.0117C85.9561 19.0615 85.0716 19.9092 83.9761 19.9092V19.9092ZM98.4841 31.8857H95.0693V26.76C95.0693 25.5377 95.0436 23.9655 93.295 23.9655C91.5156 23.9655 91.243 25.2962 91.243 26.6712V31.8857H87.8281V21.3484H91.1041V22.7875H91.1504C91.6081 21.9595 92.7241 21.0872 94.3853 21.0872C97.8413 21.0872 98.4841 23.2705 98.4841 26.1094V31.8857V31.8857Z" fill="#78BEA1"/>
<circle cx="156" cy="24" r="23.5" stroke="white" stroke-opacity="0.17"/>
<path d="M163.909 19.3071C163.923 19.5117 163.923 19.7164 163.923 19.9211C163.923 26.1635 159.567 33.3562 151.607 33.3562C149.155 33.3562 146.876 32.5814 144.96 31.2365C145.309 31.2803 145.644 31.2949 146.005 31.2949C148.029 31.2949 149.892 30.5493 151.379 29.2775C149.476 29.2336 147.882 27.874 147.332 26.0027C147.6 26.0466 147.868 26.0758 148.15 26.0758C148.538 26.0758 148.927 26.0173 149.289 25.915C147.305 25.4764 145.818 23.5759 145.818 21.2807V21.2222C146.394 21.5731 147.064 21.7924 147.774 21.8216C146.608 20.9737 145.845 19.5264 145.845 17.889C145.845 17.0119 146.059 16.2078 146.434 15.5061C148.565 18.3714 151.768 20.2427 155.359 20.4474C155.292 20.0965 155.252 19.7311 155.252 19.3656C155.252 16.7633 157.182 14.6436 159.581 14.6436C160.827 14.6436 161.953 15.2137 162.743 16.1347C163.721 15.9301 164.66 15.5353 165.49 14.9944C165.169 16.0909 164.485 17.0119 163.587 17.5966C164.459 17.4944 165.303 17.2311 166.08 16.8657C165.491 17.8013 164.753 18.6346 163.909 19.3071V19.3071Z" fill="#78BEA1"/>
<circle cx="222" cy="24" r="23.5" stroke="white" stroke-opacity="0.17"/>
<path d="M227.245 25.3199L227.843 21.4977H224.107V19.0174C224.107 17.9717 224.629 16.9524 226.302 16.9524H228V13.6982C228 13.6982 226.459 13.4399 224.986 13.4399C221.91 13.4399 219.899 15.2706 219.899 18.5846V21.4977H216.48V25.3199H219.899V34.5599H224.107V25.3199H227.245Z" fill="#78BEA1"/>
<circle cx="288" cy="24" r="23.5" stroke="white" stroke-opacity="0.17"/>
<path d="M288.242 18.8248C285.246 18.8248 282.829 21.2424 282.829 24.2397C282.829 27.237 285.246 29.6546 288.242 29.6546C291.239 29.6546 293.656 27.237 293.656 24.2397C293.656 21.2424 291.239 18.8248 288.242 18.8248ZM288.242 27.7601C286.306 27.7601 284.723 26.1813 284.723 24.2397C284.723 22.2981 286.301 20.7193 288.242 20.7193C290.183 20.7193 291.762 22.2981 291.762 24.2397C291.762 26.1813 290.179 27.7601 288.242 27.7601V27.7601ZM295.14 18.6033C295.14 19.3055 294.575 19.8663 293.877 19.8663C293.175 19.8663 292.615 19.3008 292.615 18.6033C292.615 17.9058 293.18 17.3403 293.877 17.3403C294.575 17.3403 295.14 17.9058 295.14 18.6033ZM298.726 19.8851C298.646 18.1933 298.259 16.6946 297.02 15.4599C295.786 14.2252 294.287 13.8387 292.596 13.7539C290.852 13.6549 285.627 13.6549 283.884 13.7539C282.197 13.834 280.699 14.2205 279.46 15.4552C278.221 16.6899 277.839 18.1886 277.754 19.8804C277.655 21.6241 277.655 26.8505 277.754 28.5942C277.834 30.2861 278.221 31.7847 279.46 33.0195C280.699 34.2542 282.192 34.6406 283.884 34.7255C285.627 34.8244 290.852 34.8244 292.596 34.7255C294.287 34.6453 295.786 34.2589 297.02 33.0195C298.254 31.7847 298.641 30.2861 298.726 28.5942C298.825 26.8505 298.825 21.6288 298.726 19.8851V19.8851ZM296.473 30.4652C296.106 31.3889 295.395 32.1005 294.466 32.4728C293.076 33.0242 289.778 32.8969 288.242 32.8969C286.706 32.8969 283.403 33.0195 282.018 32.4728C281.095 32.1052 280.383 31.3936 280.011 30.4652C279.46 29.0749 279.587 25.776 279.587 24.2397C279.587 22.7033 279.464 19.3997 280.011 18.0142C280.378 17.0905 281.09 16.3789 282.018 16.0066C283.408 15.4552 286.706 15.5824 288.242 15.5824C289.778 15.5824 293.081 15.4599 294.466 16.0066C295.39 16.3742 296.101 17.0858 296.473 18.0142C297.025 19.4044 296.898 22.7033 296.898 24.2397C296.898 25.776 297.025 29.0796 296.473 30.4652Z" fill="#78BEA1"/>
</svg>
