<svg width="74" height="64" viewBox="0 0 74 64" fill="none" xmlns="http://www.w3.org/2000/svg">
<path fill-rule="evenodd" clip-rule="evenodd" d="M29.2127 0.869759C28.4879 1.4496 27.6182 1.73952 26.6034 1.73952C25.4438 1.88448 24.2841 1.88448 23.1244 2.02944C22.9794 2.31936 22.8345 2.60928 22.5446 2.75425C19.9353 4.34881 17.181 5.21857 14.4268 6.37825C13.1222 6.95809 11.9625 7.53793 11.6726 9.27745C11.6726 10.0023 10.9478 10.1472 10.5129 10.5821C9.64311 11.1619 8.77335 11.4519 7.90359 12.0317C6.88887 12.9015 5.58423 13.7712 5.43927 15.2208C5.43927 16.0906 6.0191 17.1053 6.30902 17.9751C6.30902 18.12 6.45399 18.4099 6.45399 18.5549C6.74391 19.4247 7.32374 19.8595 8.1935 20.0045C9.93303 20.2944 11.6725 20.2944 13.557 20.5843C13.702 20.5843 13.847 20.8743 13.847 21.0192C13.847 21.4541 13.702 21.744 13.2671 21.744C11.2377 21.889 9.3532 22.0339 7.32376 22.1789C6.16408 22.3239 4.85943 22.6138 3.98967 23.3386C3.55479 23.7735 3.1199 24.3533 3.1199 24.7882C2.97494 25.513 3.26487 26.3827 3.26487 27.1075C3.40983 29.2819 3.69974 29.8618 6.45399 30.5866C9.78807 31.3114 12.9772 32.3261 16.4562 32.1811C17.0361 32.1811 17.7609 32.3261 18.1958 32.616C20.5151 34.2106 22.6895 35.8052 23.9942 38.4144C24.2841 38.8493 24.2841 39.1392 23.9942 39.4292C23.8492 39.5741 23.7042 39.5741 23.4143 39.4292C20.3702 39.1392 17.6159 37.9796 15.0066 36.8199C13.9919 36.385 12.8322 35.6602 11.6726 35.5152C8.91832 35.2253 6.16407 35.2253 3.26487 35.3703C1.96023 35.3703 1.09046 36.385 0.655582 37.5447C-0.0692192 38.9943 -0.0692103 40.5888 0.0757498 42.1834C0.22071 45.0826 1.6703 46.9671 4.5695 47.9818C5.87414 48.4167 7.32374 48.7066 8.48342 49.2865C8.9183 49.4314 9.35318 50.3012 9.20822 50.7361C8.9183 51.6058 8.33847 52.4756 7.90359 53.4903C7.61367 54.0701 7.4687 54.65 7.4687 55.2298C7.61366 56.3895 7.90359 57.5492 8.33847 58.7089C8.48343 58.9988 8.9183 59.2887 9.20822 59.4337C9.78806 59.5786 10.3679 59.5786 10.9478 59.5786C13.702 59.8685 16.6012 59.4337 19.2105 60.3034C20.95 60.8833 22.3996 60.5933 23.8492 59.8685C24.719 59.4337 25.5887 58.9988 26.4585 58.5639C27.7631 57.8391 29.0678 57.5492 30.5174 57.8391C32.2569 58.129 33.7065 57.6941 35.0111 56.6794C35.591 56.2445 36.3158 55.8097 37.0406 55.5197C37.4755 55.2298 37.7654 55.5197 38.0553 55.8097C38.2003 55.9546 38.3452 56.0996 38.3452 56.3895C38.6351 57.5492 39.5049 57.9841 40.3747 58.4189C41.6793 59.1437 41.0995 60.5933 41.9692 61.4631C42.1142 61.6081 42.2591 61.753 42.4041 61.898C44.2886 62.4778 46.1731 63.2026 48.0575 63.6375C49.942 64.0724 51.9715 64.2174 54.0009 63.4925C55.0156 63.2026 55.8854 62.6228 56.1753 61.6081C56.7552 59.7236 56.9001 57.8391 55.4505 56.2445C55.3056 56.2445 55.3056 56.2445 55.1606 56.2445C54.8707 56.6794 54.5808 56.9693 54.0009 57.1143C53.856 57.1143 53.566 57.1143 53.4211 57.1143C52.9862 56.8244 53.1312 56.5345 53.711 56.3895C54.1459 56.3895 54.7257 56.3895 55.1606 56.2445L55.3056 56.0996C55.3056 56.0996 55.3056 56.2445 55.4505 56.2445C55.7404 55.8097 56.0304 55.2298 56.4652 54.7949C56.9001 54.3601 57.6249 54.2151 58.0598 54.65C58.9296 55.6647 60.3792 55.8097 61.104 57.1143C62.8435 56.8244 64.0032 55.9546 64.583 54.2151C65.0179 53.0554 65.0179 51.8957 64.2931 50.7361C63.8582 50.0113 63.4233 49.4314 62.8435 48.8516C61.9737 47.9818 61.3939 46.9671 61.2489 45.6624C61.104 44.2128 60.3792 43.1981 59.2195 42.3284C57.9148 41.3136 57.7699 39.5741 57.19 38.1245C56.7552 37.1098 56.9001 36.0951 57.6249 35.3703C59.5094 33.6308 60.2342 31.4564 60.0892 28.8471C60.0892 27.8324 60.2342 26.8176 60.6691 25.9479C61.6838 23.1936 62.8435 20.4394 63.8582 17.5402C64.2931 16.5255 64.8729 15.8007 65.7427 15.3658C68.207 13.9162 70.3814 12.1767 72.4109 10.2922C72.9907 9.71233 73.2806 8.98753 73.2806 8.11777C73.4256 5.94336 72.7008 4.78369 70.5264 4.20385C69.3667 3.91393 68.207 3.47905 67.0473 3.33409C65.4527 3.04417 64.438 3.91393 63.2784 4.92865C62.4086 5.65345 62.6985 6.66817 62.9884 7.68289C63.2784 8.84257 63.2784 10.1472 63.4233 11.4519C63.4233 11.5968 63.5683 11.5968 63.5683 11.7418L63.7132 12.0317L63.4233 11.8867C63.4233 11.7418 63.4233 11.7418 63.4233 11.5968C63.2784 11.3069 63.1334 11.017 62.9884 10.7271C62.5536 9.71233 61.9737 8.98753 60.959 8.69761C60.3792 8.55265 59.7993 8.40769 59.2195 8.11777C57.4799 7.10305 56.4652 7.97281 55.7404 9.13249C55.1606 10.0023 54.7257 10.872 54.2908 11.7418C53.4211 14.2061 52.8412 16.8154 51.5366 18.9898C50.232 21.3091 50.087 23.9184 49.2172 26.3827C49.0723 26.5277 49.0723 26.8176 48.9273 26.9626C48.7824 27.1075 48.7824 27.2525 48.6374 27.5424C48.3475 28.1223 47.6227 28.4122 47.1878 28.2672C46.7529 28.1223 46.1731 27.2525 46.1731 26.9626C46.7529 24.9331 47.3327 22.7587 48.0575 20.7293C49.2172 17.8301 49.3622 14.9309 48.4924 12.0317C48.3475 11.4519 47.9126 11.017 47.4777 10.5821C47.0428 10.0023 45.5932 10.2922 45.4483 11.017C45.1583 12.3216 44.8684 13.7712 44.7235 15.0759C44.5785 15.8007 44.1436 16.2355 43.5638 16.0906C41.8243 15.5107 40.0847 15.6557 38.2002 15.5107C37.6204 15.5107 37.3305 15.3658 37.6204 15.0759C37.7654 14.9309 37.9103 14.9309 38.2002 14.7859C39.07 14.3511 39.9398 13.9162 40.8095 13.3363C41.3894 12.9014 41.5343 11.8867 41.2444 11.1619C40.6646 9.56737 39.3599 8.55264 38.2002 7.53792C36.8956 6.37824 35.8809 6.23329 34.4313 7.24801C33.8515 7.68289 33.2716 8.26273 32.6918 8.84257C32.2569 9.27745 31.6771 9.42241 31.0972 9.27745C30.5174 9.13249 30.5174 8.98753 31.2422 7.82785C32.1119 6.52321 33.1266 5.21856 33.8514 3.91392C34.4313 3.04416 33.9964 1.59456 32.9817 0.724801C32.6918 0.43488 32.2569 0.289918 31.967 0.144958L32.1119 0H31.967V0.144958C31.822 0.724799 30.5174 0.579838 29.2127 0.869759Z" fill="#FAFAFA"/>
</svg>
