<svg width="28" height="34" viewBox="0 0 28 34" fill="none" xmlns="http://www.w3.org/2000/svg">
<path fill-rule="evenodd" clip-rule="evenodd" d="M27.0553 6.40018C27.7826 5.9638 28.0735 5.09105 27.7826 4.36376C27.4917 3.491 26.9099 3.05463 26.0371 2.90917C24.728 2.61825 23.2734 2.76372 21.8188 2.4728C21.0915 2.32734 20.5097 2.03643 19.7824 1.74551H19.6369L19.7824 1.89097C19.346 1.45459 19.0551 1.01821 18.4733 0.581836C18.0369 0.290919 17.455 0 16.8732 0C15.855 0.145459 14.9822 0.290917 13.964 0.727293C13.3822 0.872751 12.8004 1.30913 12.6549 1.74551C12.0731 3.20009 11.0549 3.92738 9.89121 4.80014C9.30937 5.23651 9.30935 5.81834 9.4548 6.40018C9.60026 6.98201 9.74576 7.56385 10.0367 8.14569C11.3458 10.1821 10.6185 11.9276 9.60027 13.8186C9.30935 14.2549 8.43659 14.4004 8.00022 14.1095C6.98201 13.0913 6.69111 11.6367 6.10928 10.3276C5.81836 9.45481 4.94563 9.16389 4.21833 9.16389C1.891 9.16389 0.436393 10.6185 0.290935 12.8004C0.145476 14.4004 0 16.0004 0 17.6005C0 18.1823 0.290926 18.7642 0.87276 19.0551C2.32735 19.6369 3.05466 20.8006 3.49104 22.1097C4.21833 24.5825 5.38197 26.9098 5.23652 29.6735C5.23652 31.1281 5.96383 32.2918 6.98204 33.4555C7.56387 34.0373 8.58208 34.1828 9.16391 33.7464C10.0367 33.0191 10.9094 32.0009 11.7821 31.4191C12.8004 30.8372 14.1095 30.6918 15.1277 30.2554C16.2914 29.819 17.3096 29.2372 18.3278 28.6553C18.7642 28.3644 19.346 27.7826 19.4915 27.3462C20.0733 25.4552 21.0915 23.7097 22.5461 22.2552C23.5643 21.237 23.7097 19.7824 23.4188 18.3278C23.1279 17.3096 22.837 16.4368 22.5461 15.4186C22.2552 14.1095 21.3824 13.3822 20.2188 12.8004C19.7824 12.5094 19.7824 12.2185 20.2188 11.9276C21.3824 11.4912 22.4006 11.0549 23.5643 10.6185C24.2916 10.3276 25.0189 9.74573 25.0189 8.87298C25.3098 7.27294 26.1825 6.98201 27.0553 6.40018Z" fill="#FAFAFA"/>
</svg>
