<svg width="12" height="11" viewBox="0 0 12 11" fill="none" xmlns="http://www.w3.org/2000/svg">
<path fill-rule="evenodd" clip-rule="evenodd" d="M0.581443 4.56639C1.01753 4.85712 1.59897 5.14784 2.18041 5.14784C3.48866 5.14784 4.36082 5.72929 4.94227 7.03754C5.37835 8.20042 5.81444 9.21794 6.25052 10.3808C6.39588 10.8169 7.12268 11.1076 7.70413 10.9623C8.86701 10.6716 10.0299 10.2355 11.0474 9.94475C11.1928 9.94475 11.3381 9.65403 11.4835 9.50867C11.4835 9.36331 11.4835 9.07258 11.4835 8.92722C10.7567 7.47361 9.73918 6.16536 9.44846 4.71175C8.86701 2.6767 7.70412 1.80454 5.66907 1.51382C4.79691 1.36846 4.0701 0.496293 3.19794 0.0602109C2.90722 -0.08515 2.32577 0.0602087 2.18041 0.20557C1.30825 1.07773 0.436083 1.80454 0 2.96743C0 3.40351 0.14536 4.27567 0.581443 4.56639Z" fill="#FAFAFA"/>
</svg>
